{"glyphs":{"0":{"ha":926,"x_min":229,"x_max":813,"o":"m 373 218 q 521 96 420 96 q 617 135 579 96 q 676 239 656 174 q 694 343 688 274 q 700 468 699 412 q 701 637 701 524 q 696 902 701 827 l 373 218 m 521 1177 q 425 1138 463 1177 q 365 1034 386 1100 q 348 930 354 999 q 342 805 343 861 q 341 637 341 749 q 345 372 341 446 l 669 1055 q 521 1177 621 1177 m 264 1093 q 521 1289 338 1289 q 778 1093 703 1289 q 802 971 794 1049 q 812 830 810 893 q 813 637 813 766 q 812 444 813 507 q 802 302 810 380 q 778 180 794 224 q 521 -16 703 -16 q 264 180 338 -16 q 240 302 248 224 q 230 444 231 380 q 229 637 229 507 q 230 830 229 766 q 240 971 231 893 q 264 1093 248 1049 z "},"1":{"ha":926,"x_min":231,"x_max":694,"o":"m 597 1273 l 694 1273 l 694 0 l 579 0 l 579 1127 l 570 1127 l 288 924 l 231 1007 l 597 1273 z "},"2":{"ha":926,"x_min":231,"x_max":859,"o":"m 231 1260 q 492 1288 375 1288 q 644 1262 579 1288 q 747 1194 710 1237 q 803 1099 785 1150 q 821 988 821 1047 q 804 871 821 920 q 752 762 788 823 l 378 109 l 859 109 l 859 0 l 231 0 l 231 80 l 649 813 q 679 868 670 849 q 697 920 688 887 q 705 988 705 952 q 696 1055 705 1024 q 666 1115 687 1086 q 600 1162 644 1145 q 492 1179 555 1179 q 231 1151 382 1179 l 231 1260 z "},"3":{"ha":926,"x_min":231,"x_max":839,"o":"m 723 388 q 676 604 723 537 q 517 671 629 671 q 447 661 481 671 l 393 730 l 669 1165 l 231 1165 l 231 1273 l 810 1273 l 810 1174 l 528 758 l 534 751 q 593 760 564 760 q 695 738 651 760 q 766 681 740 716 q 810 595 793 646 q 833 494 827 544 q 839 386 839 444 q 756 84 839 182 q 506 -14 673 -14 q 231 14 396 -14 l 231 124 q 506 94 389 94 q 599 109 560 94 q 662 151 638 125 q 699 216 685 176 q 718 295 713 255 q 723 388 723 335 z "},"4":{"ha":926,"x_min":174,"x_max":926,"o":"m 810 0 l 694 0 l 694 347 l 174 347 l 174 438 l 616 1298 l 714 1248 l 313 465 l 313 456 l 694 456 l 694 694 l 810 694 l 810 456 l 926 456 l 926 347 l 810 347 l 810 0 z "},"5":{"ha":926,"x_min":231,"x_max":839,"o":"m 231 124 q 506 94 389 94 q 599 111 560 94 q 662 154 638 127 q 699 223 685 181 q 718 307 713 265 q 723 406 723 350 q 715 522 723 471 q 688 619 707 573 q 630 691 668 666 q 535 716 591 716 q 346 618 416 716 l 231 648 l 231 1273 l 810 1273 l 810 1165 l 347 1165 l 347 738 l 356 738 q 447 802 401 780 q 553 825 492 825 q 839 404 839 825 q 756 88 839 191 q 506 -14 674 -14 q 231 14 396 -14 l 231 124 z "},"6":{"ha":926,"x_min":231,"x_max":839,"o":"m 625 1243 q 400 781 472 983 l 408 778 q 553 825 469 825 q 717 776 650 825 q 814 644 783 727 q 831 569 826 611 q 838 496 837 526 q 839 405 839 465 q 810 166 839 245 q 711 35 780 84 q 544 -14 642 -14 q 363 34 435 -14 q 260 166 292 82 q 237 266 242 214 q 231 405 231 318 q 309 859 231 657 q 525 1298 384 1056 l 625 1243 m 350 503 q 349 483 350 503 q 347 405 347 463 q 350 307 347 347 q 365 223 354 267 q 396 154 376 180 q 451 111 416 127 q 535 94 486 94 q 619 111 584 94 q 675 154 655 127 q 706 223 694 180 q 720 307 717 267 q 723 405 723 347 q 720 503 723 463 q 706 587 717 543 q 675 656 694 630 q 619 699 655 683 q 535 716 584 716 q 451 699 486 716 q 396 656 416 683 q 365 587 376 630 q 350 503 354 543 z "},"7":{"ha":926,"x_min":174,"x_max":868,"o":"m 174 1165 l 174 1273 l 868 1273 l 868 1192 l 445 0 l 328 0 l 746 1156 l 746 1165 l 174 1165 z "},"8":{"ha":926,"x_min":203,"x_max":839,"o":"m 660 1114 q 637 1147 660 1114 q 521 1179 614 1179 q 382 1114 428 1179 q 336 945 336 1049 q 383 770 336 840 q 521 700 430 700 q 659 770 612 700 q 705 945 705 840 q 660 1114 705 1049 m 299 1190 q 339 1239 299 1190 q 521 1288 378 1288 q 742 1190 664 1288 q 821 945 821 1093 q 679 654 821 739 l 679 645 q 839 338 839 558 q 755 85 839 184 q 521 -14 671 -14 q 287 85 371 -14 q 203 338 203 184 q 363 645 203 558 l 363 654 q 221 945 221 739 q 299 1190 221 1093 m 672 520 q 647 556 672 520 q 521 591 621 591 q 369 520 420 591 q 318 338 318 448 q 369 161 318 229 q 521 94 420 94 q 673 161 622 94 q 723 338 723 229 q 672 520 723 448 z "},"9":{"ha":926,"x_min":203,"x_max":810,"o":"m 333 1239 q 368 1263 333 1239 q 506 1288 403 1288 q 680 1239 609 1288 q 781 1107 751 1190 q 805 1007 799 1059 q 810 868 810 956 q 732 414 810 616 q 516 -25 657 217 l 417 30 q 642 492 570 290 l 634 496 q 488 448 572 448 q 325 497 392 448 q 228 629 259 546 q 210 704 216 662 q 203 778 204 747 q 203 868 203 808 q 231 1107 203 1028 q 333 1239 262 1190 m 590 1162 q 573 1171 590 1162 q 506 1179 555 1179 q 422 1162 458 1179 q 367 1119 387 1146 q 336 1050 347 1093 q 321 966 325 1006 q 318 868 318 926 q 321 770 318 810 q 336 686 325 730 q 367 617 347 643 q 422 574 387 590 q 506 557 458 557 q 590 574 555 557 q 646 617 626 590 q 677 686 666 643 q 691 770 688 730 q 694 868 694 810 q 691 966 694 926 q 677 1050 688 1006 q 646 1119 666 1093 q 590 1162 626 1146 z "}," ":{"ha":926,"x_min":0,"x_max":0,"o":""},"!":{"ha":926,"x_min":391,"x_max":651,"o":"m 427 210 q 445 228 427 210 q 521 246 463 246 q 615 210 579 246 q 651 116 651 174 q 615 22 651 58 q 521 -14 579 -14 q 427 22 463 -14 q 391 116 391 58 q 427 210 391 174 m 579 463 l 463 463 l 454 1273 l 588 1273 l 579 463 z "},"\"":{"ha":926,"x_min":347,"x_max":810,"o":"m 694 1273 l 810 1273 l 810 694 l 694 694 l 694 1273 m 347 1273 l 463 1273 l 463 694 l 347 694 l 347 1273 z "},"#":{"ha":926,"x_min":231,"x_max":926,"o":"m 463 817 l 463 456 l 694 456 l 694 817 l 463 817 m 926 456 l 926 347 l 810 347 l 810 0 l 694 0 l 694 347 l 463 347 l 463 0 l 347 0 l 347 347 l 231 347 l 231 456 l 347 456 l 347 817 l 231 817 l 231 926 l 347 926 l 347 1273 l 463 1273 l 463 926 l 694 926 l 694 1273 l 810 1273 l 810 926 l 926 926 l 926 817 l 810 817 l 810 456 l 926 456 z "},"$":{"ha":926,"x_min":204,"x_max":953,"o":"m 694 1283 q 895 1265 797 1277 l 895 1156 q 694 1175 766 1170 l 694 685 q 880 567 807 655 q 953 348 953 480 q 848 91 953 191 q 579 -14 742 -9 l 579 -116 l 463 -116 l 463 -12 q 226 14 355 -5 l 226 126 q 463 98 355 105 l 463 617 q 276 731 347 646 q 204 945 204 816 q 213 1027 204 986 q 247 1117 222 1069 q 312 1202 272 1166 q 420 1263 351 1239 q 579 1288 489 1288 l 579 1389 l 694 1389 l 694 1283 m 579 1179 q 464 1162 514 1179 q 388 1120 415 1145 q 345 1061 362 1095 q 325 1000 329 1027 q 320 945 320 973 q 345 832 320 880 q 411 759 370 784 q 493 722 453 734 q 579 707 533 711 l 579 1179 m 579 94 q 766 167 694 99 q 837 348 837 235 q 815 459 837 411 q 755 536 793 507 q 673 580 717 564 q 579 599 629 595 l 579 94 z "},"%":{"ha":926,"x_min":76,"x_max":966,"o":"m 156 192 l 76 271 l 886 1081 l 966 1002 l 156 192 m 442 1143 q 424 1161 442 1143 q 347 1179 406 1179 q 253 1143 288 1179 q 217 1042 217 1107 q 253 940 217 977 q 347 904 288 904 q 442 940 406 904 q 477 1042 477 977 q 442 1143 477 1107 m 170 1217 q 205 1252 170 1217 q 347 1288 240 1288 q 524 1217 455 1288 q 593 1042 593 1147 q 524 866 593 937 q 347 796 455 796 q 170 866 240 796 q 101 1042 101 937 q 170 1217 101 1147 m 789 333 q 771 351 789 333 q 694 369 753 369 q 600 333 636 369 q 564 231 564 297 q 600 130 564 166 q 694 94 636 94 q 789 130 753 94 q 825 231 825 166 q 789 333 825 297 m 518 407 q 552 442 518 407 q 694 477 587 477 q 871 407 802 477 q 940 231 940 336 q 871 56 940 127 q 694 -14 802 -14 q 518 56 587 -14 q 448 231 448 127 q 518 407 448 336 z "},"&":{"ha":926,"x_min":87,"x_max":996,"o":"m 407 616 q 259 519 316 585 q 203 358 203 454 q 288 170 203 245 q 521 94 373 94 q 737 165 659 94 l 407 616 m 457 741 q 551 772 510 754 q 630 819 592 790 q 689 892 668 848 q 710 990 710 935 q 658 1129 710 1075 q 521 1183 607 1183 q 384 1130 436 1183 q 332 989 332 1077 q 333 963 332 975 q 338 937 334 950 q 344 914 342 923 q 355 889 346 905 q 368 866 364 873 q 386 839 372 859 q 405 812 400 819 q 430 778 411 804 q 457 741 448 751 m 799 270 q 810 390 810 309 l 810 579 l 926 579 l 926 390 q 878 162 926 240 l 996 0 l 856 0 l 803 74 q 521 -14 694 -14 q 204 94 322 -14 q 87 358 87 203 q 157 572 87 479 q 340 707 228 666 q 288 780 303 759 q 253 840 274 801 q 224 914 231 880 q 216 988 216 948 q 302 1207 216 1123 q 521 1291 389 1291 q 740 1205 655 1291 q 826 990 826 1119 q 747 778 826 871 q 524 647 669 685 l 799 270 z "},"'":{"ha":926,"x_min":463,"x_max":579,"o":"m 463 1273 l 579 1273 l 579 694 l 463 694 l 463 1273 z "},"(":{"ha":926,"x_min":326,"x_max":805,"o":"m 536 1048 q 489 964 536 1048 q 441 636 441 881 q 536 223 441 391 q 805 -32 631 55 l 755 -127 q 439 165 552 -28 q 326 636 326 357 q 439 1106 326 914 q 755 1398 552 1298 l 805 1303 q 536 1048 631 1215 z "},")":{"ha":926,"x_min":237,"x_max":716,"o":"m 505 223 q 553 307 505 223 q 600 636 600 391 q 505 1048 600 881 q 237 1303 411 1215 l 287 1398 q 603 1106 490 1298 q 716 636 716 914 q 603 165 716 357 q 287 -127 490 -28 l 237 -32 q 505 223 411 55 z "},"*":{"ha":926,"x_min":92,"x_max":949,"o":"m 463 570 l 463 926 l 579 926 l 579 570 l 911 678 l 949 576 l 611 466 l 822 176 l 726 116 l 521 397 l 316 116 l 221 176 l 430 466 l 92 576 l 130 678 l 463 570 z "},"+":{"ha":926,"x_min":116,"x_max":926,"o":"m 579 575 l 926 575 l 926 467 l 579 467 l 579 116 l 463 116 l 463 467 l 116 467 l 116 575 l 463 575 l 463 926 l 579 926 l 579 575 z "},",":{"ha":926,"x_min":347,"x_max":579,"o":"m 347 333 l 579 333 l 579 21 q 577 -38 579 -16 q 565 -95 576 -60 q 532 -160 553 -131 q 347 -246 468 -246 l 347 -137 q 438 -97 407 -137 q 455 -60 449 -81 q 462 -24 461 -39 q 463 21 463 -9 l 463 116 l 347 116 l 347 333 z "},"-":{"ha":926,"x_min":116,"x_max":926,"o":"m 116 575 l 926 575 l 926 467 l 116 467 l 116 575 z "},".":{"ha":926,"x_min":347,"x_max":579,"o":"m 347 217 l 579 217 l 579 0 l 347 0 l 347 217 z "},"/":{"ha":926,"x_min":113,"x_max":929,"o":"m 215 -140 l 113 -92 l 826 1413 l 929 1365 l 215 -140 z "},":":{"ha":926,"x_min":347,"x_max":579,"o":"m 347 217 l 579 217 l 579 0 l 347 0 l 347 217 m 347 926 l 579 926 l 579 709 l 347 709 l 347 926 z "},";":{"ha":926,"x_min":347,"x_max":579,"o":"m 347 926 l 579 926 l 579 709 l 347 709 l 347 926 m 347 333 l 579 333 l 579 21 q 577 -38 579 -16 q 565 -95 576 -60 q 532 -160 553 -131 q 347 -246 468 -246 l 347 -137 q 438 -97 407 -137 q 455 -60 449 -81 q 462 -24 461 -39 q 463 21 463 -9 l 463 116 l 347 116 l 347 333 z "},"<":{"ha":926,"x_min":231,"x_max":814,"o":"m 352 516 l 814 86 l 736 5 l 231 480 l 231 562 l 736 1037 l 814 956 l 352 525 l 352 516 z "},"=":{"ha":926,"x_min":231,"x_max":810,"o":"m 231 344 l 810 344 l 810 235 l 231 235 l 231 344 m 231 807 l 810 807 l 810 698 l 231 698 l 231 807 z "},">":{"ha":926,"x_min":228,"x_max":810,"o":"m 690 516 l 690 525 l 228 956 l 306 1037 l 810 562 l 810 480 l 306 5 l 228 86 l 690 516 z "},"?":{"ha":926,"x_min":251,"x_max":821,"o":"m 427 210 q 445 228 427 210 q 521 246 463 246 q 615 210 579 246 q 651 116 651 174 q 615 22 651 58 q 521 -14 579 -14 q 427 22 463 -14 q 391 116 391 58 q 427 210 391 174 m 463 463 q 481 593 463 534 q 552 706 499 651 q 615 773 594 749 q 661 834 637 798 q 695 906 685 870 q 705 987 705 943 q 652 1131 705 1082 q 483 1179 599 1179 q 251 1146 399 1179 l 251 1254 q 483 1288 394 1288 q 733 1208 646 1288 q 821 987 821 1128 q 808 884 821 932 q 767 791 795 836 q 712 713 740 747 q 639 634 684 679 q 597 572 611 605 q 581 519 582 539 q 579 463 579 498 l 463 463 z "},"@":{"ha":926,"x_min":116,"x_max":926,"o":"m 810 810 l 662 810 q 610 808 628 810 q 563 795 591 807 q 514 761 535 784 q 463 621 463 708 q 504 493 463 544 q 615 441 544 441 q 686 454 655 441 q 737 486 717 467 q 772 535 757 505 q 794 593 787 566 q 805 657 801 619 q 809 718 808 694 q 810 773 810 741 l 810 810 m 926 919 l 926 347 l 810 347 l 810 458 l 801 458 q 593 333 717 333 q 418 414 489 333 q 347 619 347 496 q 427 829 347 750 q 488 875 456 857 q 557 900 521 893 q 613 908 592 907 q 664 910 633 910 l 810 910 q 801 1030 810 995 q 676 1156 776 1129 q 567 1165 642 1165 q 421 1153 467 1165 q 243 972 280 1117 q 231 826 231 926 l 231 448 q 243 301 231 347 q 421 120 279 157 q 567 109 467 109 q 856 127 693 109 l 856 19 q 567 0 694 0 q 392 15 453 0 q 224 107 293 40 q 130 278 155 175 q 116 448 116 338 l 116 826 q 130 996 116 935 q 224 1166 155 1099 q 392 1258 293 1233 q 567 1273 453 1273 q 706 1260 656 1273 q 840 1186 787 1240 q 914 1053 894 1132 q 926 919 926 1005 z "},"A":{"ha":926,"x_min":93,"x_max":949,"o":"m 93 0 q 462 1273 174 758 l 580 1273 q 949 0 868 758 l 826 0 q 777 351 813 164 l 265 351 q 251 268 260 323 q 237 178 242 213 q 225 93 231 143 q 215 0 219 43 l 93 0 m 758 459 q 652 848 705 681 q 525 1157 599 1015 l 516 1157 q 390 848 443 1015 q 284 459 336 681 l 758 459 z "},"B":{"ha":926,"x_min":116,"x_max":904,"o":"m 406 694 q 543 703 507 694 q 664 782 618 722 q 709 930 709 842 q 663 1079 709 1018 q 543 1156 618 1139 q 406 1165 503 1165 l 231 1165 l 231 694 l 406 694 m 675 656 q 841 545 778 628 q 904 347 904 461 q 838 131 904 221 q 666 14 771 41 q 473 0 608 0 l 116 0 l 116 1273 l 406 1273 q 572 1261 523 1273 q 754 1147 684 1235 q 825 930 825 1058 q 784 771 825 839 q 675 666 744 703 l 675 656 m 231 586 l 231 109 l 473 109 q 637 119 596 109 q 746 199 704 137 q 788 347 788 260 q 747 497 788 435 q 637 575 705 559 q 473 586 592 586 l 231 586 z "},"C":{"ha":926,"x_min":101,"x_max":926,"o":"m 926 120 l 926 12 q 600 -14 744 -14 q 289 78 407 -14 q 129 329 171 171 q 101 637 101 439 q 129 944 101 834 q 286 1195 172 1103 q 590 1288 400 1288 q 899 1261 735 1288 l 899 1153 q 590 1179 729 1179 q 242 919 310 1179 q 217 637 217 820 q 242 354 217 453 q 600 94 312 94 q 926 120 738 94 z "},"D":{"ha":926,"x_min":116,"x_max":940,"o":"m 429 1273 q 853 1059 720 1273 q 922 874 904 977 q 940 637 940 771 q 922 399 940 502 q 853 214 904 296 q 429 0 720 0 l 116 0 l 116 1273 l 429 1273 m 807 410 q 816 456 807 410 q 825 637 825 503 q 807 864 825 770 q 746 1018 789 957 q 429 1165 643 1165 l 231 1165 l 231 109 l 429 109 q 746 255 643 109 q 807 410 789 316 z "},"E":{"ha":926,"x_min":231,"x_max":926,"o":"m 231 1273 l 926 1273 l 926 1165 l 347 1165 l 347 694 l 810 694 l 810 586 l 347 586 l 347 109 l 926 109 l 926 0 l 231 0 l 231 1273 z "},"F":{"ha":926,"x_min":231,"x_max":926,"o":"m 231 1273 l 926 1273 l 926 1165 l 347 1165 l 347 687 l 810 687 l 810 579 l 347 579 l 347 0 l 231 0 l 231 1273 z "},"G":{"ha":926,"x_min":101,"x_max":926,"o":"m 609 1288 q 881 1268 739 1288 l 881 1159 q 609 1179 732 1179 q 366 1110 458 1179 q 242 919 274 1041 q 217 637 217 820 q 242 354 217 453 q 358 163 274 232 q 581 94 442 94 q 810 116 687 94 l 810 586 l 579 586 l 579 694 l 926 694 l 926 31 q 581 -14 737 -14 q 284 79 400 -14 q 129 329 169 172 q 101 637 101 439 q 129 944 101 834 q 293 1194 169 1101 q 609 1288 416 1288 z "},"H":{"ha":926,"x_min":116,"x_max":926,"o":"m 116 1273 l 231 1273 l 231 687 l 810 687 l 810 1273 l 926 1273 l 926 0 l 810 0 l 810 579 l 231 579 l 231 0 l 116 0 l 116 1273 z "},"I":{"ha":926,"x_min":231,"x_max":810,"o":"m 810 1273 l 810 1165 l 579 1165 l 579 109 l 810 109 l 810 0 l 231 0 l 231 109 l 463 109 l 463 1165 l 231 1165 l 231 1273 l 810 1273 z "},"J":{"ha":926,"x_min":137,"x_max":926,"o":"m 810 1165 l 231 1165 l 231 1273 l 926 1273 l 926 453 q 924 378 926 406 q 915 303 922 350 q 888 213 908 256 q 837 130 869 170 q 701 27 787 65 q 511 -11 616 -11 q 303 29 399 -11 q 137 132 208 70 l 203 218 q 511 98 344 98 q 648 124 587 98 q 745 196 709 150 q 791 283 776 234 q 808 363 806 332 q 810 453 810 395 l 810 1165 z "},"K":{"ha":926,"x_min":116,"x_max":960,"o":"m 231 0 l 116 0 l 116 1273 l 231 1273 l 231 650 l 751 1273 l 876 1273 l 435 735 l 960 0 l 818 0 l 358 652 l 231 505 l 231 0 z "},"L":{"ha":926,"x_min":231,"x_max":926,"o":"m 231 0 l 231 1273 l 347 1273 l 347 109 l 926 109 l 926 0 l 231 0 z "},"M":{"ha":926,"x_min":116,"x_max":926,"o":"m 231 0 l 116 0 l 116 1273 l 231 1273 l 516 705 l 526 705 l 810 1273 l 926 1273 l 926 0 l 810 0 l 810 1040 l 801 1040 l 571 579 l 471 579 l 241 1040 l 231 1040 l 231 0 z "},"N":{"ha":926,"x_min":116,"x_max":926,"o":"m 231 0 l 116 0 l 116 1273 l 231 1273 l 801 226 l 810 226 l 810 1273 l 926 1273 l 926 0 l 810 0 l 241 1047 l 231 1047 l 231 0 z "},"O":{"ha":926,"x_min":101,"x_max":940,"o":"m 240 928 q 217 637 217 829 q 240 345 217 444 q 337 165 267 235 q 521 94 407 94 q 705 165 635 94 q 802 345 775 235 q 825 637 825 444 q 802 928 825 829 q 705 1109 775 1038 q 521 1179 635 1179 q 337 1109 407 1179 q 240 928 267 1038 m 127 321 q 101 637 101 421 q 127 952 101 852 q 263 1193 163 1099 q 521 1288 363 1288 q 779 1193 678 1288 q 915 952 879 1099 q 940 637 940 852 q 915 321 940 421 q 779 80 879 175 q 521 -14 678 -14 q 263 80 363 -14 q 127 321 163 175 z "},"P":{"ha":926,"x_min":231,"x_max":940,"o":"m 482 1273 q 555 1271 526 1273 q 632 1262 583 1270 q 724 1233 680 1254 q 806 1178 768 1212 q 940 872 940 1059 q 806 565 940 684 q 724 510 768 532 q 632 481 680 489 q 555 472 583 474 q 482 470 526 470 l 347 470 l 347 0 l 231 0 l 231 1273 l 482 1273 m 798 742 q 812 772 798 742 q 825 872 825 801 q 798 1001 825 942 q 728 1099 772 1061 q 670 1137 701 1122 q 602 1157 638 1151 q 543 1163 566 1162 q 482 1165 521 1165 l 347 1165 l 347 579 l 482 579 q 543 580 521 579 q 602 587 566 581 q 670 607 638 592 q 728 645 701 621 q 798 742 772 683 z "},"Q":{"ha":926,"x_min":101,"x_max":940,"o":"m 101 637 q 127 952 101 848 q 263 1193 163 1099 q 521 1288 363 1288 q 778 1194 677 1288 q 915 952 878 1100 q 940 637 940 852 q 915 321 940 425 q 805 106 884 195 q 603 -7 725 16 q 788 -137 651 -137 q 926 -129 841 -137 l 926 -238 q 781 -246 836 -246 q 590 -181 666 -246 q 484 -13 514 -116 q 252 91 343 -1 q 127 321 162 184 q 101 637 101 421 m 217 637 q 240 345 217 439 q 320 183 263 250 q 467 99 377 116 q 463 231 463 141 l 463 347 l 579 347 l 579 231 q 582 100 579 142 q 724 185 669 118 q 802 345 779 251 q 825 637 825 436 q 802 928 825 834 q 705 1109 775 1038 q 521 1179 635 1179 q 335 1109 406 1179 q 240 928 265 1038 q 217 637 217 829 z "},"R":{"ha":926,"x_min":231,"x_max":963,"o":"m 798 742 q 812 772 798 742 q 825 872 825 801 q 798 1001 825 942 q 728 1099 772 1061 q 670 1137 701 1122 q 602 1157 638 1151 q 543 1163 566 1162 q 482 1165 521 1165 l 347 1165 l 347 579 l 482 579 q 564 581 533 579 q 644 599 596 583 q 728 645 693 615 q 798 742 772 683 m 482 1273 q 555 1271 526 1273 q 632 1262 583 1270 q 724 1233 680 1254 q 806 1178 768 1212 q 940 872 940 1059 q 806 565 940 684 q 735 517 774 537 l 963 0 l 840 0 l 626 480 q 482 470 571 470 l 347 470 l 347 0 l 231 0 l 231 1273 l 482 1273 z "},"S":{"ha":926,"x_min":204,"x_max":953,"o":"m 561 -14 q 226 14 412 -14 l 226 126 q 561 94 427 94 q 763 163 688 94 q 837 348 837 231 q 807 468 837 414 q 723 554 777 523 q 571 596 676 581 q 420 628 467 611 q 263 746 322 664 q 204 945 204 827 q 304 1190 204 1093 q 561 1288 403 1288 q 895 1265 683 1288 l 895 1156 q 561 1179 675 1179 q 386 1113 451 1179 q 320 945 320 1046 q 351 821 320 873 q 436 741 382 768 q 594 703 477 719 q 769 656 711 686 q 903 530 853 611 q 953 348 953 448 q 845 86 953 186 q 561 -14 736 -14 z "},"T":{"ha":926,"x_min":116,"x_max":926,"o":"m 926 1273 l 926 1165 l 579 1165 l 579 0 l 463 0 l 463 1165 l 116 1165 l 116 1273 l 926 1273 z "},"U":{"ha":926,"x_min":116,"x_max":926,"o":"m 116 1273 l 231 1273 l 231 463 q 242 298 231 342 q 340 150 265 206 q 521 94 414 94 q 702 150 628 94 q 799 298 777 206 q 810 463 810 342 l 810 1273 l 926 1273 l 926 463 q 911 274 926 335 q 774 66 881 146 q 521 -14 668 -14 q 267 66 373 -14 q 130 274 160 146 q 116 463 116 335 l 116 1273 z "},"V":{"ha":926,"x_min":95,"x_max":947,"o":"m 525 142 q 702 668 630 391 q 829 1273 773 945 l 947 1273 q 795 591 882 902 q 573 0 708 279 l 468 0 q 247 591 334 279 q 95 1273 160 902 l 212 1273 q 516 142 332 578 l 525 142 z "},"W":{"ha":926,"x_min":108,"x_max":934,"o":"m 465 810 l 577 810 l 734 190 l 743 190 q 818 1273 818 616 l 934 1273 q 808 0 934 637 l 696 0 l 525 666 l 516 666 l 345 0 l 233 0 q 108 1273 108 637 l 223 1273 q 298 190 223 623 l 307 190 l 465 810 z "},"X":{"ha":926,"x_min":80,"x_max":961,"o":"m 516 745 l 525 745 l 799 1273 l 932 1273 l 597 652 l 597 643 l 961 0 l 827 0 l 525 550 l 516 550 l 214 0 l 80 0 l 445 643 l 445 652 l 109 1273 l 242 1273 l 516 745 z "},"Y":{"ha":926,"x_min":90,"x_max":951,"o":"m 530 670 q 828 1273 689 904 l 951 1273 q 781 883 869 1059 q 579 557 693 708 l 579 0 l 463 0 l 463 557 q 261 883 349 708 q 90 1273 173 1059 l 213 1273 q 512 670 352 906 l 530 670 z "},"Z":{"ha":926,"x_min":116,"x_max":926,"o":"m 134 1165 l 134 1273 l 908 1273 l 908 1192 l 265 118 l 265 109 l 926 109 l 926 0 l 116 0 l 116 83 l 759 1156 l 759 1165 l 134 1165 z "},"[":{"ha":926,"x_min":347,"x_max":810,"o":"m 347 1389 l 810 1389 l 810 1280 l 463 1280 l 463 -7 l 810 -7 l 810 -116 q 347 -116 810 -116 q 347 1389 347 -116 z "},"\\":{"ha":926,"x_min":113,"x_max":929,"o":"m 826 -140 l 113 1365 l 215 1413 l 929 -92 l 826 -140 z "},"]":{"ha":926,"x_min":231,"x_max":694,"o":"m 694 1389 q 694 -116 694 1389 q 231 -116 694 -116 l 231 -7 l 579 -7 l 579 1280 l 231 1280 l 231 1389 l 694 1389 z "},"^":{"ha":926,"x_min":182,"x_max":860,"o":"m 182 810 q 448 1273 258 1088 l 593 1273 q 860 810 784 1088 l 738 810 q 543 1175 673 1031 l 498 1175 q 304 810 369 1031 l 182 810 z "},"_":{"ha":926,"x_min":116,"x_max":926,"o":"m 116 0 l 926 0 l 926 -109 l 116 -109 l 116 0 z "},"`":{"ha":926,"x_min":325,"x_max":600,"o":"m 600 926 l 475 926 l 325 1273 l 449 1273 l 600 926 z "},"a":{"ha":926,"x_min":203,"x_max":810,"o":"m 694 463 l 517 463 q 465 461 484 463 q 419 448 447 459 q 369 414 391 437 q 318 274 318 361 q 362 146 318 197 q 481 94 406 94 q 558 107 524 94 q 614 138 592 119 q 652 188 637 157 q 676 245 668 219 q 688 309 684 272 q 694 370 693 346 q 694 426 694 393 l 694 463 m 550 940 q 686 916 628 940 q 783 826 745 892 q 810 677 810 778 l 810 0 l 694 0 l 694 111 l 685 111 q 459 -14 594 -14 q 277 67 351 -14 q 203 272 203 148 q 282 482 203 402 q 344 528 311 510 q 412 553 376 546 q 468 561 448 560 q 519 562 488 562 l 694 562 l 694 673 q 678 779 694 751 q 634 819 663 806 q 550 832 606 832 q 289 813 441 832 l 289 923 q 550 940 439 940 z "},"b":{"ha":926,"x_min":231,"x_max":839,"o":"m 553 940 q 713 884 643 940 q 814 726 782 827 q 831 641 826 688 q 838 561 837 594 q 839 463 839 528 q 838 365 839 398 q 831 285 837 332 q 814 200 826 238 q 713 42 782 99 q 553 -14 643 -14 q 356 113 438 -14 l 347 113 l 347 0 l 231 0 l 231 1273 l 347 1273 l 347 813 l 356 813 q 553 940 438 940 m 638 793 q 617 812 638 793 q 535 832 596 832 q 433 793 475 832 q 371 694 391 753 q 347 463 347 623 q 371 231 347 303 q 433 133 391 173 q 535 94 475 94 q 638 133 596 94 q 700 231 680 173 q 723 463 723 303 q 700 694 723 623 q 638 793 680 753 z "},"c":{"ha":926,"x_min":203,"x_max":810,"o":"m 209 297 q 206 329 209 297 q 203 463 203 362 q 209 629 203 564 q 241 751 216 694 q 548 940 324 940 q 792 925 638 940 l 792 817 q 548 832 637 832 q 425 802 470 832 q 350 713 379 773 q 328 637 335 683 q 319 557 320 590 q 318 463 318 524 q 319 368 318 401 q 328 289 320 335 q 350 212 335 243 q 425 123 379 153 q 548 94 470 94 q 810 118 654 94 l 810 9 q 548 -14 655 -14 q 241 175 324 -14 q 209 297 216 231 z "},"d":{"ha":926,"x_min":203,"x_max":810,"o":"m 488 940 q 601 909 549 940 q 685 813 654 878 l 694 813 l 694 1273 l 810 1273 l 810 0 l 694 0 l 694 113 l 685 113 q 601 17 654 48 q 488 -14 549 -14 q 329 42 399 -14 q 228 200 260 99 q 210 285 216 238 q 203 365 204 332 q 203 463 203 398 q 203 561 203 528 q 210 641 204 594 q 228 726 216 688 q 329 884 260 827 q 488 940 399 940 m 609 793 q 588 812 609 793 q 506 832 567 832 q 404 793 446 832 q 342 694 362 753 q 318 463 318 623 q 342 231 318 303 q 404 133 362 173 q 506 94 446 94 q 609 133 567 94 q 671 231 651 173 q 694 463 694 303 q 671 694 694 623 q 609 793 651 753 z "},"e":{"ha":926,"x_min":203,"x_max":839,"o":"m 632 803 q 609 817 632 803 q 521 832 586 832 q 410 803 456 832 q 345 722 364 774 q 320 571 326 679 l 722 571 q 697 722 716 679 q 632 803 677 774 m 340 890 q 378 915 340 890 q 521 940 415 940 q 701 890 627 940 q 806 759 776 839 q 829 667 821 720 q 838 575 836 615 q 839 463 839 534 l 318 463 q 319 368 318 401 q 327 289 320 335 q 347 212 334 243 q 539 94 400 94 q 810 113 644 94 l 810 5 q 539 -14 646 -14 q 350 38 427 -14 q 239 175 273 90 q 209 297 215 231 q 203 463 203 362 q 204 575 203 534 q 213 667 205 615 q 236 759 221 720 q 340 890 266 839 z "},"f":{"ha":926,"x_min":116,"x_max":810,"o":"m 463 0 l 347 0 l 347 702 l 116 702 l 116 810 l 347 810 l 347 1021 q 349 1076 347 1055 q 361 1135 350 1098 q 394 1202 373 1173 q 477 1265 424 1242 q 597 1288 530 1288 q 810 1273 682 1288 l 810 1165 q 597 1179 682 1179 q 488 1138 519 1179 q 463 1021 463 1105 l 463 810 l 810 810 l 810 702 l 463 702 l 463 0 z "},"g":{"ha":926,"x_min":203,"x_max":810,"o":"m 395 790 q 318 521 318 719 q 395 251 318 323 q 506 210 439 210 q 618 251 573 210 q 694 521 694 323 q 618 790 694 719 q 506 832 573 832 q 395 790 439 832 m 694 229 l 685 229 q 488 101 603 101 q 307 175 382 101 q 203 521 203 278 q 307 867 203 764 q 488 940 382 940 q 685 813 603 940 l 694 813 l 694 926 l 810 926 l 810 145 q 755 -102 810 -10 q 485 -246 669 -246 q 271 -232 380 -246 l 271 -124 q 485 -137 393 -137 q 655 -49 600 -137 q 694 145 694 15 l 694 229 z "},"h":{"ha":926,"x_min":231,"x_max":810,"o":"m 539 940 q 658 914 604 940 q 748 844 713 888 q 784 786 770 816 q 802 720 798 756 q 809 660 807 684 q 810 594 810 637 l 810 0 l 694 0 l 694 594 q 693 668 694 644 q 682 723 692 693 q 654 776 673 753 q 521 832 605 832 q 388 776 437 832 q 359 723 369 753 q 349 668 350 693 q 347 594 347 644 l 347 0 l 231 0 l 231 1273 l 347 1273 l 347 825 l 356 825 q 439 909 390 877 q 539 940 488 940 z "},"i":{"ha":926,"x_min":231,"x_max":593,"o":"m 419 1260 q 433 1274 419 1260 q 492 1288 447 1288 q 565 1260 537 1288 q 593 1186 593 1232 q 565 1113 593 1141 q 492 1085 537 1085 q 419 1113 447 1085 q 391 1186 391 1141 q 419 1260 391 1232 m 463 0 l 463 817 l 231 817 l 231 926 l 579 926 l 579 0 l 463 0 z "},"j":{"ha":926,"x_min":156,"x_max":709,"o":"m 579 145 l 579 817 l 347 817 l 347 926 l 694 926 l 694 145 q 639 -102 694 -10 q 369 -246 553 -246 q 156 -232 264 -246 l 156 -124 q 369 -137 278 -137 q 539 -49 484 -137 q 579 145 579 15 m 534 1260 q 548 1274 534 1260 q 608 1288 562 1288 q 681 1260 653 1288 q 709 1186 709 1232 q 681 1113 709 1141 q 608 1085 653 1085 q 534 1113 562 1085 q 506 1186 506 1141 q 534 1260 506 1232 z "},"k":{"ha":926,"x_min":231,"x_max":906,"o":"m 347 0 l 231 0 l 231 1273 l 347 1273 l 347 544 l 718 926 l 864 926 l 535 583 l 906 0 l 765 0 l 460 506 l 347 393 l 347 0 z "},"l":{"ha":926,"x_min":463,"x_max":810,"o":"m 810 -10 q 685 -14 724 -14 q 529 47 589 -14 q 483 121 498 79 q 465 188 467 163 q 463 252 463 212 l 463 1273 l 579 1273 l 579 252 q 580 209 579 224 q 586 172 581 194 q 604 134 592 150 q 694 94 634 94 q 810 99 756 94 l 810 -10 z "},"m":{"ha":926,"x_min":116,"x_max":926,"o":"m 374 940 q 472 913 429 940 q 540 840 515 885 q 722 940 617 940 q 879 863 821 940 q 911 797 901 833 q 924 735 922 760 q 926 660 926 709 l 926 0 l 810 0 l 810 660 q 809 717 810 699 q 802 758 808 735 q 783 795 796 780 q 694 832 751 832 q 606 795 638 832 q 587 758 593 780 q 580 717 581 735 q 579 660 579 699 l 579 0 l 463 0 l 463 660 q 462 717 463 699 q 455 758 461 735 q 436 795 448 780 q 347 832 403 832 q 259 795 291 832 q 240 758 246 780 q 232 717 233 735 q 231 660 231 699 l 231 0 l 116 0 l 116 926 l 231 926 l 231 858 l 241 858 q 374 940 297 940 z "},"n":{"ha":926,"x_min":231,"x_max":810,"o":"m 539 940 q 658 914 604 940 q 748 844 713 888 q 784 786 770 816 q 802 720 798 756 q 809 660 807 684 q 810 594 810 637 l 810 0 l 694 0 l 694 594 q 693 668 694 644 q 682 723 692 693 q 654 776 673 753 q 521 832 605 832 q 388 776 437 832 q 359 723 369 753 q 349 668 350 693 q 347 594 347 644 l 347 0 l 231 0 l 231 926 l 347 926 l 347 825 l 356 825 q 439 909 390 877 q 539 940 488 940 z "},"o":{"ha":926,"x_min":203,"x_max":839,"o":"m 370 902 q 404 921 370 902 q 521 940 437 940 q 671 902 605 940 q 780 796 738 864 q 827 659 816 738 q 839 463 839 580 q 827 267 839 346 q 780 130 816 188 q 671 24 738 62 q 521 -14 605 -14 q 370 24 437 -14 q 261 130 304 62 q 214 267 226 188 q 203 463 203 346 q 214 659 203 580 q 261 796 226 738 q 370 902 304 864 m 680 743 q 521 832 628 832 q 362 743 414 832 q 332 660 342 710 q 320 570 322 609 q 318 463 318 530 q 320 356 318 396 q 332 266 322 316 q 362 183 342 216 q 521 94 414 94 q 680 183 628 94 q 710 266 700 216 q 722 356 720 316 q 723 463 723 396 q 722 570 723 530 q 710 660 720 609 q 680 743 700 710 z "},"p":{"ha":926,"x_min":231,"x_max":839,"o":"m 553 -14 q 356 113 438 -14 l 347 113 l 347 -347 l 231 -347 l 231 926 l 347 926 l 347 813 l 356 813 q 553 940 438 940 q 713 884 643 940 q 814 726 782 827 q 831 641 826 688 q 838 561 837 594 q 839 463 839 528 q 838 365 839 398 q 831 285 837 332 q 814 200 826 238 q 713 42 782 99 q 553 -14 643 -14 m 433 133 q 454 114 433 133 q 535 94 475 94 q 638 133 596 94 q 700 231 680 173 q 723 463 723 303 q 700 694 723 623 q 638 793 680 753 q 535 832 596 832 q 433 793 475 832 q 371 694 391 753 q 347 463 347 623 q 371 231 347 303 q 433 133 391 173 z "},"q":{"ha":926,"x_min":203,"x_max":810,"o":"m 488 -14 q 329 42 399 -14 q 228 200 260 99 q 210 285 216 238 q 203 365 204 332 q 203 463 203 398 q 203 561 203 528 q 210 641 204 594 q 228 726 216 688 q 329 884 260 827 q 488 940 399 940 q 685 813 604 940 l 694 813 l 694 926 l 810 926 l 810 -347 l 694 -347 l 694 113 l 685 113 q 488 -14 604 -14 m 404 133 q 425 114 404 133 q 506 94 446 94 q 609 133 567 94 q 671 231 651 173 q 694 463 694 303 q 671 694 694 623 q 609 793 651 753 q 506 832 567 832 q 404 793 446 832 q 342 694 362 753 q 318 463 318 623 q 342 231 318 303 q 404 133 362 173 z "},"r":{"ha":926,"x_min":231,"x_max":810,"o":"m 647 832 q 453 766 524 832 q 392 690 416 732 q 360 597 369 648 q 349 515 351 546 q 347 430 347 483 l 347 0 l 231 0 l 231 926 l 347 926 l 347 782 l 356 782 q 481 899 412 858 q 647 940 549 940 q 810 929 714 940 l 810 820 q 647 832 714 832 z "},"s":{"ha":926,"x_min":212,"x_max":839,"o":"m 513 -14 q 231 5 409 -14 l 231 114 q 513 94 401 94 q 600 106 562 94 q 661 138 637 118 q 698 183 684 157 q 718 231 713 208 q 723 279 723 255 q 699 372 723 332 q 633 432 674 411 q 501 462 593 453 q 363 488 409 470 q 256 569 300 513 q 212 702 212 625 q 291 871 212 802 q 517 940 370 940 q 801 921 618 940 l 801 813 q 517 832 616 832 q 372 793 417 832 q 327 702 327 755 q 350 632 327 661 q 407 590 373 603 q 538 566 441 576 q 689 528 635 556 q 798 428 756 494 q 839 279 839 363 q 818 170 839 222 q 759 77 798 118 q 656 10 720 35 q 513 -14 592 -14 z "},"t":{"ha":926,"x_min":116,"x_max":810,"o":"m 810 -1 q 637 -14 713 -14 q 505 12 564 -14 q 409 83 446 38 q 365 164 380 118 q 349 241 351 210 q 347 326 347 271 l 347 812 l 116 812 l 116 926 l 347 926 l 347 1157 l 463 1157 l 463 926 l 810 926 l 810 812 l 463 812 l 463 335 q 464 260 463 285 q 475 204 466 236 q 502 150 484 173 q 646 94 549 94 q 810 108 710 94 l 810 -1 z "},"u":{"ha":926,"x_min":231,"x_max":810,"o":"m 503 -14 q 383 12 438 -14 q 294 82 329 38 q 258 140 271 110 q 239 206 244 170 q 233 266 234 242 q 231 332 231 289 l 231 926 l 347 926 l 347 332 q 349 258 347 282 q 359 203 350 233 q 388 150 369 173 q 521 94 437 94 q 654 150 605 94 q 682 203 673 173 q 693 258 692 233 q 694 332 694 282 l 694 926 l 810 926 l 810 0 l 694 0 l 694 101 l 685 101 q 603 17 652 49 q 503 -14 553 -14 z "},"v":{"ha":926,"x_min":184,"x_max":857,"o":"m 525 152 q 739 926 648 452 l 857 926 q 739 430 806 656 q 573 0 673 203 l 468 0 q 302 430 369 203 q 184 926 236 656 l 303 926 q 516 152 393 453 l 525 152 z "},"w":{"ha":926,"x_min":99,"x_max":943,"o":"m 465 694 l 577 694 l 725 127 l 734 127 q 827 926 827 485 l 943 926 q 808 0 943 461 l 669 0 l 525 531 l 516 531 l 373 0 l 233 0 q 99 926 99 461 l 214 926 q 307 127 214 485 l 316 127 l 465 694 z "},"x":{"ha":926,"x_min":144,"x_max":898,"o":"m 516 582 l 525 582 l 727 926 l 878 926 l 588 498 l 588 489 l 898 0 l 746 0 l 525 405 l 516 405 l 296 0 l 144 0 l 454 489 l 454 498 l 164 926 l 315 926 l 516 582 z "},"y":{"ha":926,"x_min":184,"x_max":858,"o":"m 547 217 q 740 926 633 481 l 858 926 q 837 840 854 909 q 816 753 820 772 q 796 672 811 733 q 774 586 780 611 q 752 506 767 562 q 728 419 738 450 q 703 335 719 387 q 675 241 688 282 q 645 150 662 201 q 611 50 628 99 q 577 -43 590 -12 q 543 -114 565 -74 q 494 -175 520 -154 q 231 -246 409 -246 l 231 -137 q 409 -100 361 -137 q 447 -53 430 -85 q 475 5 465 -22 q 515 116 486 33 l 467 116 q 304 490 370 293 q 184 926 239 687 l 303 926 q 538 217 397 494 l 547 217 z "},"z":{"ha":926,"x_min":231,"x_max":810,"o":"m 250 817 l 250 926 l 792 926 l 792 845 l 363 118 l 363 109 l 810 109 l 810 0 l 231 0 l 231 83 l 661 808 l 661 817 l 250 817 z "},"{":{"ha":926,"x_min":231,"x_max":810,"o":"m 435 631 q 546 548 514 601 q 579 394 579 495 l 579 165 q 637 20 579 62 q 810 -22 694 -22 l 810 -130 q 556 -58 648 -130 q 463 165 463 14 l 463 394 q 405 539 463 497 q 231 581 347 581 l 231 690 q 405 732 346 690 q 463 877 463 774 l 463 1106 q 556 1329 463 1257 q 810 1402 648 1402 l 810 1293 q 637 1251 695 1293 q 579 1106 579 1209 l 579 877 q 546 723 579 777 q 435 640 514 670 l 435 631 z "},"|":{"ha":926,"x_min":463,"x_max":579,"o":"m 579 1389 l 579 -231 l 463 -231 l 463 1389 l 579 1389 z "},"}":{"ha":926,"x_min":231,"x_max":810,"o":"m 607 631 l 607 640 q 496 723 528 670 q 463 877 463 777 l 463 1106 q 405 1251 463 1209 q 231 1293 346 1293 l 231 1402 q 486 1329 393 1402 q 579 1106 579 1257 l 579 877 q 637 732 579 774 q 810 690 695 690 l 810 581 q 637 539 694 581 q 579 394 579 497 l 579 165 q 486 -58 579 14 q 231 -130 393 -130 l 231 -22 q 405 20 347 -22 q 463 165 463 62 l 463 394 q 496 548 463 495 q 607 631 528 601 z "},"~":{"ha":926,"x_min":116,"x_max":926,"o":"m 231 347 l 116 347 q 121 460 116 411 q 140 556 126 509 q 178 632 154 602 q 243 680 203 662 q 339 698 284 698 q 443 673 396 698 q 520 611 489 647 q 578 539 551 575 q 637 477 605 503 q 703 452 668 452 q 746 458 728 452 q 776 481 764 465 q 795 515 788 497 q 805 563 802 532 q 809 622 808 595 q 810 694 810 649 l 926 694 q 921 581 926 630 q 902 486 916 533 q 864 410 888 439 q 798 362 839 380 q 703 344 758 344 q 599 369 646 344 q 522 430 552 394 q 464 503 491 467 q 405 564 437 539 q 339 590 373 590 q 296 583 314 590 q 266 561 278 577 q 247 527 254 544 q 236 478 240 510 q 232 420 233 447 q 231 347 231 392 z "}," ":{"ha":926,"x_min":0,"x_max":0,"o":""},"¡":{"ha":926,"x_min":391,"x_max":651,"o":"m 427 1020 q 445 1038 427 1020 q 521 1056 463 1056 q 615 1020 579 1056 q 651 926 651 984 q 615 832 651 868 q 521 796 579 796 q 427 832 463 796 q 391 926 391 868 q 427 1020 391 984 m 579 579 l 588 -231 l 454 -231 l 463 579 l 579 579 z "},"¢":{"ha":926,"x_min":203,"x_max":810,"o":"m 203 463 q 209 624 203 560 q 239 745 216 689 q 325 867 268 817 q 463 932 382 918 l 463 1157 l 579 1157 l 579 940 q 792 921 684 938 l 792 812 q 535 832 660 832 q 347 703 404 832 q 327 629 334 674 q 319 553 320 585 q 318 463 318 522 q 319 368 318 401 q 328 289 320 335 q 350 212 335 243 q 539 94 406 94 q 810 118 659 94 l 810 8 q 579 -14 683 -11 l 579 -231 l 463 -231 l 463 -6 q 328 57 383 8 q 241 175 272 105 q 209 297 216 231 q 203 463 203 362 z "},"£":{"ha":926,"x_min":116,"x_max":810,"o":"m 231 109 l 231 586 l 116 586 l 116 694 l 231 694 l 231 810 q 238 977 231 911 q 268 1099 244 1042 q 376 1235 302 1183 q 559 1288 450 1288 q 783 1274 645 1288 l 783 1166 q 559 1179 643 1179 q 376 1061 428 1179 q 356 984 363 1030 q 348 905 349 938 q 347 810 347 872 l 347 694 l 694 694 l 694 586 l 347 586 l 347 109 l 810 109 l 810 0 l 116 0 l 116 109 l 231 109 z "},"¤":{"ha":926,"x_min":141,"x_max":901,"o":"m 657 661 q 631 687 657 661 q 521 713 605 713 q 385 661 437 713 q 333 521 333 609 q 385 381 333 432 q 521 329 437 329 q 657 381 605 329 q 709 521 709 432 q 657 661 709 609 m 141 821 l 221 901 l 348 772 q 521 821 424 821 q 694 772 618 821 l 821 901 l 901 821 l 773 694 q 825 521 825 618 q 773 347 825 423 l 901 221 l 821 141 l 694 269 q 521 221 618 221 q 348 269 424 221 l 221 141 l 141 221 l 269 347 q 217 521 217 423 q 269 694 217 618 l 141 821 z "},"¥":{"ha":926,"x_min":102,"x_max":939,"o":"m 102 1273 l 215 1273 q 507 669 310 888 l 534 669 q 826 1273 732 888 l 939 1273 q 684 694 864 936 l 810 694 l 810 586 l 594 586 l 579 570 l 579 456 l 810 456 l 810 347 l 579 347 l 579 0 l 463 0 l 463 347 l 231 347 l 231 456 l 463 456 l 463 570 l 448 586 l 231 586 l 231 694 l 358 694 q 102 1273 178 936 z "},"¦":{"ha":926,"x_min":463,"x_max":579,"o":"m 579 347 l 579 -116 l 463 -116 l 463 347 l 579 347 m 579 1389 l 579 926 l 463 926 l 463 1389 l 579 1389 z "},"§":{"ha":926,"x_min":194,"x_max":847,"o":"m 528 333 q 628 352 586 333 q 692 401 671 371 q 722 462 713 431 q 732 523 732 492 q 671 660 732 615 q 511 705 611 705 q 412 687 454 705 q 349 638 370 668 q 319 578 328 608 q 310 516 310 548 q 342 410 310 453 q 422 350 374 367 q 528 333 469 333 m 346 261 q 236 365 277 298 q 194 516 194 432 q 233 656 194 590 q 345 762 272 722 q 246 862 282 802 q 211 996 211 922 q 231 1103 211 1052 q 291 1195 252 1154 q 394 1261 330 1237 q 537 1286 458 1286 q 774 1260 632 1286 l 774 1149 q 537 1177 634 1177 q 450 1165 488 1177 q 389 1134 412 1153 q 352 1090 366 1115 q 332 1042 337 1065 q 326 996 326 1019 q 402 846 326 903 q 486 817 435 823 q 595 805 537 811 q 697 777 654 799 q 806 675 764 741 q 847 523 847 609 q 808 382 847 448 q 696 277 769 316 q 794 178 758 239 q 831 42 831 118 q 810 -64 831 -14 q 751 -156 789 -115 q 648 -222 712 -197 q 505 -246 584 -246 q 231 -211 400 -246 l 231 -99 q 505 -137 395 -137 q 591 -125 553 -137 q 652 -94 629 -113 q 690 -51 675 -76 q 710 -4 704 -26 q 715 42 715 19 q 690 139 715 98 q 625 202 666 181 q 491 228 587 221 q 346 261 396 235 z "},"¨":{"ha":926,"x_min":217,"x_max":825,"o":"m 650 1202 q 664 1216 650 1202 q 723 1230 678 1230 q 797 1202 769 1230 q 825 1128 825 1174 q 797 1055 825 1083 q 723 1027 769 1027 q 650 1055 678 1027 q 622 1128 622 1083 q 650 1202 622 1174 m 245 1202 q 259 1216 245 1202 q 318 1230 273 1230 q 392 1202 363 1230 q 420 1128 420 1174 q 392 1055 420 1083 q 318 1027 363 1027 q 245 1055 273 1027 q 217 1128 217 1083 q 245 1202 217 1174 z "},"©":{"ha":926,"x_min":101,"x_max":940,"o":"m 676 353 q 538 338 600 338 q 371 394 423 338 q 334 464 346 420 q 320 541 322 507 q 318 640 318 574 q 339 825 318 771 q 539 935 382 935 q 676 918 600 935 l 676 809 q 537 826 602 826 q 478 818 498 826 q 448 788 458 810 q 434 640 434 757 q 438 519 434 557 q 458 466 442 482 q 479 452 466 457 q 504 447 493 448 q 538 447 515 447 q 676 461 602 447 l 676 353 m 521 1097 q 329 1039 406 1097 q 217 886 252 982 q 181 637 181 787 q 217 387 181 486 q 329 233 252 290 q 521 176 405 176 q 713 234 636 176 q 825 387 789 291 q 861 637 861 486 q 825 886 861 787 q 713 1040 789 983 q 521 1097 637 1097 m 282 1099 q 331 1135 282 1099 q 521 1171 380 1171 q 760 1099 662 1171 q 901 910 858 1027 q 940 637 940 801 q 901 363 940 472 q 760 174 858 246 q 521 102 662 102 q 282 174 380 102 q 141 363 184 246 q 101 637 101 472 q 141 910 101 801 q 282 1099 184 1027 z "},"ª":{"ha":926,"x_min":221,"x_max":694,"o":"m 579 1000 l 579 1042 l 474 1042 q 405 1034 426 1042 q 355 990 374 1022 q 336 915 336 958 q 365 826 336 863 q 442 788 394 788 q 512 808 482 788 q 558 859 542 827 q 579 1000 579 901 m 570 755 q 503 699 536 717 q 422 680 469 680 q 279 750 337 680 q 221 915 221 819 q 260 1051 221 991 q 363 1134 300 1110 q 474 1150 406 1150 l 579 1150 q 573 1231 579 1211 q 537 1280 563 1265 q 457 1295 510 1295 q 254 1283 426 1295 l 254 1393 q 457 1403 415 1403 q 684 1259 642 1403 q 694 1166 694 1224 l 694 694 l 579 694 l 579 755 l 570 755 z "},"«":{"ha":926,"x_min":116,"x_max":847,"o":"m 229 525 l 229 516 l 500 164 l 406 102 l 116 490 l 116 552 l 406 939 l 500 878 l 229 525 m 576 525 l 576 516 l 847 164 l 753 102 l 463 490 l 463 552 l 753 939 l 847 878 l 576 525 z "},"¬":{"ha":926,"x_min":116,"x_max":926,"o":"m 926 691 l 926 347 l 810 347 l 810 582 l 116 582 l 116 691 l 926 691 z "},"­":{"ha":926,"x_min":116,"x_max":926,"o":"m 116 575 l 926 575 l 926 467 l 116 467 l 116 575 z "},"®":{"ha":926,"x_min":101,"x_max":940,"o":"m 582 702 q 588 710 582 702 q 593 752 593 717 q 582 802 593 788 q 538 817 571 817 l 463 817 l 463 687 l 538 687 q 582 702 571 687 m 709 752 q 644 607 709 654 l 732 347 l 609 347 l 541 579 l 463 579 l 463 347 l 347 347 l 347 926 l 538 926 q 664 880 618 926 q 709 752 709 834 m 521 1097 q 329 1039 406 1097 q 217 886 252 982 q 181 637 181 787 q 217 387 181 486 q 329 233 252 290 q 521 176 405 176 q 713 234 636 176 q 825 387 789 291 q 861 637 861 486 q 825 886 861 787 q 713 1040 789 983 q 521 1097 637 1097 m 282 1099 q 331 1135 282 1099 q 521 1171 380 1171 q 760 1099 662 1171 q 901 910 858 1027 q 940 637 940 801 q 901 363 940 472 q 760 174 858 246 q 521 102 662 102 q 282 174 380 102 q 141 363 184 246 q 101 637 101 472 q 141 910 101 801 q 282 1099 184 1027 z "},"¯":{"ha":926,"x_min":231,"x_max":810,"o":"m 231 1270 l 810 1270 l 810 1161 l 231 1161 l 231 1270 z "},"°":{"ha":926,"x_min":315,"x_max":727,"o":"m 373 1319 q 401 1348 373 1319 q 521 1378 430 1378 q 669 1319 611 1378 q 727 1172 727 1260 q 669 1025 727 1084 q 521 966 611 966 q 373 1025 430 966 q 315 1172 315 1084 q 373 1319 315 1260 m 600 1257 q 585 1272 600 1257 q 521 1288 570 1288 q 442 1257 472 1288 q 412 1172 412 1227 q 442 1086 412 1117 q 521 1056 472 1056 q 600 1086 570 1056 q 629 1172 629 1117 q 600 1257 629 1227 z "},"±":{"ha":926,"x_min":116,"x_max":926,"o":"m 579 807 l 926 807 l 926 698 l 579 698 l 579 463 l 463 463 l 463 698 l 116 698 l 116 807 l 463 807 l 463 1042 l 579 1042 l 579 807 m 116 344 l 926 344 l 926 235 l 116 235 l 116 344 z "},"²":{"ha":926,"x_min":226,"x_max":705,"o":"m 231 1379 q 451 1403 350 1403 q 639 1342 573 1403 q 705 1191 705 1281 q 688 1102 705 1143 q 639 1030 671 1061 q 578 980 608 1000 q 508 939 548 959 q 473 922 480 925 q 443 906 467 919 q 411 886 420 893 q 387 865 402 878 q 364 840 373 853 q 351 812 356 827 l 351 803 l 694 803 l 694 694 l 226 694 l 226 749 q 443 1032 226 929 q 496 1059 476 1047 q 540 1090 515 1071 q 577 1135 565 1109 q 590 1191 590 1160 q 585 1222 590 1207 q 568 1255 581 1237 q 525 1284 555 1273 q 451 1295 496 1295 q 231 1270 354 1295 l 231 1379 z "},"³":{"ha":926,"x_min":231,"x_max":705,"o":"m 609 1040 q 705 889 705 990 q 633 736 705 792 q 450 680 562 680 q 231 694 357 680 l 231 802 q 450 788 373 788 q 552 814 515 788 q 590 889 590 839 q 564 951 590 926 q 501 983 539 976 q 418 987 477 987 l 347 987 l 347 1096 l 418 1096 q 497 1101 470 1096 q 558 1133 534 1109 q 581 1195 581 1157 q 547 1270 581 1244 q 448 1295 513 1295 q 241 1279 388 1295 l 241 1388 q 448 1403 360 1403 q 629 1346 562 1403 q 697 1195 697 1289 q 609 1049 697 1099 l 609 1040 z "},"´":{"ha":926,"x_min":442,"x_max":717,"o":"m 442 926 l 592 1273 l 717 1273 l 567 926 l 442 926 z "},"µ":{"ha":926,"x_min":231,"x_max":810,"o":"m 611 17 q 589 1 611 17 q 521 -14 567 -14 q 430 17 475 -14 q 356 101 386 49 l 347 101 l 347 -347 l 231 -347 l 231 926 l 347 926 l 347 332 q 349 258 347 282 q 359 203 350 233 q 388 150 369 173 q 521 94 437 94 q 654 150 605 94 q 682 203 673 173 q 693 258 692 233 q 694 332 694 282 l 694 926 l 810 926 l 810 0 l 694 0 l 694 101 l 685 101 q 611 17 656 49 z "},"¶":{"ha":926,"x_min":217,"x_max":810,"o":"m 579 1165 l 579 0 l 463 0 l 463 592 q 285 709 354 620 q 217 926 217 798 q 288 1145 217 1055 q 469 1261 358 1235 q 636 1273 519 1273 l 810 1273 l 810 0 l 694 0 l 694 1165 l 579 1165 z "},"·":{"ha":926,"x_min":347,"x_max":579,"o":"m 347 694 l 579 694 l 579 477 l 347 477 l 347 694 z "},"¸":{"ha":926,"x_min":231,"x_max":579,"o":"m 579 -95 q 577 -154 579 -132 q 565 -211 576 -175 q 532 -276 553 -247 q 347 -362 468 -362 q 231 -346 304 -362 l 231 -235 q 347 -253 310 -253 q 438 -212 407 -253 q 455 -176 449 -197 q 462 -140 461 -155 q 463 -95 463 -125 l 463 0 l 579 0 l 579 -95 z "},"¹":{"ha":926,"x_min":231,"x_max":579,"o":"m 481 1389 l 579 1389 l 579 694 l 463 694 l 463 1246 l 454 1246 l 231 1127 l 231 1248 l 481 1389 z "},"º":{"ha":926,"x_min":213,"x_max":713,"o":"m 371 1388 q 391 1395 371 1388 q 463 1403 411 1403 q 555 1388 515 1403 q 621 1349 596 1372 q 665 1290 647 1326 q 693 1224 684 1253 q 707 1153 702 1194 q 712 1092 712 1112 q 713 1042 713 1072 q 712 991 713 1012 q 707 930 712 971 q 693 859 702 889 q 665 793 684 830 q 621 734 647 757 q 555 696 596 712 q 463 680 515 680 q 371 696 411 680 q 305 734 330 712 q 261 793 279 757 q 233 859 242 830 q 219 930 224 889 q 214 991 214 971 q 213 1042 213 1012 q 214 1092 213 1072 q 219 1153 214 1112 q 233 1224 224 1194 q 261 1290 242 1253 q 305 1349 279 1326 q 371 1388 330 1372 m 330 1101 q 330 1088 330 1101 q 329 1042 329 1076 q 330 982 329 1007 q 336 925 332 958 q 349 871 340 893 q 372 829 358 849 q 409 799 386 809 q 463 788 432 788 q 517 799 494 788 q 554 829 540 809 q 577 871 568 849 q 590 925 586 893 q 595 982 594 958 q 597 1042 597 1007 q 595 1101 597 1076 q 590 1158 594 1126 q 577 1212 586 1190 q 554 1254 568 1234 q 517 1284 540 1274 q 463 1295 494 1295 q 409 1284 432 1295 q 372 1254 386 1274 q 349 1212 358 1234 q 336 1158 340 1190 q 330 1101 332 1126 z "},"»":{"ha":926,"x_min":194,"x_max":926,"o":"m 813 525 l 542 878 l 636 939 l 926 552 l 926 490 l 636 102 l 542 164 l 813 516 l 813 525 m 466 525 l 194 878 l 288 939 l 579 552 l 579 490 l 288 102 l 194 164 l 466 516 l 466 525 z "},"¼":{"ha":926,"x_min":116,"x_max":926,"o":"m 365 1389 l 463 1389 l 463 694 l 347 694 l 347 1246 l 338 1246 l 116 1127 l 116 1248 l 365 1389 m 926 -116 l 810 -116 l 810 116 l 463 116 l 463 181 l 533 579 l 643 579 l 581 224 l 810 224 l 810 579 l 926 579 l 926 -116 z "},"½":{"ha":926,"x_min":116,"x_max":937,"o":"m 463 569 q 683 593 581 593 q 871 532 805 593 q 937 381 937 471 q 920 292 937 333 q 871 220 902 250 q 809 170 839 190 q 740 129 779 149 q 705 112 712 115 q 675 96 698 109 q 642 76 651 83 q 619 55 634 68 q 596 30 604 42 q 582 2 588 17 l 582 -7 l 926 -7 l 926 -116 l 458 -116 l 458 -61 q 675 222 458 118 q 727 249 707 237 q 772 280 747 260 q 809 325 797 299 q 821 381 821 350 q 817 412 821 397 q 799 445 812 427 q 757 474 787 463 q 683 485 727 485 q 463 460 585 485 l 463 569 m 365 1389 l 463 1389 l 463 694 l 347 694 l 347 1246 l 338 1246 l 116 1127 l 116 1248 l 365 1389 z "},"¾":{"ha":926,"x_min":116,"x_max":926,"o":"m 494 1040 q 590 889 590 990 q 518 736 590 792 q 335 680 446 680 q 116 694 241 680 l 116 802 q 335 788 257 788 q 437 814 400 788 q 474 889 474 839 q 448 951 474 926 q 385 983 423 976 q 302 987 362 987 l 231 987 l 231 1096 l 302 1096 q 382 1101 354 1096 q 442 1133 419 1109 q 466 1195 466 1157 q 431 1270 466 1244 q 333 1295 397 1295 q 125 1279 272 1295 l 125 1388 q 333 1403 244 1403 q 514 1346 446 1403 q 581 1195 581 1289 q 494 1049 581 1099 l 494 1040 m 926 -116 l 810 -116 l 810 116 l 463 116 l 463 181 l 533 579 l 643 579 l 581 224 l 810 224 l 810 579 l 926 579 l 926 -116 z "},"¿":{"ha":926,"x_min":221,"x_max":790,"o":"m 615 832 q 597 814 615 832 q 521 796 579 796 q 427 832 463 796 q 391 926 391 868 q 427 1020 391 984 q 521 1056 463 1056 q 615 1020 579 1056 q 651 926 651 984 q 615 832 651 868 m 579 579 q 561 449 579 507 q 489 335 543 391 q 426 269 448 293 q 381 208 405 244 q 346 135 356 172 q 336 54 336 99 q 390 -89 336 -41 q 559 -137 443 -137 q 790 -104 643 -137 l 790 -212 q 559 -246 647 -246 q 308 -166 396 -246 q 221 54 221 -87 q 234 158 221 109 q 274 250 247 206 q 330 329 302 295 q 402 408 358 363 q 445 470 430 437 q 461 523 459 503 q 463 579 463 543 l 579 579 z "},"À":{"ha":926,"x_min":93,"x_max":949,"o":"m 600 1389 l 476 1389 l 326 1620 l 450 1620 l 600 1389 m 93 0 q 462 1273 174 758 l 580 1273 q 949 0 868 758 l 826 0 q 777 351 813 164 l 265 351 q 251 268 260 323 q 237 178 242 213 q 225 93 231 143 q 215 0 219 43 l 93 0 m 758 459 q 652 848 705 681 q 525 1157 599 1015 l 516 1157 q 390 848 443 1015 q 284 459 336 681 l 758 459 z "},"Á":{"ha":926,"x_min":93,"x_max":949,"o":"m 441 1389 l 591 1620 l 716 1620 l 566 1389 l 441 1389 m 93 0 q 462 1273 174 758 l 580 1273 q 949 0 868 758 l 826 0 q 777 351 813 164 l 265 351 q 251 268 260 323 q 237 178 242 213 q 225 93 231 143 q 215 0 219 43 l 93 0 m 758 459 q 652 848 705 681 q 525 1157 599 1015 l 516 1157 q 390 848 443 1015 q 284 459 336 681 l 758 459 z "},"Â":{"ha":926,"x_min":93,"x_max":949,"o":"m 449 1620 l 592 1620 l 861 1389 l 718 1389 l 521 1537 l 324 1389 l 181 1389 l 449 1620 m 93 0 q 462 1273 174 758 l 580 1273 q 949 0 868 758 l 826 0 q 777 351 813 164 l 265 351 q 251 268 260 323 q 237 178 242 213 q 225 93 231 143 q 215 0 219 43 l 93 0 m 758 459 q 652 848 705 681 q 525 1157 599 1015 l 516 1157 q 390 848 443 1015 q 284 459 336 681 l 758 459 z "},"Ã":{"ha":926,"x_min":93,"x_max":949,"o":"m 405 1508 q 345 1406 350 1508 l 229 1411 q 277 1558 231 1498 q 405 1617 323 1617 q 472 1605 441 1617 q 524 1576 504 1593 q 562 1542 544 1559 q 599 1513 581 1525 q 637 1501 618 1501 q 697 1603 692 1501 l 813 1598 q 765 1453 811 1513 q 637 1393 719 1393 q 569 1404 600 1393 q 518 1433 538 1416 q 479 1468 497 1450 q 443 1496 461 1485 q 405 1508 424 1508 m 93 0 q 462 1273 174 758 l 580 1273 q 949 0 868 758 l 826 0 q 777 351 813 164 l 265 351 q 251 268 260 323 q 237 178 242 213 q 225 93 231 143 q 215 0 219 43 l 93 0 m 758 459 q 652 848 705 681 q 525 1157 599 1015 l 516 1157 q 390 848 443 1015 q 284 459 336 681 l 758 459 z "},"Ä":{"ha":926,"x_min":93,"x_max":949,"o":"m 650 1578 q 664 1592 650 1578 q 723 1606 678 1606 q 797 1578 769 1606 q 825 1505 825 1550 q 797 1431 825 1459 q 723 1403 769 1403 q 650 1431 678 1403 q 622 1505 622 1459 q 650 1578 622 1550 m 245 1578 q 259 1592 245 1578 q 318 1606 273 1606 q 392 1578 363 1606 q 420 1505 420 1550 q 392 1431 420 1459 q 318 1403 363 1403 q 245 1431 273 1403 q 217 1505 217 1459 q 245 1578 217 1550 m 93 0 q 462 1273 174 758 l 580 1273 q 949 0 868 758 l 826 0 q 777 351 813 164 l 265 351 q 251 268 260 323 q 237 178 242 213 q 225 93 231 143 q 215 0 219 43 l 93 0 m 758 459 q 652 848 705 681 q 525 1157 599 1015 l 516 1157 q 390 848 443 1015 q 284 459 336 681 l 758 459 z "},"Å":{"ha":926,"x_min":93,"x_max":949,"o":"m 600 1474 q 585 1489 600 1474 q 521 1505 570 1505 q 442 1474 472 1505 q 412 1389 412 1444 q 442 1303 412 1334 q 521 1273 472 1273 q 600 1303 570 1273 q 629 1389 629 1334 q 600 1474 629 1444 m 373 1536 q 401 1565 373 1536 q 521 1595 430 1595 q 669 1536 611 1595 q 727 1389 727 1477 q 697 1279 727 1328 q 617 1204 667 1230 q 949 0 873 713 l 826 0 q 777 351 813 164 l 265 351 q 251 268 260 323 q 237 178 242 213 q 225 93 231 143 q 215 0 219 43 l 93 0 q 425 1204 169 713 q 345 1279 374 1230 q 315 1389 315 1328 q 373 1536 315 1477 m 758 459 q 652 848 705 681 q 525 1157 599 1015 l 516 1157 q 390 848 443 1015 q 284 459 336 681 l 758 459 z "},"Æ":{"ha":926,"x_min":93,"x_max":926,"o":"m 579 351 l 224 351 q 209 0 209 159 l 93 0 q 323 1273 93 683 l 926 1273 l 926 1165 l 694 1165 l 694 691 l 926 691 l 926 582 l 694 582 l 694 109 l 926 109 l 926 0 l 579 0 l 579 351 m 579 459 l 579 1165 l 390 1165 q 237 459 283 847 l 579 459 z "},"Ç":{"ha":926,"x_min":101,"x_max":926,"o":"m 926 127 l 926 19 q 694 -11 793 -5 q 647 -161 693 -99 q 463 -247 584 -247 q 347 -231 420 -247 l 347 -120 q 463 -138 426 -138 q 553 -98 523 -138 q 579 -14 577 -67 q 283 83 395 -9 q 129 329 170 175 q 101 637 101 439 q 129 944 101 834 q 286 1195 172 1103 q 590 1288 400 1288 q 899 1261 735 1288 l 899 1153 q 590 1179 729 1179 q 242 919 310 1179 q 217 637 217 820 q 242 354 217 453 q 600 94 312 94 q 926 127 733 94 z "},"È":{"ha":926,"x_min":231,"x_max":926,"o":"m 600 1389 l 476 1389 l 326 1620 l 450 1620 l 600 1389 m 231 1273 l 926 1273 l 926 1165 l 347 1165 l 347 694 l 810 694 l 810 586 l 347 586 l 347 109 l 926 109 l 926 0 l 231 0 l 231 1273 z "},"É":{"ha":926,"x_min":231,"x_max":926,"o":"m 441 1389 l 591 1620 l 716 1620 l 566 1389 l 441 1389 m 231 1273 l 926 1273 l 926 1165 l 347 1165 l 347 694 l 810 694 l 810 586 l 347 586 l 347 109 l 926 109 l 926 0 l 231 0 l 231 1273 z "},"Ê":{"ha":926,"x_min":181,"x_max":926,"o":"m 449 1620 l 592 1620 l 861 1389 l 718 1389 l 521 1537 l 324 1389 l 181 1389 l 449 1620 m 231 1273 l 926 1273 l 926 1165 l 347 1165 l 347 694 l 810 694 l 810 586 l 347 586 l 347 109 l 926 109 l 926 0 l 231 0 l 231 1273 z "},"Ë":{"ha":926,"x_min":217,"x_max":926,"o":"m 650 1578 q 664 1592 650 1578 q 723 1606 678 1606 q 797 1578 769 1606 q 825 1505 825 1550 q 797 1431 825 1459 q 723 1403 769 1403 q 650 1431 678 1403 q 622 1505 622 1459 q 650 1578 622 1550 m 245 1578 q 259 1592 245 1578 q 318 1606 273 1606 q 392 1578 363 1606 q 420 1505 420 1550 q 392 1431 420 1459 q 318 1403 363 1403 q 245 1431 273 1403 q 217 1505 217 1459 q 245 1578 217 1550 m 231 1273 l 926 1273 l 926 1165 l 347 1165 l 347 694 l 810 694 l 810 586 l 347 586 l 347 109 l 926 109 l 926 0 l 231 0 l 231 1273 z "},"Ì":{"ha":926,"x_min":231,"x_max":810,"o":"m 600 1389 l 476 1389 l 326 1620 l 450 1620 l 600 1389 m 810 1273 l 810 1165 l 579 1165 l 579 109 l 810 109 l 810 0 l 231 0 l 231 109 l 463 109 l 463 1165 l 231 1165 l 231 1273 l 810 1273 z "},"Í":{"ha":926,"x_min":231,"x_max":810,"o":"m 441 1389 l 591 1620 l 716 1620 l 566 1389 l 441 1389 m 810 1273 l 810 1165 l 579 1165 l 579 109 l 810 109 l 810 0 l 231 0 l 231 109 l 463 109 l 463 1165 l 231 1165 l 231 1273 l 810 1273 z "},"Î":{"ha":926,"x_min":181,"x_max":861,"o":"m 449 1620 l 592 1620 l 861 1389 l 718 1389 l 521 1537 l 324 1389 l 181 1389 l 449 1620 m 810 1273 l 810 1165 l 579 1165 l 579 109 l 810 109 l 810 0 l 231 0 l 231 109 l 463 109 l 463 1165 l 231 1165 l 231 1273 l 810 1273 z "},"Ï":{"ha":926,"x_min":217,"x_max":825,"o":"m 650 1578 q 664 1592 650 1578 q 723 1606 678 1606 q 797 1578 769 1606 q 825 1505 825 1550 q 797 1431 825 1459 q 723 1403 769 1403 q 650 1431 678 1403 q 622 1505 622 1459 q 650 1578 622 1550 m 245 1578 q 259 1592 245 1578 q 318 1606 273 1606 q 392 1578 363 1606 q 420 1505 420 1550 q 392 1431 420 1459 q 318 1403 363 1403 q 245 1431 273 1403 q 217 1505 217 1459 q 245 1578 217 1550 m 810 1273 l 810 1165 l 579 1165 l 579 109 l 810 109 l 810 0 l 231 0 l 231 109 l 463 109 l 463 1165 l 231 1165 l 231 1273 l 810 1273 z "},"Ð":{"ha":926,"x_min":116,"x_max":940,"o":"m 807 410 q 816 456 807 410 q 825 637 825 503 q 807 864 825 770 q 746 1018 789 957 q 429 1165 643 1165 l 347 1165 l 347 691 l 579 691 l 579 582 l 347 582 l 347 109 l 429 109 q 746 255 643 109 q 807 410 789 316 m 429 1273 q 853 1059 720 1273 q 922 874 904 977 q 940 637 940 771 q 922 399 940 502 q 853 214 904 296 q 429 0 720 0 l 231 0 l 231 582 l 116 582 l 116 691 l 231 691 l 231 1273 l 429 1273 z "},"Ñ":{"ha":926,"x_min":116,"x_max":926,"o":"m 405 1508 q 345 1406 350 1508 l 229 1411 q 277 1558 231 1498 q 405 1617 323 1617 q 472 1605 441 1617 q 524 1576 504 1593 q 562 1542 544 1559 q 599 1513 581 1525 q 637 1501 618 1501 q 697 1603 692 1501 l 813 1598 q 765 1453 811 1513 q 637 1393 719 1393 q 569 1404 600 1393 q 518 1433 538 1416 q 479 1468 497 1450 q 443 1496 461 1485 q 405 1508 424 1508 m 231 0 l 116 0 l 116 1273 l 231 1273 l 801 226 l 810 226 l 810 1273 l 926 1273 l 926 0 l 810 0 l 241 1047 l 231 1047 l 231 0 z "},"Ò":{"ha":926,"x_min":101,"x_max":940,"o":"m 600 1389 l 476 1389 l 326 1620 l 450 1620 l 600 1389 m 240 928 q 217 637 217 829 q 240 345 217 444 q 337 165 267 235 q 521 94 407 94 q 705 165 635 94 q 802 345 775 235 q 825 637 825 444 q 802 928 825 829 q 705 1109 775 1038 q 521 1179 635 1179 q 337 1109 407 1179 q 240 928 267 1038 m 127 321 q 101 637 101 421 q 127 952 101 852 q 263 1193 163 1099 q 521 1288 363 1288 q 779 1193 678 1288 q 915 952 879 1099 q 940 637 940 852 q 915 321 940 421 q 779 80 879 175 q 521 -14 678 -14 q 263 80 363 -14 q 127 321 163 175 z "},"Ó":{"ha":926,"x_min":101,"x_max":940,"o":"m 441 1389 l 591 1620 l 716 1620 l 566 1389 l 441 1389 m 240 928 q 217 637 217 829 q 240 345 217 444 q 337 165 267 235 q 521 94 407 94 q 705 165 635 94 q 802 345 775 235 q 825 637 825 444 q 802 928 825 829 q 705 1109 775 1038 q 521 1179 635 1179 q 337 1109 407 1179 q 240 928 267 1038 m 127 321 q 101 637 101 421 q 127 952 101 852 q 263 1193 163 1099 q 521 1288 363 1288 q 779 1193 678 1288 q 915 952 879 1099 q 940 637 940 852 q 915 321 940 421 q 779 80 879 175 q 521 -14 678 -14 q 263 80 363 -14 q 127 321 163 175 z "},"Ô":{"ha":926,"x_min":101,"x_max":940,"o":"m 449 1620 l 592 1620 l 861 1389 l 718 1389 l 521 1537 l 324 1389 l 181 1389 l 449 1620 m 240 928 q 217 637 217 829 q 240 345 217 444 q 337 165 267 235 q 521 94 407 94 q 705 165 635 94 q 802 345 775 235 q 825 637 825 444 q 802 928 825 829 q 705 1109 775 1038 q 521 1179 635 1179 q 337 1109 407 1179 q 240 928 267 1038 m 127 321 q 101 637 101 421 q 127 952 101 852 q 263 1193 163 1099 q 521 1288 363 1288 q 779 1193 678 1288 q 915 952 879 1099 q 940 637 940 852 q 915 321 940 421 q 779 80 879 175 q 521 -14 678 -14 q 263 80 363 -14 q 127 321 163 175 z "},"Õ":{"ha":926,"x_min":101,"x_max":940,"o":"m 405 1508 q 345 1406 350 1508 l 229 1411 q 277 1558 231 1498 q 405 1617 323 1617 q 472 1605 441 1617 q 524 1576 504 1593 q 562 1542 544 1559 q 599 1513 581 1525 q 637 1501 618 1501 q 697 1603 692 1501 l 813 1598 q 765 1453 811 1513 q 637 1393 719 1393 q 569 1404 600 1393 q 518 1433 538 1416 q 479 1468 497 1450 q 443 1496 461 1485 q 405 1508 424 1508 m 240 928 q 217 637 217 829 q 240 345 217 444 q 337 165 267 235 q 521 94 407 94 q 705 165 635 94 q 802 345 775 235 q 825 637 825 444 q 802 928 825 829 q 705 1109 775 1038 q 521 1179 635 1179 q 337 1109 407 1179 q 240 928 267 1038 m 127 321 q 101 637 101 421 q 127 952 101 852 q 263 1193 163 1099 q 521 1288 363 1288 q 779 1193 678 1288 q 915 952 879 1099 q 940 637 940 852 q 915 321 940 421 q 779 80 879 175 q 521 -14 678 -14 q 263 80 363 -14 q 127 321 163 175 z "},"Ö":{"ha":926,"x_min":101,"x_max":940,"o":"m 650 1578 q 664 1592 650 1578 q 723 1606 678 1606 q 797 1578 769 1606 q 825 1505 825 1550 q 797 1431 825 1459 q 723 1403 769 1403 q 650 1431 678 1403 q 622 1505 622 1459 q 650 1578 622 1550 m 245 1578 q 259 1592 245 1578 q 318 1606 273 1606 q 392 1578 363 1606 q 420 1505 420 1550 q 392 1431 420 1459 q 318 1403 363 1403 q 245 1431 273 1403 q 217 1505 217 1459 q 245 1578 217 1550 m 240 928 q 217 637 217 829 q 240 345 217 444 q 337 165 267 235 q 521 94 407 94 q 705 165 635 94 q 802 345 775 235 q 825 637 825 444 q 802 928 825 829 q 705 1109 775 1038 q 521 1179 635 1179 q 337 1109 407 1179 q 240 928 267 1038 m 127 321 q 101 637 101 421 q 127 952 101 852 q 263 1193 163 1099 q 521 1288 363 1288 q 779 1193 678 1288 q 915 952 879 1099 q 940 637 940 852 q 915 321 940 421 q 779 80 879 175 q 521 -14 678 -14 q 263 80 363 -14 q 127 321 163 175 z "},"×":{"ha":926,"x_min":137,"x_max":904,"o":"m 656 463 l 904 217 l 819 143 l 579 386 l 525 463 l 516 463 l 463 386 l 222 143 l 137 217 l 386 463 l 463 516 l 463 525 l 386 579 l 137 825 l 222 899 l 463 656 l 516 579 l 525 579 l 579 656 l 819 899 l 904 825 l 656 579 l 579 525 l 579 516 l 656 463 z "},"Ø":{"ha":926,"x_min":101,"x_max":940,"o":"m 311 194 q 521 94 392 94 q 703 165 631 94 q 802 345 776 235 q 825 637 825 442 q 817 840 825 755 q 783 989 809 924 l 311 194 m 182 -24 l 104 24 l 190 168 q 127 321 146 239 q 101 637 101 428 q 127 952 101 845 q 264 1193 161 1099 q 521 1288 367 1288 q 791 1180 682 1288 l 860 1297 l 938 1250 l 852 1105 q 915 952 896 1034 q 940 637 940 845 q 915 321 940 428 q 778 80 881 175 q 521 -14 675 -14 q 250 93 360 -14 l 182 -24 m 521 1179 q 338 1109 411 1179 q 240 928 266 1038 q 217 637 217 831 q 225 434 217 518 q 259 284 232 349 l 731 1079 q 521 1179 650 1179 z "},"Ù":{"ha":926,"x_min":116,"x_max":926,"o":"m 600 1389 l 476 1389 l 326 1620 l 450 1620 l 600 1389 m 116 1273 l 231 1273 l 231 463 q 242 298 231 342 q 340 150 265 206 q 521 94 414 94 q 702 150 628 94 q 799 298 777 206 q 810 463 810 342 l 810 1273 l 926 1273 l 926 463 q 911 274 926 335 q 774 66 881 146 q 521 -14 668 -14 q 267 66 373 -14 q 130 274 160 146 q 116 463 116 335 l 116 1273 z "},"Ú":{"ha":926,"x_min":116,"x_max":926,"o":"m 441 1389 l 591 1620 l 716 1620 l 566 1389 l 441 1389 m 116 1273 l 231 1273 l 231 463 q 242 298 231 342 q 340 150 265 206 q 521 94 414 94 q 702 150 628 94 q 799 298 777 206 q 810 463 810 342 l 810 1273 l 926 1273 l 926 463 q 911 274 926 335 q 774 66 881 146 q 521 -14 668 -14 q 267 66 373 -14 q 130 274 160 146 q 116 463 116 335 l 116 1273 z "},"Û":{"ha":926,"x_min":116,"x_max":926,"o":"m 449 1620 l 592 1620 l 861 1389 l 718 1389 l 521 1537 l 324 1389 l 181 1389 l 449 1620 m 116 1273 l 231 1273 l 231 463 q 242 298 231 342 q 340 150 265 206 q 521 94 414 94 q 702 150 628 94 q 799 298 777 206 q 810 463 810 342 l 810 1273 l 926 1273 l 926 463 q 911 274 926 335 q 774 66 881 146 q 521 -14 668 -14 q 267 66 373 -14 q 130 274 160 146 q 116 463 116 335 l 116 1273 z "},"Ü":{"ha":926,"x_min":116,"x_max":926,"o":"m 650 1578 q 664 1592 650 1578 q 723 1606 678 1606 q 797 1578 769 1606 q 825 1505 825 1550 q 797 1431 825 1459 q 723 1403 769 1403 q 650 1431 678 1403 q 622 1505 622 1459 q 650 1578 622 1550 m 245 1578 q 259 1592 245 1578 q 318 1606 273 1606 q 392 1578 363 1606 q 420 1505 420 1550 q 392 1431 420 1459 q 318 1403 363 1403 q 245 1431 273 1403 q 217 1505 217 1459 q 245 1578 217 1550 m 116 1273 l 231 1273 l 231 463 q 242 298 231 342 q 340 150 265 206 q 521 94 414 94 q 702 150 628 94 q 799 298 777 206 q 810 463 810 342 l 810 1273 l 926 1273 l 926 463 q 911 274 926 335 q 774 66 881 146 q 521 -14 668 -14 q 267 66 373 -14 q 130 274 160 146 q 116 463 116 335 l 116 1273 z "},"Ý":{"ha":926,"x_min":90,"x_max":951,"o":"m 441 1389 l 591 1620 l 716 1620 l 566 1389 l 441 1389 m 530 670 q 828 1273 689 904 l 951 1273 q 781 883 869 1059 q 579 557 693 708 l 579 0 l 463 0 l 463 557 q 261 883 349 708 q 90 1273 173 1059 l 213 1273 q 512 670 352 906 l 530 670 z "},"Þ":{"ha":926,"x_min":231,"x_max":940,"o":"m 522 456 q 659 465 618 456 q 779 543 733 481 q 825 694 825 605 q 779 846 825 784 q 659 924 733 908 q 522 933 618 933 l 347 933 l 347 456 l 522 456 m 347 0 l 231 0 l 231 1273 l 347 1273 l 347 1042 l 522 1042 q 688 1030 638 1042 q 870 914 799 1004 q 940 694 940 824 q 870 475 940 565 q 688 359 799 385 q 522 347 638 347 l 347 347 l 347 0 z "},"ß":{"ha":926,"x_min":231,"x_max":839,"o":"m 660 753 q 770 680 730 730 q 825 563 810 629 q 839 396 839 496 q 812 184 839 273 q 719 40 784 95 q 553 -14 654 -14 q 456 -5 514 -14 l 470 102 q 535 94 513 94 q 617 111 582 94 q 672 154 652 127 q 704 222 692 181 q 720 303 716 263 q 723 396 723 344 q 713 518 723 466 q 680 612 703 570 q 613 676 656 654 q 508 698 570 698 l 508 807 q 655 993 655 807 q 617 1130 655 1081 q 508 1179 579 1179 q 382 1128 417 1179 q 347 975 347 1077 l 347 0 l 231 0 l 231 975 q 302 1202 231 1117 q 508 1288 372 1288 q 699 1204 627 1288 q 770 993 770 1120 q 747 852 770 910 q 660 762 723 794 l 660 753 z "},"à":{"ha":926,"x_min":203,"x_max":810,"o":"m 600 1042 l 476 1042 l 326 1273 l 450 1273 l 600 1042 m 694 463 l 517 463 q 465 461 484 463 q 419 448 447 459 q 369 414 391 437 q 318 274 318 361 q 362 146 318 197 q 481 94 406 94 q 558 107 524 94 q 614 138 592 119 q 652 188 637 157 q 676 245 668 219 q 688 309 684 272 q 694 370 693 346 q 694 426 694 393 l 694 463 m 550 940 q 686 916 628 940 q 783 826 745 892 q 810 677 810 778 l 810 0 l 694 0 l 694 111 l 685 111 q 459 -14 594 -14 q 277 67 351 -14 q 203 272 203 148 q 282 482 203 402 q 344 528 311 510 q 412 553 376 546 q 468 561 448 560 q 519 562 488 562 l 694 562 l 694 673 q 678 779 694 751 q 634 819 663 806 q 550 832 606 832 q 289 813 441 832 l 289 923 q 550 940 439 940 z "},"á":{"ha":926,"x_min":203,"x_max":810,"o":"m 441 1042 l 591 1273 l 716 1273 l 566 1042 l 441 1042 m 694 463 l 517 463 q 465 461 484 463 q 419 448 447 459 q 369 414 391 437 q 318 274 318 361 q 362 146 318 197 q 481 94 406 94 q 558 107 524 94 q 614 138 592 119 q 652 188 637 157 q 676 245 668 219 q 688 309 684 272 q 694 370 693 346 q 694 426 694 393 l 694 463 m 550 940 q 686 916 628 940 q 783 826 745 892 q 810 677 810 778 l 810 0 l 694 0 l 694 111 l 685 111 q 459 -14 594 -14 q 277 67 351 -14 q 203 272 203 148 q 282 482 203 402 q 344 528 311 510 q 412 553 376 546 q 468 561 448 560 q 519 562 488 562 l 694 562 l 694 673 q 678 779 694 751 q 634 819 663 806 q 550 832 606 832 q 289 813 441 832 l 289 923 q 550 940 439 940 z "},"â":{"ha":926,"x_min":181,"x_max":861,"o":"m 449 1273 l 592 1273 l 861 1042 l 718 1042 l 521 1190 l 324 1042 l 181 1042 l 449 1273 m 694 463 l 517 463 q 465 461 484 463 q 419 448 447 459 q 369 414 391 437 q 318 274 318 361 q 362 146 318 197 q 481 94 406 94 q 558 107 524 94 q 614 138 592 119 q 652 188 637 157 q 676 245 668 219 q 688 309 684 272 q 694 370 693 346 q 694 426 694 393 l 694 463 m 550 940 q 686 916 628 940 q 783 826 745 892 q 810 677 810 778 l 810 0 l 694 0 l 694 111 l 685 111 q 459 -14 594 -14 q 277 67 351 -14 q 203 272 203 148 q 282 482 203 402 q 344 528 311 510 q 412 553 376 546 q 468 561 448 560 q 519 562 488 562 l 694 562 l 694 673 q 678 779 694 751 q 634 819 663 806 q 550 832 606 832 q 289 813 441 832 l 289 923 q 550 940 439 940 z "},"ã":{"ha":926,"x_min":203,"x_max":813,"o":"m 405 1161 q 345 1059 350 1161 l 229 1064 q 277 1210 231 1151 q 405 1270 323 1270 q 472 1258 441 1270 q 524 1229 504 1246 q 562 1194 544 1212 q 599 1166 581 1177 q 637 1154 618 1154 q 697 1256 692 1154 l 813 1251 q 765 1105 811 1166 q 637 1045 719 1045 q 569 1057 600 1045 q 518 1086 538 1069 q 479 1120 497 1103 q 443 1149 461 1138 q 405 1161 424 1161 m 694 463 l 517 463 q 465 461 484 463 q 419 448 447 459 q 369 414 391 437 q 318 274 318 361 q 362 146 318 197 q 481 94 406 94 q 558 107 524 94 q 614 138 592 119 q 652 188 637 157 q 676 245 668 219 q 688 309 684 272 q 694 370 693 346 q 694 426 694 393 l 694 463 m 550 940 q 686 916 628 940 q 783 826 745 892 q 810 677 810 778 l 810 0 l 694 0 l 694 111 l 685 111 q 459 -14 594 -14 q 277 67 351 -14 q 203 272 203 148 q 282 482 203 402 q 344 528 311 510 q 412 553 376 546 q 468 561 448 560 q 519 562 488 562 l 694 562 l 694 673 q 678 779 694 751 q 634 819 663 806 q 550 832 606 832 q 289 813 441 832 l 289 923 q 550 940 439 940 z "},"ä":{"ha":926,"x_min":203,"x_max":825,"o":"m 650 1231 q 664 1245 650 1231 q 723 1259 678 1259 q 797 1231 769 1259 q 825 1157 825 1203 q 797 1084 825 1112 q 723 1056 769 1056 q 650 1084 678 1056 q 622 1157 622 1112 q 650 1231 622 1203 m 245 1231 q 259 1245 245 1231 q 318 1259 273 1259 q 392 1231 363 1259 q 420 1157 420 1203 q 392 1084 420 1112 q 318 1056 363 1056 q 245 1084 273 1056 q 217 1157 217 1112 q 245 1231 217 1203 m 694 463 l 517 463 q 465 461 484 463 q 419 448 447 459 q 369 414 391 437 q 318 274 318 361 q 362 146 318 197 q 481 94 406 94 q 558 107 524 94 q 614 138 592 119 q 652 188 637 157 q 676 245 668 219 q 688 309 684 272 q 694 370 693 346 q 694 426 694 393 l 694 463 m 550 940 q 686 916 628 940 q 783 826 745 892 q 810 677 810 778 l 810 0 l 694 0 l 694 111 l 685 111 q 459 -14 594 -14 q 277 67 351 -14 q 203 272 203 148 q 282 482 203 402 q 344 528 311 510 q 412 553 376 546 q 468 561 448 560 q 519 562 488 562 l 694 562 l 694 673 q 678 779 694 751 q 634 819 663 806 q 550 832 606 832 q 289 813 441 832 l 289 923 q 550 940 439 940 z "},"å":{"ha":926,"x_min":203,"x_max":810,"o":"m 600 1127 q 585 1142 600 1127 q 521 1157 570 1157 q 442 1127 472 1157 q 412 1042 412 1097 q 442 967 412 994 q 521 940 472 940 q 600 967 570 940 q 629 1042 629 994 q 600 1127 629 1097 m 373 1189 q 401 1218 373 1189 q 521 1248 430 1248 q 669 1189 611 1248 q 727 1042 727 1129 q 677 918 727 970 q 783 826 745 891 q 810 677 810 778 l 810 0 l 694 0 l 694 111 l 685 111 q 459 -14 594 -14 q 277 67 351 -14 q 203 272 203 148 q 282 482 203 402 q 344 528 311 510 q 412 553 376 546 q 468 561 448 560 q 519 562 488 562 l 694 562 l 694 673 q 678 779 694 751 q 634 819 663 806 q 550 832 606 832 q 289 813 441 832 l 289 923 q 321 926 298 924 q 355 930 343 929 q 315 1042 315 978 q 373 1189 315 1129 m 694 463 l 517 463 q 465 461 484 463 q 419 448 447 459 q 369 414 391 437 q 318 274 318 361 q 362 146 318 197 q 481 94 406 94 q 558 107 524 94 q 614 138 592 119 q 652 188 637 157 q 676 245 668 219 q 688 309 684 272 q 694 370 693 346 q 694 426 694 393 l 694 463 z "},"æ":{"ha":926,"x_min":87,"x_max":953,"o":"m 203 279 q 231 151 203 207 q 315 94 260 94 q 396 129 359 94 q 447 208 432 164 q 463 381 463 259 l 463 463 l 341 463 q 279 455 298 463 q 241 421 260 447 q 203 279 203 365 m 519 134 q 434 25 486 64 q 315 -14 382 -14 q 188 28 241 -14 q 111 137 135 71 q 87 279 87 202 q 124 447 87 373 q 229 552 161 522 q 335 571 270 571 l 463 571 l 463 676 q 458 746 463 719 q 438 794 453 772 q 394 826 423 816 q 318 836 364 836 q 116 817 253 836 l 116 928 q 318 944 251 944 q 380 940 354 944 q 436 925 405 937 q 492 887 467 914 q 536 820 517 861 l 545 820 q 714 940 605 940 q 858 877 801 940 q 936 725 914 814 q 953 522 953 656 l 953 463 l 579 463 l 579 424 q 581 343 579 377 q 588 267 582 308 q 605 197 593 225 q 636 144 618 169 q 684 107 654 119 q 752 94 713 94 q 926 117 786 94 l 926 6 q 750 -14 795 -14 q 528 134 596 -14 l 519 134 m 838 571 q 791 789 836 723 q 714 832 758 832 q 639 793 669 832 q 595 699 609 754 q 580 571 581 648 l 838 571 z "},"ç":{"ha":926,"x_min":203,"x_max":810,"o":"m 209 297 q 206 329 209 297 q 203 463 203 362 q 209 629 203 564 q 241 751 216 694 q 548 940 324 940 q 792 925 638 940 l 792 817 q 548 832 637 832 q 425 802 470 832 q 350 713 379 773 q 328 637 335 683 q 319 557 320 590 q 318 463 318 524 q 319 368 318 401 q 328 289 320 335 q 350 212 335 243 q 425 123 379 153 q 548 94 470 94 q 810 118 654 94 l 810 9 q 694 -6 742 -2 q 647 -161 693 -100 q 463 -247 584 -247 q 347 -231 420 -247 l 347 -120 q 463 -138 426 -138 q 553 -98 523 -138 q 579 -14 577 -67 l 548 -14 q 241 175 324 -14 q 209 297 216 231 z "},"è":{"ha":926,"x_min":203,"x_max":839,"o":"m 600 1042 l 476 1042 l 326 1273 l 450 1273 l 600 1042 m 632 803 q 609 817 632 803 q 521 832 586 832 q 410 803 456 832 q 345 722 364 774 q 320 571 326 679 l 722 571 q 697 722 716 679 q 632 803 677 774 m 340 890 q 378 915 340 890 q 521 940 415 940 q 701 890 627 940 q 806 759 776 839 q 829 667 821 720 q 838 575 836 615 q 839 463 839 534 l 318 463 q 319 368 318 401 q 327 289 320 335 q 347 212 334 243 q 539 94 400 94 q 810 113 644 94 l 810 5 q 539 -14 646 -14 q 350 38 427 -14 q 239 175 273 90 q 209 297 215 231 q 203 463 203 362 q 204 575 203 534 q 213 667 205 615 q 236 759 221 720 q 340 890 266 839 z "},"é":{"ha":926,"x_min":203,"x_max":839,"o":"m 441 1042 l 591 1273 l 716 1273 l 566 1042 l 441 1042 m 632 803 q 609 817 632 803 q 521 832 586 832 q 410 803 456 832 q 345 722 364 774 q 320 571 326 679 l 722 571 q 697 722 716 679 q 632 803 677 774 m 340 890 q 378 915 340 890 q 521 940 415 940 q 701 890 627 940 q 806 759 776 839 q 829 667 821 720 q 838 575 836 615 q 839 463 839 534 l 318 463 q 319 368 318 401 q 327 289 320 335 q 347 212 334 243 q 539 94 400 94 q 810 113 644 94 l 810 5 q 539 -14 646 -14 q 350 38 427 -14 q 239 175 273 90 q 209 297 215 231 q 203 463 203 362 q 204 575 203 534 q 213 667 205 615 q 236 759 221 720 q 340 890 266 839 z "},"ê":{"ha":926,"x_min":181,"x_max":861,"o":"m 449 1273 l 592 1273 l 861 1042 l 718 1042 l 521 1190 l 324 1042 l 181 1042 l 449 1273 m 632 803 q 609 817 632 803 q 521 832 586 832 q 410 803 456 832 q 345 722 364 774 q 320 571 326 679 l 722 571 q 697 722 716 679 q 632 803 677 774 m 340 890 q 378 915 340 890 q 521 940 415 940 q 701 890 627 940 q 806 759 776 839 q 829 667 821 720 q 838 575 836 615 q 839 463 839 534 l 318 463 q 319 368 318 401 q 327 289 320 335 q 347 212 334 243 q 539 94 400 94 q 810 113 644 94 l 810 5 q 539 -14 646 -14 q 350 38 427 -14 q 239 175 273 90 q 209 297 215 231 q 203 463 203 362 q 204 575 203 534 q 213 667 205 615 q 236 759 221 720 q 340 890 266 839 z "},"ë":{"ha":926,"x_min":203,"x_max":839,"o":"m 650 1231 q 664 1245 650 1231 q 723 1259 678 1259 q 797 1231 769 1259 q 825 1157 825 1203 q 797 1084 825 1112 q 723 1056 769 1056 q 650 1084 678 1056 q 622 1157 622 1112 q 650 1231 622 1203 m 245 1231 q 259 1245 245 1231 q 318 1259 273 1259 q 392 1231 363 1259 q 420 1157 420 1203 q 392 1084 420 1112 q 318 1056 363 1056 q 245 1084 273 1056 q 217 1157 217 1112 q 245 1231 217 1203 m 632 803 q 609 817 632 803 q 521 832 586 832 q 410 803 456 832 q 345 722 364 774 q 320 571 326 679 l 722 571 q 697 722 716 679 q 632 803 677 774 m 340 890 q 378 915 340 890 q 521 940 415 940 q 701 890 627 940 q 806 759 776 839 q 829 667 821 720 q 838 575 836 615 q 839 463 839 534 l 318 463 q 319 368 318 401 q 327 289 320 335 q 347 212 334 243 q 539 94 400 94 q 810 113 644 94 l 810 5 q 539 -14 646 -14 q 350 38 427 -14 q 239 175 273 90 q 209 297 215 231 q 203 463 203 362 q 204 575 203 534 q 213 667 205 615 q 236 759 221 720 q 340 890 266 839 z "},"ì":{"ha":926,"x_min":231,"x_max":600,"o":"m 600 1042 l 476 1042 l 326 1273 l 450 1273 l 600 1042 m 463 0 l 463 817 l 231 817 l 231 926 l 579 926 l 579 0 l 463 0 z "},"í":{"ha":926,"x_min":231,"x_max":716,"o":"m 441 1042 l 591 1273 l 716 1273 l 566 1042 l 441 1042 m 463 0 l 463 817 l 231 817 l 231 926 l 579 926 l 579 0 l 463 0 z "},"î":{"ha":926,"x_min":181,"x_max":861,"o":"m 449 1273 l 592 1273 l 861 1042 l 718 1042 l 521 1190 l 324 1042 l 181 1042 l 449 1273 m 463 0 l 463 817 l 231 817 l 231 926 l 579 926 l 579 0 l 463 0 z "},"ï":{"ha":926,"x_min":217,"x_max":825,"o":"m 650 1231 q 664 1245 650 1231 q 723 1259 678 1259 q 797 1231 769 1259 q 825 1157 825 1203 q 797 1084 825 1112 q 723 1056 769 1056 q 650 1084 678 1056 q 622 1157 622 1112 q 650 1231 622 1203 m 245 1231 q 259 1245 245 1231 q 318 1259 273 1259 q 392 1231 363 1259 q 420 1157 420 1203 q 392 1084 420 1112 q 318 1056 363 1056 q 245 1084 273 1056 q 217 1157 217 1112 q 245 1231 217 1203 m 463 0 l 463 817 l 231 817 l 231 926 l 579 926 l 579 0 l 463 0 z "},"ð":{"ha":926,"x_min":203,"x_max":839,"o":"m 367 936 l 327 996 l 488 1105 q 335 1221 420 1175 l 373 1291 q 571 1161 487 1240 l 749 1281 l 788 1222 l 622 1109 q 788 815 738 989 q 839 405 839 640 q 833 277 839 328 q 808 176 827 225 q 703 40 776 94 q 539 -14 630 -14 q 233 176 310 -14 q 208 276 213 225 q 203 405 203 326 q 230 634 203 554 q 329 771 258 717 q 503 825 401 825 q 600 802 559 825 q 682 732 640 779 l 691 732 q 537 1051 656 912 l 367 936 m 635 684 q 611 700 635 684 q 521 716 588 716 q 408 684 454 716 q 342 598 362 653 q 318 405 318 530 q 342 212 318 271 q 411 126 364 157 q 521 94 458 94 q 631 126 584 94 q 700 212 677 157 q 723 405 723 271 q 703 598 723 546 q 635 684 683 653 z "},"ñ":{"ha":926,"x_min":229,"x_max":813,"o":"m 405 1161 q 345 1059 350 1161 l 229 1064 q 277 1210 231 1151 q 405 1270 323 1270 q 472 1258 441 1270 q 524 1229 504 1246 q 562 1194 544 1212 q 599 1166 581 1177 q 637 1154 618 1154 q 697 1256 692 1154 l 813 1251 q 765 1105 811 1166 q 637 1045 719 1045 q 569 1057 600 1045 q 518 1086 538 1069 q 479 1120 497 1103 q 443 1149 461 1138 q 405 1161 424 1161 m 539 940 q 658 914 604 940 q 748 844 713 888 q 784 786 770 816 q 802 720 798 756 q 809 660 807 684 q 810 594 810 637 l 810 0 l 694 0 l 694 594 q 693 668 694 644 q 682 723 692 693 q 654 776 673 753 q 521 832 605 832 q 388 776 437 832 q 359 723 369 753 q 349 668 350 693 q 347 594 347 644 l 347 0 l 231 0 l 231 926 l 347 926 l 347 825 l 356 825 q 439 909 390 877 q 539 940 488 940 z "},"ò":{"ha":926,"x_min":203,"x_max":839,"o":"m 600 1042 l 476 1042 l 326 1273 l 450 1273 l 600 1042 m 370 902 q 404 921 370 902 q 521 940 437 940 q 671 902 605 940 q 780 796 738 864 q 827 659 816 738 q 839 463 839 580 q 827 267 839 346 q 780 130 816 188 q 671 24 738 62 q 521 -14 605 -14 q 370 24 437 -14 q 261 130 304 62 q 214 267 226 188 q 203 463 203 346 q 214 659 203 580 q 261 796 226 738 q 370 902 304 864 m 680 743 q 521 832 628 832 q 362 743 414 832 q 332 660 342 710 q 320 570 322 609 q 318 463 318 530 q 320 356 318 396 q 332 266 322 316 q 362 183 342 216 q 521 94 414 94 q 680 183 628 94 q 710 266 700 216 q 722 356 720 316 q 723 463 723 396 q 722 570 723 530 q 710 660 720 609 q 680 743 700 710 z "},"ó":{"ha":926,"x_min":203,"x_max":839,"o":"m 441 1042 l 591 1273 l 716 1273 l 566 1042 l 441 1042 m 370 902 q 404 921 370 902 q 521 940 437 940 q 671 902 605 940 q 780 796 738 864 q 827 659 816 738 q 839 463 839 580 q 827 267 839 346 q 780 130 816 188 q 671 24 738 62 q 521 -14 605 -14 q 370 24 437 -14 q 261 130 304 62 q 214 267 226 188 q 203 463 203 346 q 214 659 203 580 q 261 796 226 738 q 370 902 304 864 m 680 743 q 521 832 628 832 q 362 743 414 832 q 332 660 342 710 q 320 570 322 609 q 318 463 318 530 q 320 356 318 396 q 332 266 322 316 q 362 183 342 216 q 521 94 414 94 q 680 183 628 94 q 710 266 700 216 q 722 356 720 316 q 723 463 723 396 q 722 570 723 530 q 710 660 720 609 q 680 743 700 710 z "},"ô":{"ha":926,"x_min":181,"x_max":861,"o":"m 449 1273 l 592 1273 l 861 1042 l 718 1042 l 521 1190 l 324 1042 l 181 1042 l 449 1273 m 370 902 q 404 921 370 902 q 521 940 437 940 q 671 902 605 940 q 780 796 738 864 q 827 659 816 738 q 839 463 839 580 q 827 267 839 346 q 780 130 816 188 q 671 24 738 62 q 521 -14 605 -14 q 370 24 437 -14 q 261 130 304 62 q 214 267 226 188 q 203 463 203 346 q 214 659 203 580 q 261 796 226 738 q 370 902 304 864 m 680 743 q 521 832 628 832 q 362 743 414 832 q 332 660 342 710 q 320 570 322 609 q 318 463 318 530 q 320 356 318 396 q 332 266 322 316 q 362 183 342 216 q 521 94 414 94 q 680 183 628 94 q 710 266 700 216 q 722 356 720 316 q 723 463 723 396 q 722 570 723 530 q 710 660 720 609 q 680 743 700 710 z "},"õ":{"ha":926,"x_min":203,"x_max":839,"o":"m 405 1161 q 345 1059 350 1161 l 229 1064 q 277 1210 231 1151 q 405 1270 323 1270 q 472 1258 441 1270 q 524 1229 504 1246 q 562 1194 544 1212 q 599 1166 581 1177 q 637 1154 618 1154 q 697 1256 692 1154 l 813 1251 q 765 1105 811 1166 q 637 1045 719 1045 q 569 1057 600 1045 q 518 1086 538 1069 q 479 1120 497 1103 q 443 1149 461 1138 q 405 1161 424 1161 m 370 902 q 404 921 370 902 q 521 940 437 940 q 671 902 605 940 q 780 796 738 864 q 827 659 816 738 q 839 463 839 580 q 827 267 839 346 q 780 130 816 188 q 671 24 738 62 q 521 -14 605 -14 q 370 24 437 -14 q 261 130 304 62 q 214 267 226 188 q 203 463 203 346 q 214 659 203 580 q 261 796 226 738 q 370 902 304 864 m 680 743 q 521 832 628 832 q 362 743 414 832 q 332 660 342 710 q 320 570 322 609 q 318 463 318 530 q 320 356 318 396 q 332 266 322 316 q 362 183 342 216 q 521 94 414 94 q 680 183 628 94 q 710 266 700 216 q 722 356 720 316 q 723 463 723 396 q 722 570 723 530 q 710 660 720 609 q 680 743 700 710 z "},"ö":{"ha":926,"x_min":203,"x_max":839,"o":"m 650 1231 q 664 1245 650 1231 q 723 1259 678 1259 q 797 1231 769 1259 q 825 1157 825 1203 q 797 1084 825 1112 q 723 1056 769 1056 q 650 1084 678 1056 q 622 1157 622 1112 q 650 1231 622 1203 m 245 1231 q 259 1245 245 1231 q 318 1259 273 1259 q 392 1231 363 1259 q 420 1157 420 1203 q 392 1084 420 1112 q 318 1056 363 1056 q 245 1084 273 1056 q 217 1157 217 1112 q 245 1231 217 1203 m 370 902 q 404 921 370 902 q 521 940 437 940 q 671 902 605 940 q 780 796 738 864 q 827 659 816 738 q 839 463 839 580 q 827 267 839 346 q 780 130 816 188 q 671 24 738 62 q 521 -14 605 -14 q 370 24 437 -14 q 261 130 304 62 q 214 267 226 188 q 203 463 203 346 q 214 659 203 580 q 261 796 226 738 q 370 902 304 864 m 680 743 q 521 832 628 832 q 362 743 414 832 q 332 660 342 710 q 320 570 322 609 q 318 463 318 530 q 320 356 318 396 q 332 266 322 316 q 362 183 342 216 q 521 94 414 94 q 680 183 628 94 q 710 266 700 216 q 722 356 720 316 q 723 463 723 396 q 722 570 723 530 q 710 660 720 609 q 680 743 700 710 z "},"÷":{"ha":926,"x_min":116,"x_max":926,"o":"m 926 575 l 926 467 l 116 467 l 116 575 l 926 575 m 448 276 q 462 290 448 276 q 521 304 476 304 q 594 276 566 304 q 622 203 622 248 q 594 129 622 157 q 521 101 566 101 q 448 129 476 101 q 420 203 420 157 q 448 276 420 248 m 448 912 q 462 926 448 912 q 521 940 476 940 q 594 912 566 940 q 622 839 622 884 q 594 766 622 794 q 521 738 566 738 q 448 766 476 738 q 420 839 420 794 q 448 912 420 884 z "},"ø":{"ha":926,"x_min":169,"x_max":873,"o":"m 373 165 q 521 94 426 94 q 694 212 647 94 q 723 463 723 285 q 710 661 723 598 l 373 165 m 790 779 q 830 647 821 720 q 839 463 839 573 q 833 298 839 363 q 803 176 826 234 q 697 39 769 92 q 521 -14 624 -14 q 308 70 392 -14 l 243 -25 l 169 25 l 251 147 q 212 279 221 206 q 203 463 203 353 q 209 628 203 563 q 239 750 215 692 q 345 887 272 834 q 521 940 418 940 q 733 856 649 940 l 798 951 l 873 901 l 790 779 m 521 832 q 347 713 395 832 q 318 463 318 641 q 332 265 318 328 l 668 760 q 521 832 616 832 z "},"ù":{"ha":926,"x_min":231,"x_max":810,"o":"m 600 1042 l 476 1042 l 326 1273 l 450 1273 l 600 1042 m 503 -14 q 383 12 438 -14 q 294 82 329 38 q 258 140 271 110 q 239 206 244 170 q 233 266 234 242 q 231 332 231 289 l 231 926 l 347 926 l 347 332 q 349 258 347 282 q 359 203 350 233 q 388 150 369 173 q 521 94 437 94 q 654 150 605 94 q 682 203 673 173 q 693 258 692 233 q 694 332 694 282 l 694 926 l 810 926 l 810 0 l 694 0 l 694 101 l 685 101 q 603 17 652 49 q 503 -14 553 -14 z "},"ú":{"ha":926,"x_min":231,"x_max":810,"o":"m 441 1042 l 591 1273 l 716 1273 l 566 1042 l 441 1042 m 503 -14 q 383 12 438 -14 q 294 82 329 38 q 258 140 271 110 q 239 206 244 170 q 233 266 234 242 q 231 332 231 289 l 231 926 l 347 926 l 347 332 q 349 258 347 282 q 359 203 350 233 q 388 150 369 173 q 521 94 437 94 q 654 150 605 94 q 682 203 673 173 q 693 258 692 233 q 694 332 694 282 l 694 926 l 810 926 l 810 0 l 694 0 l 694 101 l 685 101 q 603 17 652 49 q 503 -14 553 -14 z "},"û":{"ha":926,"x_min":181,"x_max":861,"o":"m 449 1273 l 592 1273 l 861 1042 l 718 1042 l 521 1190 l 324 1042 l 181 1042 l 449 1273 m 503 -14 q 383 12 438 -14 q 294 82 329 38 q 258 140 271 110 q 239 206 244 170 q 233 266 234 242 q 231 332 231 289 l 231 926 l 347 926 l 347 332 q 349 258 347 282 q 359 203 350 233 q 388 150 369 173 q 521 94 437 94 q 654 150 605 94 q 682 203 673 173 q 693 258 692 233 q 694 332 694 282 l 694 926 l 810 926 l 810 0 l 694 0 l 694 101 l 685 101 q 603 17 652 49 q 503 -14 553 -14 z "},"ü":{"ha":926,"x_min":217,"x_max":825,"o":"m 650 1231 q 664 1245 650 1231 q 723 1259 678 1259 q 797 1231 769 1259 q 825 1157 825 1203 q 797 1084 825 1112 q 723 1056 769 1056 q 650 1084 678 1056 q 622 1157 622 1112 q 650 1231 622 1203 m 245 1231 q 259 1245 245 1231 q 318 1259 273 1259 q 392 1231 363 1259 q 420 1157 420 1203 q 392 1084 420 1112 q 318 1056 363 1056 q 245 1084 273 1056 q 217 1157 217 1112 q 245 1231 217 1203 m 503 -14 q 383 12 438 -14 q 294 82 329 38 q 258 140 271 110 q 239 206 244 170 q 233 266 234 242 q 231 332 231 289 l 231 926 l 347 926 l 347 332 q 349 258 347 282 q 359 203 350 233 q 388 150 369 173 q 521 94 437 94 q 654 150 605 94 q 682 203 673 173 q 693 258 692 233 q 694 332 694 282 l 694 926 l 810 926 l 810 0 l 694 0 l 694 101 l 685 101 q 603 17 652 49 q 503 -14 553 -14 z "},"ý":{"ha":926,"x_min":184,"x_max":858,"o":"m 441 1042 l 591 1273 l 716 1273 l 566 1042 l 441 1042 m 547 217 q 740 926 633 481 l 858 926 q 837 840 854 909 q 816 753 820 772 q 796 672 811 733 q 774 586 780 611 q 752 506 767 562 q 728 419 738 450 q 703 335 719 387 q 675 241 688 282 q 645 150 662 201 q 611 50 628 99 q 577 -43 590 -12 q 543 -114 565 -74 q 494 -175 520 -154 q 231 -246 409 -246 l 231 -137 q 409 -100 361 -137 q 447 -53 430 -85 q 475 5 465 -22 q 515 116 486 33 l 467 116 q 304 490 370 293 q 184 926 239 687 l 303 926 q 538 217 397 494 l 547 217 z "},"þ":{"ha":926,"x_min":231,"x_max":839,"o":"m 433 133 q 454 114 433 133 q 535 94 475 94 q 638 133 596 94 q 700 231 680 173 q 723 463 723 303 q 700 694 723 623 q 638 793 680 753 q 535 832 596 832 q 433 793 475 832 q 371 694 391 753 q 347 463 347 623 q 371 231 347 303 q 433 133 391 173 m 553 -14 q 356 113 438 -14 l 347 113 l 347 -347 l 231 -347 l 231 1273 l 347 1273 l 347 813 l 356 813 q 553 940 438 940 q 713 884 643 940 q 814 726 782 827 q 831 641 826 688 q 838 561 837 594 q 839 463 839 528 q 838 365 839 398 q 831 285 837 332 q 814 200 826 238 q 713 42 782 99 q 553 -14 643 -14 z "},"ÿ":{"ha":926,"x_min":184,"x_max":858,"o":"m 650 1231 q 664 1245 650 1231 q 723 1259 678 1259 q 797 1231 769 1259 q 825 1157 825 1203 q 797 1084 825 1112 q 723 1056 769 1056 q 650 1084 678 1056 q 622 1157 622 1112 q 650 1231 622 1203 m 245 1231 q 259 1245 245 1231 q 318 1259 273 1259 q 392 1231 363 1259 q 420 1157 420 1203 q 392 1084 420 1112 q 318 1056 363 1056 q 245 1084 273 1056 q 217 1157 217 1112 q 245 1231 217 1203 m 547 217 q 740 926 633 481 l 858 926 q 837 840 854 909 q 816 753 820 772 q 796 672 811 733 q 774 586 780 611 q 752 506 767 562 q 728 419 738 450 q 703 335 719 387 q 675 241 688 282 q 645 150 662 201 q 611 50 628 99 q 577 -43 590 -12 q 543 -114 565 -74 q 494 -175 520 -154 q 231 -246 409 -246 l 231 -137 q 409 -100 361 -137 q 447 -53 430 -85 q 475 5 465 -22 q 515 116 486 33 l 467 116 q 304 490 370 293 q 184 926 239 687 l 303 926 q 538 217 397 494 l 547 217 z "},"Ā":{"ha":926,"x_min":93,"x_max":949,"o":"m 231 1501 l 810 1501 l 810 1393 l 231 1393 l 231 1501 m 93 0 q 462 1273 174 758 l 580 1273 q 949 0 868 758 l 826 0 q 777 351 813 164 l 265 351 q 251 268 260 323 q 237 178 242 213 q 225 93 231 143 q 215 0 219 43 l 93 0 m 758 459 q 652 848 705 681 q 525 1157 599 1015 l 516 1157 q 390 848 443 1015 q 284 459 336 681 l 758 459 z "},"ā":{"ha":926,"x_min":203,"x_max":810,"o":"m 694 463 l 517 463 q 465 461 484 463 q 419 448 447 459 q 369 414 391 437 q 318 274 318 361 q 362 146 318 197 q 481 94 406 94 q 558 107 524 94 q 614 138 592 119 q 652 188 637 157 q 676 245 668 219 q 688 309 684 272 q 694 370 693 346 q 694 426 694 393 l 694 463 m 550 940 q 686 916 628 940 q 783 826 745 892 q 810 677 810 778 l 810 0 l 694 0 l 694 111 l 685 111 q 459 -14 594 -14 q 277 67 351 -14 q 203 272 203 148 q 282 482 203 402 q 344 528 311 510 q 412 553 376 546 q 468 561 448 560 q 519 562 488 562 l 694 562 l 694 673 q 678 779 694 751 q 634 819 663 806 q 550 832 606 832 q 289 813 441 832 l 289 923 q 550 940 439 940 m 231 1273 l 810 1273 l 810 1165 l 231 1165 l 231 1273 z "},"Ă":{"ha":926,"x_min":93,"x_max":949,"o":"m 713 1620 l 828 1620 q 740 1442 828 1509 q 521 1374 652 1374 q 302 1442 390 1374 q 213 1620 213 1509 l 329 1620 q 378 1521 329 1559 q 521 1483 428 1483 q 663 1521 614 1483 q 713 1620 713 1559 m 93 0 q 462 1273 174 758 l 580 1273 q 949 0 868 758 l 826 0 q 777 351 813 164 l 265 351 q 251 268 260 323 q 237 178 242 213 q 225 93 231 143 q 215 0 219 43 l 93 0 m 758 459 q 652 848 705 681 q 525 1157 599 1015 l 516 1157 q 390 848 443 1015 q 284 459 336 681 l 758 459 z "},"ă":{"ha":926,"x_min":203,"x_max":828,"o":"m 694 463 l 517 463 q 465 461 484 463 q 419 448 447 459 q 369 414 391 437 q 318 274 318 361 q 362 146 318 197 q 481 94 406 94 q 558 107 524 94 q 614 138 592 119 q 652 188 637 157 q 676 245 668 219 q 688 309 684 272 q 694 370 693 346 q 694 426 694 393 l 694 463 m 550 940 q 686 916 628 940 q 783 826 745 892 q 810 677 810 778 l 810 0 l 694 0 l 694 111 l 685 111 q 459 -14 594 -14 q 277 67 351 -14 q 203 272 203 148 q 282 482 203 402 q 344 528 311 510 q 412 553 376 546 q 468 561 448 560 q 519 562 488 562 l 694 562 l 694 673 q 678 779 694 751 q 634 819 663 806 q 550 832 606 832 q 289 813 441 832 l 289 923 q 550 940 439 940 m 713 1273 l 828 1273 q 740 1095 828 1162 q 521 1027 652 1027 q 302 1095 390 1027 q 213 1273 213 1162 l 329 1273 q 378 1174 329 1212 q 521 1136 428 1136 q 663 1174 614 1136 q 713 1273 713 1212 z "},"Ą":{"ha":926,"x_min":93,"x_max":949,"o":"m 885 -208 q 943 -203 921 -208 l 943 -312 q 867 -316 913 -316 q 756 -274 807 -316 q 705 -167 705 -232 q 826 0 705 -74 q 777 351 813 164 l 265 351 q 251 268 260 323 q 237 178 242 213 q 225 93 231 143 q 215 0 219 43 l 93 0 q 462 1273 174 758 l 580 1273 q 949 0 868 758 q 846 -66 877 -33 q 815 -143 815 -98 q 836 -192 815 -175 q 885 -208 857 -208 m 758 459 q 652 848 705 681 q 525 1157 599 1015 l 516 1157 q 390 848 443 1015 q 284 459 336 681 l 758 459 z "},"ą":{"ha":926,"x_min":203,"x_max":810,"o":"m 752 -208 q 810 -203 788 -208 l 810 -312 q 734 -316 781 -316 q 623 -274 675 -316 q 572 -167 572 -232 q 694 0 572 -74 l 694 111 l 685 111 q 459 -14 594 -14 q 277 67 351 -14 q 203 272 203 148 q 282 482 203 402 q 344 528 311 510 q 412 553 376 546 q 468 561 448 560 q 519 562 488 562 l 694 562 l 694 673 q 678 779 694 751 q 634 819 663 806 q 550 832 606 832 q 289 813 441 832 l 289 923 q 550 940 439 940 q 686 916 628 940 q 783 826 745 892 q 810 677 810 778 l 810 0 q 712 -66 741 -33 q 682 -143 682 -98 q 703 -192 682 -175 q 752 -208 724 -208 m 694 463 l 517 463 q 465 461 484 463 q 419 448 447 459 q 369 414 391 437 q 318 274 318 361 q 362 146 318 197 q 481 94 406 94 q 558 107 524 94 q 614 138 592 119 q 652 188 637 157 q 676 245 668 219 q 688 309 684 272 q 694 370 693 346 q 694 426 694 393 l 694 463 z "},"Ć":{"ha":926,"x_min":101,"x_max":926,"o":"m 499 1389 l 649 1620 l 774 1620 l 624 1389 l 499 1389 m 926 120 l 926 12 q 600 -14 744 -14 q 289 78 407 -14 q 129 329 171 171 q 101 637 101 439 q 129 944 101 834 q 286 1195 172 1103 q 590 1288 400 1288 q 899 1261 735 1288 l 899 1153 q 590 1179 729 1179 q 242 919 310 1179 q 217 637 217 820 q 242 354 217 453 q 600 94 312 94 q 926 120 738 94 z "},"ć":{"ha":926,"x_min":203,"x_max":810,"o":"m 209 297 q 206 329 209 297 q 203 463 203 362 q 209 629 203 564 q 241 751 216 694 q 548 940 324 940 q 792 925 638 940 l 792 817 q 548 832 637 832 q 425 802 470 832 q 350 713 379 773 q 328 637 335 683 q 319 557 320 590 q 318 463 318 524 q 319 368 318 401 q 328 289 320 335 q 350 212 335 243 q 425 123 379 153 q 548 94 470 94 q 810 118 654 94 l 810 9 q 548 -14 655 -14 q 241 175 324 -14 q 209 297 216 231 m 441 1042 l 591 1273 l 716 1273 l 566 1042 l 441 1042 z "},"Ĉ":{"ha":926,"x_min":101,"x_max":926,"o":"m 507 1620 l 650 1620 l 919 1389 l 776 1389 l 579 1537 l 382 1389 l 239 1389 l 507 1620 m 926 120 l 926 12 q 600 -14 744 -14 q 289 78 407 -14 q 129 329 171 171 q 101 637 101 439 q 129 944 101 834 q 286 1195 172 1103 q 590 1288 400 1288 q 899 1261 735 1288 l 899 1153 q 590 1179 729 1179 q 242 919 310 1179 q 217 637 217 820 q 242 354 217 453 q 600 94 312 94 q 926 120 738 94 z "},"ĉ":{"ha":926,"x_min":181,"x_max":861,"o":"m 209 297 q 206 329 209 297 q 203 463 203 362 q 209 629 203 564 q 241 751 216 694 q 548 940 324 940 q 792 925 638 940 l 792 817 q 548 832 637 832 q 425 802 470 832 q 350 713 379 773 q 328 637 335 683 q 319 557 320 590 q 318 463 318 524 q 319 368 318 401 q 328 289 320 335 q 350 212 335 243 q 425 123 379 153 q 548 94 470 94 q 810 118 654 94 l 810 9 q 548 -14 655 -14 q 241 175 324 -14 q 209 297 216 231 m 449 1273 l 592 1273 l 861 1042 l 718 1042 l 521 1190 l 324 1042 l 181 1042 l 449 1273 z "},"Ċ":{"ha":926,"x_min":101,"x_max":926,"o":"m 505 1607 q 519 1621 505 1607 q 579 1635 533 1635 q 652 1607 624 1635 q 680 1534 680 1579 q 652 1460 680 1488 q 579 1432 624 1432 q 505 1460 533 1432 q 477 1534 477 1488 q 505 1607 477 1579 m 926 120 l 926 12 q 600 -14 744 -14 q 289 78 407 -14 q 129 329 171 171 q 101 637 101 439 q 129 944 101 834 q 286 1195 172 1103 q 590 1288 400 1288 q 899 1261 735 1288 l 899 1153 q 590 1179 729 1179 q 242 919 310 1179 q 217 637 217 820 q 242 354 217 453 q 600 94 312 94 q 926 120 738 94 z "},"ċ":{"ha":926,"x_min":203,"x_max":810,"o":"m 209 297 q 206 329 209 297 q 203 463 203 362 q 209 629 203 564 q 241 751 216 694 q 548 940 324 940 q 792 925 638 940 l 792 817 q 548 832 637 832 q 425 802 470 832 q 350 713 379 773 q 328 637 335 683 q 319 557 320 590 q 318 463 318 524 q 319 368 318 401 q 328 289 320 335 q 350 212 335 243 q 425 123 379 153 q 548 94 470 94 q 810 118 654 94 l 810 9 q 548 -14 655 -14 q 241 175 324 -14 q 209 297 216 231 m 448 1260 q 462 1274 448 1260 q 521 1289 476 1289 q 594 1260 566 1289 q 622 1187 622 1232 q 594 1114 622 1143 q 521 1086 566 1086 q 448 1114 476 1086 q 420 1187 420 1143 q 448 1260 420 1232 z "},"Č":{"ha":926,"x_min":101,"x_max":926,"o":"m 507 1389 l 239 1620 l 382 1620 l 579 1472 l 776 1620 l 919 1620 l 650 1389 l 507 1389 m 926 120 l 926 12 q 600 -14 744 -14 q 289 78 407 -14 q 129 329 171 171 q 101 637 101 439 q 129 944 101 834 q 286 1195 172 1103 q 590 1288 400 1288 q 899 1261 735 1288 l 899 1153 q 590 1179 729 1179 q 242 919 310 1179 q 217 637 217 820 q 242 354 217 453 q 600 94 312 94 q 926 120 738 94 z "},"č":{"ha":926,"x_min":181,"x_max":861,"o":"m 209 297 q 206 329 209 297 q 203 463 203 362 q 209 629 203 564 q 241 751 216 694 q 548 940 324 940 q 792 925 638 940 l 792 817 q 548 832 637 832 q 425 802 470 832 q 350 713 379 773 q 328 637 335 683 q 319 557 320 590 q 318 463 318 524 q 319 368 318 401 q 328 289 320 335 q 350 212 335 243 q 425 123 379 153 q 548 94 470 94 q 810 118 654 94 l 810 9 q 548 -14 655 -14 q 241 175 324 -14 q 209 297 216 231 m 449 1042 l 181 1273 l 324 1273 l 521 1125 l 718 1273 l 861 1273 l 592 1042 l 449 1042 z "},"Ď":{"ha":926,"x_min":116,"x_max":940,"o":"m 449 1389 l 181 1620 l 324 1620 l 521 1472 l 718 1620 l 861 1620 l 592 1389 l 449 1389 m 429 1273 q 853 1059 720 1273 q 922 874 904 977 q 940 637 940 771 q 922 399 940 502 q 853 214 904 296 q 429 0 720 0 l 116 0 l 116 1273 l 429 1273 m 807 410 q 816 456 807 410 q 825 637 825 503 q 807 864 825 770 q 746 1018 789 957 q 429 1165 643 1165 l 231 1165 l 231 109 l 429 109 q 746 255 643 109 q 807 410 789 316 z "},"ď":{"ha":926,"x_min":203,"x_max":1042,"o":"m 926 1273 l 1042 1273 l 1042 926 l 926 926 l 926 1273 m 488 940 q 601 909 549 940 q 685 813 654 878 l 694 813 l 694 1273 l 810 1273 l 810 0 l 694 0 l 694 113 l 685 113 q 601 17 654 48 q 488 -14 549 -14 q 329 42 399 -14 q 228 200 260 99 q 210 285 216 238 q 203 365 204 332 q 203 463 203 398 q 203 561 203 528 q 210 641 204 594 q 228 726 216 688 q 329 884 260 827 q 488 940 399 940 m 609 793 q 588 812 609 793 q 506 832 567 832 q 404 793 446 832 q 342 694 362 753 q 318 463 318 623 q 342 231 318 303 q 404 133 362 173 q 506 94 446 94 q 609 133 567 94 q 671 231 651 173 q 694 463 694 303 q 671 694 694 623 q 609 793 651 753 z "},"Đ":{"ha":926,"x_min":116,"x_max":940,"o":"m 807 410 q 816 456 807 410 q 825 637 825 503 q 807 864 825 770 q 746 1018 789 957 q 429 1165 643 1165 l 347 1165 l 347 691 l 579 691 l 579 582 l 347 582 l 347 109 l 429 109 q 746 255 643 109 q 807 410 789 316 m 429 1273 q 853 1059 720 1273 q 922 874 904 977 q 940 637 940 771 q 922 399 940 502 q 853 214 904 296 q 429 0 720 0 l 231 0 l 231 582 l 116 582 l 116 691 l 231 691 l 231 1273 l 429 1273 z "},"đ":{"ha":926,"x_min":203,"x_max":926,"o":"m 694 0 l 694 113 l 685 113 q 488 -14 603 -14 q 307 59 382 -14 q 203 405 203 162 q 307 751 203 648 q 488 825 382 825 q 685 697 603 825 l 694 697 l 694 1045 l 347 1045 l 347 1154 l 694 1154 l 694 1273 l 810 1273 l 810 1154 l 926 1154 l 926 1045 l 810 1045 l 810 0 l 694 0 m 395 675 q 318 405 318 603 q 395 136 318 207 q 506 94 439 94 q 618 136 573 94 q 694 405 694 207 q 618 675 694 603 q 506 716 573 716 q 395 675 439 716 z "},"Ē":{"ha":926,"x_min":231,"x_max":926,"o":"m 231 1501 l 810 1501 l 810 1393 l 231 1393 l 231 1501 m 231 1273 l 926 1273 l 926 1165 l 347 1165 l 347 694 l 810 694 l 810 586 l 347 586 l 347 109 l 926 109 l 926 0 l 231 0 l 231 1273 z "},"ē":{"ha":926,"x_min":203,"x_max":839,"o":"m 231 1154 l 810 1154 l 810 1045 l 231 1045 l 231 1154 m 632 803 q 609 817 632 803 q 521 832 586 832 q 410 803 456 832 q 345 722 364 774 q 320 571 326 679 l 722 571 q 697 722 716 679 q 632 803 677 774 m 340 890 q 378 915 340 890 q 521 940 415 940 q 701 890 627 940 q 806 759 776 839 q 829 667 821 720 q 838 575 836 615 q 839 463 839 534 l 318 463 q 319 368 318 401 q 327 289 320 335 q 347 212 334 243 q 539 94 400 94 q 810 113 644 94 l 810 5 q 539 -14 646 -14 q 350 38 427 -14 q 239 175 273 90 q 209 297 215 231 q 203 463 203 362 q 204 575 203 534 q 213 667 205 615 q 236 759 221 720 q 340 890 266 839 z "},"Ĕ":{"ha":926,"x_min":213,"x_max":926,"o":"m 713 1620 l 828 1620 q 740 1442 828 1509 q 521 1374 652 1374 q 302 1442 390 1374 q 213 1620 213 1509 l 329 1620 q 378 1521 329 1559 q 521 1483 428 1483 q 663 1521 614 1483 q 713 1620 713 1559 m 231 1273 l 926 1273 l 926 1165 l 347 1165 l 347 694 l 810 694 l 810 586 l 347 586 l 347 109 l 926 109 l 926 0 l 231 0 l 231 1273 z "},"ĕ":{"ha":926,"x_min":203,"x_max":839,"o":"m 632 803 q 609 817 632 803 q 521 832 586 832 q 410 803 456 832 q 345 722 364 774 q 320 571 326 679 l 722 571 q 697 722 716 679 q 632 803 677 774 m 340 890 q 378 915 340 890 q 521 940 415 940 q 701 890 627 940 q 806 759 776 839 q 829 667 821 720 q 838 575 836 615 q 839 463 839 534 l 318 463 q 319 368 318 401 q 327 289 320 335 q 347 212 334 243 q 539 94 400 94 q 810 113 644 94 l 810 5 q 539 -14 646 -14 q 350 38 427 -14 q 239 175 273 90 q 209 297 215 231 q 203 463 203 362 q 204 575 203 534 q 213 667 205 615 q 236 759 221 720 q 340 890 266 839 m 713 1273 l 828 1273 q 740 1095 828 1162 q 521 1027 652 1027 q 302 1095 390 1027 q 213 1273 213 1162 l 329 1273 q 378 1174 329 1212 q 521 1136 428 1136 q 663 1174 614 1136 q 713 1273 713 1212 z "},"Ė":{"ha":926,"x_min":231,"x_max":926,"o":"m 448 1375 q 462 1389 448 1375 q 521 1403 476 1403 q 594 1375 566 1403 q 622 1302 622 1347 q 594 1229 622 1257 q 521 1201 566 1201 q 448 1229 476 1201 q 420 1302 420 1257 q 448 1375 420 1347 m 231 1042 l 926 1042 l 926 933 l 347 933 l 347 575 l 810 575 l 810 467 l 347 467 l 347 109 l 926 109 l 926 0 l 231 0 l 231 1042 z "},"ė":{"ha":926,"x_min":203,"x_max":839,"o":"m 632 803 q 609 817 632 803 q 521 832 586 832 q 410 803 456 832 q 345 722 364 774 q 320 571 326 679 l 722 571 q 697 722 716 679 q 632 803 677 774 m 340 890 q 378 915 340 890 q 521 940 415 940 q 701 890 627 940 q 806 759 776 839 q 829 667 821 720 q 838 575 836 615 q 839 463 839 534 l 318 463 q 319 368 318 401 q 327 289 320 335 q 347 212 334 243 q 539 94 400 94 q 810 113 644 94 l 810 5 q 539 -14 646 -14 q 350 38 427 -14 q 239 175 273 90 q 209 297 215 231 q 203 463 203 362 q 204 575 203 534 q 213 667 205 615 q 236 759 221 720 q 340 890 266 839 m 448 1260 q 462 1274 448 1260 q 521 1288 476 1288 q 594 1260 566 1288 q 622 1186 622 1232 q 594 1113 622 1141 q 521 1085 566 1085 q 448 1113 476 1085 q 420 1186 420 1141 q 448 1260 420 1232 z "},"Ę":{"ha":926,"x_min":231,"x_max":926,"o":"m 873 -208 q 926 -197 904 -208 l 926 -307 q 854 -316 900 -316 q 736 -269 791 -316 q 682 -149 682 -222 q 810 0 682 -67 l 231 0 l 231 1273 l 926 1273 l 926 1165 l 347 1165 l 347 694 l 810 694 l 810 586 l 347 586 l 347 109 l 926 109 l 926 0 q 827 -66 857 -33 q 798 -143 798 -98 q 820 -192 798 -175 q 873 -208 843 -208 z "},"ę":{"ha":926,"x_min":203,"x_max":839,"o":"m 757 -203 q 810 -193 788 -203 l 810 -302 q 739 -312 784 -312 q 622 -270 676 -312 q 568 -163 568 -228 q 678 -7 568 -77 q 539 -14 604 -14 q 350 38 427 -14 q 239 175 273 90 q 209 297 215 231 q 203 463 203 362 q 204 575 203 534 q 213 667 205 615 q 236 759 221 720 q 340 890 266 839 q 521 940 415 940 q 701 890 627 940 q 806 759 776 839 q 829 667 821 720 q 838 575 836 615 q 839 463 839 534 l 318 463 q 319 368 318 401 q 327 289 320 335 q 347 212 334 243 q 539 94 400 94 q 810 113 644 94 l 810 5 q 712 -61 741 -29 q 682 -138 682 -93 q 704 -187 682 -171 q 757 -203 727 -203 m 632 803 q 609 817 632 803 q 521 832 586 832 q 410 803 456 832 q 345 722 364 774 q 320 571 326 679 l 722 571 q 697 722 716 679 q 632 803 677 774 z "},"Ě":{"ha":926,"x_min":181,"x_max":926,"o":"m 449 1389 l 181 1620 l 324 1620 l 521 1472 l 718 1620 l 861 1620 l 592 1389 l 449 1389 m 231 1273 l 926 1273 l 926 1165 l 347 1165 l 347 694 l 810 694 l 810 586 l 347 586 l 347 109 l 926 109 l 926 0 l 231 0 l 231 1273 z "},"ě":{"ha":926,"x_min":181,"x_max":861,"o":"m 632 803 q 609 817 632 803 q 521 832 586 832 q 410 803 456 832 q 345 722 364 774 q 320 571 326 679 l 722 571 q 697 722 716 679 q 632 803 677 774 m 340 890 q 378 915 340 890 q 521 940 415 940 q 701 890 627 940 q 806 759 776 839 q 829 667 821 720 q 838 575 836 615 q 839 463 839 534 l 318 463 q 319 368 318 401 q 327 289 320 335 q 347 212 334 243 q 539 94 400 94 q 810 113 644 94 l 810 5 q 539 -14 646 -14 q 350 38 427 -14 q 239 175 273 90 q 209 297 215 231 q 203 463 203 362 q 204 575 203 534 q 213 667 205 615 q 236 759 221 720 q 340 890 266 839 m 449 1042 l 181 1273 l 324 1273 l 521 1125 l 718 1273 l 861 1273 l 592 1042 l 449 1042 z "},"Ĝ":{"ha":926,"x_min":101,"x_max":926,"o":"m 507 1620 l 650 1620 l 919 1389 l 776 1389 l 579 1537 l 382 1389 l 239 1389 l 507 1620 m 609 1288 q 881 1268 739 1288 l 881 1159 q 609 1179 732 1179 q 366 1110 458 1179 q 242 919 274 1041 q 217 637 217 820 q 242 354 217 453 q 358 163 274 232 q 581 94 442 94 q 810 116 687 94 l 810 586 l 579 586 l 579 694 l 926 694 l 926 31 q 581 -14 737 -14 q 284 79 400 -14 q 129 329 169 172 q 101 637 101 439 q 129 944 101 834 q 293 1194 169 1101 q 609 1288 416 1288 z "},"ĝ":{"ha":926,"x_min":181,"x_max":861,"o":"m 449 1273 l 592 1273 l 861 1042 l 718 1042 l 521 1190 l 324 1042 l 181 1042 l 449 1273 m 395 790 q 318 521 318 719 q 395 251 318 323 q 506 210 439 210 q 618 251 573 210 q 694 521 694 323 q 618 790 694 719 q 506 832 573 832 q 395 790 439 832 m 694 229 l 685 229 q 488 101 603 101 q 307 175 382 101 q 203 521 203 278 q 307 867 203 764 q 488 940 382 940 q 685 813 603 940 l 694 813 l 694 926 l 810 926 l 810 145 q 755 -102 810 -10 q 485 -246 669 -246 q 271 -232 380 -246 l 271 -124 q 485 -137 393 -137 q 655 -49 600 -137 q 694 145 694 15 l 694 229 z "},"Ğ":{"ha":926,"x_min":101,"x_max":926,"o":"m 770 1620 l 886 1620 q 798 1442 886 1509 q 579 1374 710 1374 q 359 1442 448 1374 q 271 1620 271 1509 l 387 1620 q 436 1521 387 1559 q 579 1483 486 1483 q 721 1521 672 1483 q 770 1620 770 1559 m 609 1288 q 881 1268 739 1288 l 881 1159 q 609 1179 732 1179 q 366 1110 458 1179 q 242 919 274 1041 q 217 637 217 820 q 242 354 217 453 q 358 163 274 232 q 581 94 442 94 q 810 116 687 94 l 810 586 l 579 586 l 579 694 l 926 694 l 926 31 q 581 -14 737 -14 q 284 79 400 -14 q 129 329 169 172 q 101 637 101 439 q 129 944 101 834 q 293 1194 169 1101 q 609 1288 416 1288 z "},"ğ":{"ha":926,"x_min":203,"x_max":828,"o":"m 713 1273 l 828 1273 q 740 1095 828 1162 q 521 1027 652 1027 q 302 1095 390 1027 q 213 1273 213 1162 l 329 1273 q 378 1174 329 1212 q 521 1136 428 1136 q 663 1174 614 1136 q 713 1273 713 1212 m 395 790 q 318 521 318 719 q 395 251 318 323 q 506 210 439 210 q 618 251 573 210 q 694 521 694 323 q 618 790 694 719 q 506 832 573 832 q 395 790 439 832 m 694 229 l 685 229 q 488 101 603 101 q 307 175 382 101 q 203 521 203 278 q 307 867 203 764 q 488 940 382 940 q 685 813 603 940 l 694 813 l 694 926 l 810 926 l 810 145 q 755 -102 810 -10 q 485 -246 669 -246 q 271 -232 380 -246 l 271 -124 q 485 -137 393 -137 q 655 -49 600 -137 q 694 145 694 15 l 694 229 z "},"Ġ":{"ha":926,"x_min":101,"x_max":926,"o":"m 505 1607 q 519 1621 505 1607 q 579 1635 533 1635 q 652 1607 624 1635 q 680 1534 680 1579 q 652 1460 680 1488 q 579 1432 624 1432 q 505 1460 533 1432 q 477 1534 477 1488 q 505 1607 477 1579 m 609 1288 q 881 1268 739 1288 l 881 1159 q 609 1179 732 1179 q 366 1110 458 1179 q 242 919 274 1041 q 217 637 217 820 q 242 354 217 453 q 358 163 274 232 q 581 94 442 94 q 810 116 687 94 l 810 586 l 579 586 l 579 694 l 926 694 l 926 31 q 581 -14 737 -14 q 284 79 400 -14 q 129 329 169 172 q 101 637 101 439 q 129 944 101 834 q 293 1194 169 1101 q 609 1288 416 1288 z "},"ġ":{"ha":926,"x_min":203,"x_max":810,"o":"m 448 1260 q 462 1274 448 1260 q 521 1288 476 1288 q 594 1260 566 1288 q 622 1186 622 1232 q 594 1113 622 1141 q 521 1085 566 1085 q 448 1113 476 1085 q 420 1186 420 1141 q 448 1260 420 1232 m 395 790 q 318 521 318 719 q 395 251 318 323 q 506 210 439 210 q 618 251 573 210 q 694 521 694 323 q 618 790 694 719 q 506 832 573 832 q 395 790 439 832 m 694 229 l 685 229 q 488 101 603 101 q 307 175 382 101 q 203 521 203 278 q 307 867 203 764 q 488 940 382 940 q 685 813 603 940 l 694 813 l 694 926 l 810 926 l 810 145 q 755 -102 810 -10 q 485 -246 669 -246 q 271 -232 380 -246 l 271 -124 q 485 -137 393 -137 q 655 -49 600 -137 q 694 145 694 15 l 694 229 z "},"Ģ":{"ha":926,"x_min":101,"x_max":926,"o":"m 650 -288 q 466 -364 590 -364 l 466 -256 q 556 -224 530 -256 q 574 -191 568 -210 q 581 -158 580 -172 q 581 -118 581 -145 l 697 -118 q 696 -173 697 -153 q 683 -227 694 -194 q 650 -288 672 -260 m 609 1288 q 881 1268 739 1288 l 881 1159 q 609 1179 732 1179 q 366 1110 458 1179 q 242 919 274 1041 q 217 637 217 820 q 242 354 217 453 q 358 163 274 232 q 581 94 442 94 q 810 116 687 94 l 810 586 l 579 586 l 579 694 l 926 694 l 926 31 q 581 -14 737 -14 q 284 79 400 -14 q 129 329 169 172 q 101 637 101 439 q 129 944 101 834 q 293 1194 169 1101 q 609 1288 416 1288 z "},"ģ":{"ha":926,"x_min":203,"x_max":810,"o":"m 347 1137 q 349 1195 347 1174 q 361 1253 350 1217 q 394 1317 373 1289 q 579 1403 458 1403 l 579 1295 q 488 1254 519 1295 q 471 1218 477 1239 q 464 1181 465 1196 q 463 1137 463 1166 l 463 1042 l 347 1042 l 347 1137 m 395 790 q 318 521 318 719 q 395 251 318 323 q 506 210 439 210 q 618 251 573 210 q 694 521 694 323 q 618 790 694 719 q 506 832 573 832 q 395 790 439 832 m 694 229 l 685 229 q 488 101 603 101 q 307 175 382 101 q 203 521 203 278 q 307 867 203 764 q 488 940 382 940 q 685 813 603 940 l 694 813 l 694 926 l 810 926 l 810 145 q 755 -102 810 -10 q 485 -246 669 -246 q 271 -232 380 -246 l 271 -124 q 485 -137 393 -137 q 655 -49 600 -137 q 694 145 694 15 l 694 229 z "},"Ĥ":{"ha":926,"x_min":116,"x_max":926,"o":"m 449 1620 l 592 1620 l 861 1389 l 718 1389 l 521 1537 l 324 1389 l 181 1389 l 449 1620 m 116 1273 l 231 1273 l 231 687 l 810 687 l 810 1273 l 926 1273 l 926 0 l 810 0 l 810 579 l 231 579 l 231 0 l 116 0 l 116 1273 z "},"ĥ":{"ha":926,"x_min":181,"x_max":861,"o":"m 539 825 q 658 798 604 825 q 748 728 713 772 q 784 670 770 700 q 802 604 798 640 q 809 544 807 568 q 810 478 810 521 l 810 0 l 694 0 l 694 478 q 693 552 694 528 q 682 607 692 577 q 654 660 673 637 q 521 716 605 716 q 388 660 437 716 q 359 607 369 637 q 349 552 350 577 q 347 478 347 528 l 347 0 l 231 0 l 231 1042 l 347 1042 l 347 709 l 356 709 q 439 793 390 761 q 539 825 488 825 m 449 1389 l 592 1389 l 861 1157 l 718 1157 l 521 1306 l 324 1157 l 181 1157 l 449 1389 z "},"Ħ":{"ha":926,"x_min":0,"x_max":1042,"o":"m 116 1273 l 231 1273 l 231 1154 l 810 1154 l 810 1273 l 926 1273 l 926 1154 l 1042 1154 l 1042 1045 l 926 1045 l 926 0 l 810 0 l 810 580 l 231 580 l 231 0 l 116 0 l 116 1045 l 0 1045 l 0 1154 l 116 1154 l 116 1273 m 231 1045 l 231 688 l 810 688 l 810 1045 l 231 1045 z "},"ħ":{"ha":926,"x_min":116,"x_max":810,"o":"m 539 825 q 658 798 604 825 q 748 728 713 772 q 784 670 770 700 q 802 604 798 640 q 809 544 807 568 q 810 478 810 521 l 810 0 l 694 0 l 694 478 q 693 552 694 528 q 682 607 692 577 q 654 660 673 637 q 521 716 605 716 q 388 660 437 716 q 359 607 369 637 q 349 552 350 577 q 347 478 347 528 l 347 0 l 231 0 l 231 1045 l 116 1045 l 116 1154 l 231 1154 l 231 1273 l 347 1273 l 347 1154 l 694 1154 l 694 1045 l 347 1045 l 347 709 l 356 709 q 439 793 390 761 q 539 825 488 825 z "},"Ĩ":{"ha":926,"x_min":229,"x_max":813,"o":"m 405 1508 q 345 1406 350 1508 l 229 1411 q 277 1558 231 1498 q 405 1617 323 1617 q 472 1605 441 1617 q 524 1576 504 1593 q 562 1542 544 1559 q 599 1513 581 1525 q 637 1501 618 1501 q 697 1603 692 1501 l 813 1598 q 765 1453 811 1513 q 637 1393 719 1393 q 569 1404 600 1393 q 518 1433 538 1416 q 479 1468 497 1450 q 443 1496 461 1485 q 405 1508 424 1508 m 810 1273 l 810 1165 l 579 1165 l 579 109 l 810 109 l 810 0 l 231 0 l 231 109 l 463 109 l 463 1165 l 231 1165 l 231 1273 l 810 1273 z "},"ĩ":{"ha":926,"x_min":229,"x_max":813,"o":"m 405 1161 q 345 1059 350 1161 l 229 1064 q 277 1210 231 1151 q 405 1270 323 1270 q 472 1258 441 1270 q 524 1229 504 1246 q 562 1194 544 1212 q 599 1166 581 1177 q 637 1154 618 1154 q 697 1256 692 1154 l 813 1251 q 765 1105 811 1166 q 637 1045 719 1045 q 569 1057 600 1045 q 518 1086 538 1069 q 479 1120 497 1103 q 443 1149 461 1138 q 405 1161 424 1161 m 463 0 l 463 817 l 231 817 l 231 926 l 579 926 l 579 0 l 463 0 z "},"Ī":{"ha":926,"x_min":231,"x_max":810,"o":"m 231 1501 l 810 1501 l 810 1393 l 231 1393 l 231 1501 m 810 1273 l 810 1165 l 579 1165 l 579 109 l 810 109 l 810 0 l 231 0 l 231 109 l 463 109 l 463 1165 l 231 1165 l 231 1273 l 810 1273 z "},"ī":{"ha":926,"x_min":231,"x_max":810,"o":"m 231 1154 l 810 1154 l 810 1045 l 231 1045 l 231 1154 m 463 0 l 463 817 l 231 817 l 231 926 l 579 926 l 579 0 l 463 0 z "},"Ĭ":{"ha":926,"x_min":213,"x_max":828,"o":"m 713 1620 l 828 1620 q 740 1442 828 1509 q 521 1374 652 1374 q 302 1442 390 1374 q 213 1620 213 1509 l 329 1620 q 378 1521 329 1559 q 521 1483 428 1483 q 663 1521 614 1483 q 713 1620 713 1559 m 810 1273 l 810 1165 l 579 1165 l 579 109 l 810 109 l 810 0 l 231 0 l 231 109 l 463 109 l 463 1165 l 231 1165 l 231 1273 l 810 1273 z "},"ĭ":{"ha":926,"x_min":213,"x_max":828,"o":"m 713 1273 l 828 1273 q 740 1095 828 1162 q 521 1027 652 1027 q 302 1095 390 1027 q 213 1273 213 1162 l 329 1273 q 378 1174 329 1212 q 521 1136 428 1136 q 663 1174 614 1136 q 713 1273 713 1212 m 463 0 l 463 817 l 231 817 l 231 926 l 579 926 l 579 0 l 463 0 z "},"Į":{"ha":926,"x_min":231,"x_max":810,"o":"m 752 -208 q 810 -203 788 -208 l 810 -312 q 734 -316 781 -316 q 623 -274 675 -316 q 572 -167 572 -232 q 694 0 572 -74 l 231 0 l 231 109 l 463 109 l 463 1165 l 231 1165 l 231 1273 l 810 1273 l 810 1165 l 579 1165 l 579 109 l 810 109 l 810 0 q 712 -66 741 -33 q 682 -143 682 -98 q 703 -192 682 -175 q 752 -208 724 -208 z "},"į":{"ha":926,"x_min":231,"x_max":593,"o":"m 521 -208 q 579 -203 556 -208 l 579 -312 q 503 -316 549 -316 q 392 -274 443 -316 q 341 -167 341 -232 q 463 0 341 -74 l 463 817 l 231 817 l 231 926 l 579 926 l 579 0 q 480 -66 510 -33 q 450 -143 450 -98 q 472 -192 450 -175 q 521 -208 493 -208 m 419 1260 q 433 1274 419 1260 q 492 1288 447 1288 q 565 1260 537 1288 q 593 1186 593 1232 q 565 1113 593 1141 q 492 1085 537 1085 q 419 1113 447 1085 q 391 1186 391 1141 q 419 1260 391 1232 z "},"İ":{"ha":926,"x_min":231,"x_max":810,"o":"m 448 1607 q 462 1621 448 1607 q 521 1635 476 1635 q 594 1607 566 1635 q 622 1534 622 1579 q 594 1460 622 1488 q 521 1432 566 1432 q 448 1460 476 1432 q 420 1534 420 1488 q 448 1607 420 1579 m 810 1273 l 810 1165 l 579 1165 l 579 109 l 810 109 l 810 0 l 231 0 l 231 109 l 463 109 l 463 1165 l 231 1165 l 231 1273 l 810 1273 z "},"ı":{"ha":926,"x_min":231,"x_max":579,"o":"m 463 0 l 463 817 l 231 817 l 231 926 l 579 926 l 579 0 l 463 0 z "},"Ĳ":{"ha":926,"x_min":116,"x_max":926,"o":"m 810 232 l 810 1157 l 926 1157 l 926 232 q 925 126 926 165 q 915 36 923 88 q 890 -56 906 -16 q 783 -193 854 -140 q 608 -245 712 -245 q 347 -223 519 -245 l 347 -114 q 601 -137 505 -137 q 781 -18 729 -137 q 802 59 795 13 q 809 138 808 105 q 810 232 810 171 m 463 1157 l 463 1049 l 347 1049 l 347 109 l 463 109 l 463 0 l 116 0 l 116 109 l 231 109 l 231 1049 l 116 1049 l 116 1157 l 463 1157 z "},"ĳ":{"ha":926,"x_min":116,"x_max":825,"o":"m 347 -124 q 521 -137 440 -137 q 656 -81 609 -137 q 683 -28 674 -59 q 693 28 692 4 q 694 103 694 52 l 694 817 l 579 817 l 579 926 l 810 926 l 810 94 q 808 8 810 39 q 792 -68 806 -23 q 749 -148 778 -114 q 530 -246 668 -246 q 347 -232 438 -246 l 347 -124 m 650 1260 q 664 1274 650 1260 q 723 1288 678 1288 q 797 1260 769 1288 q 825 1186 825 1232 q 797 1113 825 1141 q 723 1085 769 1085 q 650 1113 678 1085 q 622 1186 622 1141 q 650 1260 622 1232 m 187 1260 q 201 1274 187 1260 q 260 1288 215 1288 q 334 1260 306 1288 q 362 1186 362 1232 q 334 1113 362 1141 q 260 1085 306 1085 q 187 1113 215 1085 q 159 1186 159 1141 q 187 1260 159 1232 m 231 0 l 231 817 l 116 817 l 116 926 l 347 926 l 347 0 l 231 0 z "},"Ĵ":{"ha":926,"x_min":137,"x_max":926,"o":"m 449 1620 l 592 1620 l 861 1389 l 718 1389 l 521 1537 l 324 1389 l 181 1389 l 449 1620 m 810 1165 l 231 1165 l 231 1273 l 926 1273 l 926 453 q 924 378 926 406 q 915 303 922 350 q 888 213 908 256 q 837 130 869 170 q 701 27 787 65 q 511 -11 616 -11 q 303 29 399 -11 q 137 132 208 70 l 203 218 q 511 98 344 98 q 648 124 587 98 q 745 196 709 150 q 791 283 776 234 q 808 363 806 332 q 810 453 810 395 l 810 1165 z "},"ĵ":{"ha":926,"x_min":156,"x_max":977,"o":"m 565 1273 l 708 1273 l 977 1042 l 834 1042 l 637 1190 l 439 1042 l 297 1042 l 565 1273 m 579 145 l 579 817 l 347 817 l 347 926 l 694 926 l 694 145 q 639 -102 694 -10 q 369 -246 553 -246 q 156 -232 264 -246 l 156 -124 q 369 -137 278 -137 q 539 -49 484 -137 q 579 145 579 15 z "},"Ķ":{"ha":926,"x_min":116,"x_max":960,"o":"m 532 -285 q 347 -362 471 -362 l 347 -253 q 438 -222 411 -253 q 455 -188 449 -207 q 462 -156 461 -169 q 463 -116 463 -142 l 579 -116 q 577 -170 579 -150 q 565 -224 576 -191 q 532 -285 553 -257 m 231 0 l 116 0 l 116 1273 l 231 1273 l 231 650 l 751 1273 l 876 1273 l 435 735 l 960 0 l 818 0 l 358 652 l 231 505 l 231 0 z "},"ķ":{"ha":926,"x_min":231,"x_max":906,"o":"m 532 -285 q 347 -362 471 -362 l 347 -253 q 438 -222 411 -253 q 455 -188 449 -207 q 462 -156 461 -169 q 463 -116 463 -142 l 579 -116 q 577 -170 579 -150 q 565 -224 576 -191 q 532 -285 553 -257 m 347 0 l 231 0 l 231 1273 l 347 1273 l 347 544 l 718 926 l 864 926 l 535 583 l 906 0 l 765 0 l 460 506 l 347 393 l 347 0 z "},"ĸ":{"ha":926,"x_min":231,"x_max":906,"o":"m 347 0 l 231 0 l 231 926 l 347 926 l 347 549 l 709 926 l 864 926 l 535 583 l 906 0 l 765 0 l 460 506 l 347 393 l 347 0 z "},"Ĺ":{"ha":926,"x_min":210,"x_max":926,"o":"m 210 1389 l 360 1620 l 485 1620 l 335 1389 l 210 1389 m 231 0 l 231 1273 l 347 1273 l 347 109 l 926 109 l 926 0 l 231 0 z "},"ĺ":{"ha":926,"x_min":441,"x_max":810,"o":"m 441 1389 l 591 1620 l 716 1620 l 566 1389 l 441 1389 m 810 -10 q 685 -14 724 -14 q 529 47 589 -14 q 483 121 498 79 q 465 188 467 163 q 463 252 463 212 l 463 1273 l 579 1273 l 579 252 q 580 209 579 224 q 586 172 581 194 q 604 134 592 150 q 694 94 634 94 q 810 99 756 94 l 810 -10 z "},"Ļ":{"ha":926,"x_min":231,"x_max":926,"o":"m 647 -285 q 463 -362 587 -362 l 463 -253 q 553 -222 527 -253 q 571 -188 565 -207 q 578 -156 577 -169 q 579 -116 579 -142 l 694 -116 q 693 -170 694 -150 q 680 -224 692 -191 q 647 -285 669 -257 m 231 0 l 231 1273 l 347 1273 l 347 109 l 926 109 l 926 0 l 231 0 z "},"ļ":{"ha":926,"x_min":463,"x_max":810,"o":"m 647 -285 q 463 -362 587 -362 l 463 -253 q 553 -222 527 -253 q 571 -188 565 -207 q 578 -156 577 -169 q 579 -116 579 -142 l 694 -116 q 693 -170 694 -150 q 680 -224 692 -191 q 647 -285 669 -257 m 810 -10 q 685 -14 724 -14 q 529 47 589 -14 q 483 121 498 79 q 465 188 467 163 q 463 252 463 212 l 463 1273 l 579 1273 l 579 252 q 580 209 579 224 q 586 172 581 194 q 604 134 592 150 q 694 94 634 94 q 810 99 756 94 l 810 -10 z "},"Ľ":{"ha":926,"x_min":231,"x_max":926,"o":"m 231 0 l 231 1273 l 347 1273 l 347 109 l 926 109 l 926 0 l 231 0 m 694 1273 l 810 1273 l 810 926 l 694 926 l 694 1273 z "},"ľ":{"ha":926,"x_min":347,"x_max":810,"o":"m 694 -10 q 570 -14 609 -14 q 413 47 473 -14 q 367 121 382 79 q 349 188 352 163 q 347 252 347 212 l 347 1273 l 463 1273 l 463 252 q 464 209 463 224 q 471 172 465 194 q 488 134 477 150 q 579 94 518 94 q 694 99 640 94 l 694 -10 m 694 1273 l 810 1273 l 810 926 l 694 926 l 694 1273 z "},"Ŀ":{"ha":926,"x_min":231,"x_max":926,"o":"m 563 826 q 577 840 563 826 q 637 854 591 854 q 710 826 682 854 q 738 752 738 798 q 710 679 738 707 q 637 651 682 651 q 563 679 591 651 q 535 752 535 707 q 563 826 535 798 m 231 0 l 231 1273 l 347 1273 l 347 109 l 926 109 l 926 0 l 231 0 z "},"ŀ":{"ha":926,"x_min":347,"x_max":854,"o":"m 694 -10 q 570 -14 609 -14 q 413 47 473 -14 q 367 121 382 79 q 349 188 352 163 q 347 252 347 212 l 347 1273 l 463 1273 l 463 252 q 464 209 463 224 q 471 172 465 194 q 488 134 477 150 q 579 94 518 94 q 694 99 640 94 l 694 -10 m 679 826 q 693 840 679 826 q 752 854 707 854 q 826 826 798 854 q 854 752 854 798 q 826 679 854 707 q 752 651 798 651 q 679 679 707 651 q 651 752 651 707 q 679 826 651 798 z "},"Ł":{"ha":926,"x_min":85,"x_max":926,"o":"m 85 422 l 347 609 l 347 1273 l 463 1273 l 463 692 l 662 834 l 730 746 l 463 555 l 463 109 l 926 109 l 926 0 l 347 0 l 347 473 l 148 331 l 85 422 z "},"ł":{"ha":926,"x_min":201,"x_max":845,"o":"m 463 609 l 463 1273 l 579 1273 l 579 692 l 778 834 l 845 746 l 579 555 l 579 252 q 580 209 579 224 q 586 172 581 194 q 604 134 592 150 q 694 94 634 94 q 810 109 732 94 l 810 -2 q 685 -14 732 -14 q 529 47 589 -14 q 483 121 498 79 q 465 188 467 163 q 463 252 463 212 l 463 473 l 264 331 l 201 422 l 463 609 z "},"Ń":{"ha":926,"x_min":116,"x_max":926,"o":"m 441 1389 l 591 1620 l 716 1620 l 566 1389 l 441 1389 m 231 0 l 116 0 l 116 1273 l 231 1273 l 801 226 l 810 226 l 810 1273 l 926 1273 l 926 0 l 810 0 l 241 1047 l 231 1047 l 231 0 z "},"ń":{"ha":926,"x_min":231,"x_max":810,"o":"m 441 1042 l 591 1273 l 716 1273 l 566 1042 l 441 1042 m 539 940 q 658 914 604 940 q 748 844 713 888 q 784 786 770 816 q 802 720 798 756 q 809 660 807 684 q 810 594 810 637 l 810 0 l 694 0 l 694 594 q 693 668 694 644 q 682 723 692 693 q 654 776 673 753 q 521 832 605 832 q 388 776 437 832 q 359 723 369 753 q 349 668 350 693 q 347 594 347 644 l 347 0 l 231 0 l 231 926 l 347 926 l 347 825 l 356 825 q 439 909 390 877 q 539 940 488 940 z "},"Ņ":{"ha":926,"x_min":116,"x_max":926,"o":"m 532 -285 q 347 -362 471 -362 l 347 -253 q 438 -222 411 -253 q 455 -188 449 -207 q 462 -156 461 -169 q 463 -116 463 -142 l 579 -116 q 577 -170 579 -150 q 565 -224 576 -191 q 532 -285 553 -257 m 231 0 l 116 0 l 116 1273 l 231 1273 l 801 226 l 810 226 l 810 1273 l 926 1273 l 926 0 l 810 0 l 241 1047 l 231 1047 l 231 0 z "},"ņ":{"ha":926,"x_min":231,"x_max":810,"o":"m 532 -285 q 347 -362 471 -362 l 347 -253 q 438 -222 411 -253 q 455 -188 449 -207 q 462 -156 461 -169 q 463 -116 463 -142 l 579 -116 q 577 -170 579 -150 q 565 -224 576 -191 q 532 -285 553 -257 m 539 940 q 658 914 604 940 q 748 844 713 888 q 784 786 770 816 q 802 720 798 756 q 809 660 807 684 q 810 594 810 637 l 810 0 l 694 0 l 694 594 q 693 668 694 644 q 682 723 692 693 q 654 776 673 753 q 521 832 605 832 q 388 776 437 832 q 359 723 369 753 q 349 668 350 693 q 347 594 347 644 l 347 0 l 231 0 l 231 926 l 347 926 l 347 825 l 356 825 q 439 909 390 877 q 539 940 488 940 z "},"Ň":{"ha":926,"x_min":116,"x_max":926,"o":"m 449 1389 l 181 1620 l 324 1620 l 521 1472 l 718 1620 l 861 1620 l 592 1389 l 449 1389 m 231 0 l 116 0 l 116 1273 l 231 1273 l 801 226 l 810 226 l 810 1273 l 926 1273 l 926 0 l 810 0 l 241 1047 l 231 1047 l 231 0 z "},"ň":{"ha":926,"x_min":181,"x_max":861,"o":"m 449 1042 l 181 1273 l 324 1273 l 521 1125 l 718 1273 l 861 1273 l 592 1042 l 449 1042 m 539 940 q 658 914 604 940 q 748 844 713 888 q 784 786 770 816 q 802 720 798 756 q 809 660 807 684 q 810 594 810 637 l 810 0 l 694 0 l 694 594 q 693 668 694 644 q 682 723 692 693 q 654 776 673 753 q 521 832 605 832 q 388 776 437 832 q 359 723 369 753 q 349 668 350 693 q 347 594 347 644 l 347 0 l 231 0 l 231 926 l 347 926 l 347 825 l 356 825 q 439 909 390 877 q 539 940 488 940 z "},"ŉ":{"ha":926,"x_min":231,"x_max":810,"o":"m 539 940 q 658 914 604 940 q 748 844 713 888 q 784 786 770 816 q 802 720 798 756 q 809 660 807 684 q 810 594 810 637 l 810 0 l 694 0 l 694 594 q 693 668 694 644 q 682 723 692 693 q 654 776 673 753 q 521 832 605 832 q 388 776 437 832 q 359 723 369 753 q 349 668 350 693 q 347 594 347 644 l 347 0 l 231 0 l 231 926 l 347 926 l 347 825 l 356 825 q 439 909 390 877 q 539 940 488 940 z "},"Ŋ":{"ha":926,"x_min":116,"x_max":926,"o":"m 231 0 l 116 0 l 116 1273 l 231 1273 l 801 235 l 810 235 l 810 1273 l 926 1273 q 926 -22 926 1273 q 924 -107 926 -77 q 908 -184 922 -137 q 864 -264 893 -230 q 646 -362 784 -362 q 463 -330 558 -362 l 463 -214 q 637 -253 561 -253 q 771 -197 724 -253 q 798 -143 789 -175 q 809 -88 807 -112 q 810 -13 810 -63 l 810 0 l 241 1038 l 231 1038 l 231 0 z "},"ŋ":{"ha":926,"x_min":231,"x_max":810,"o":"m 539 940 q 658 914 604 940 q 748 844 713 888 q 784 786 770 816 q 802 720 798 756 q 809 660 807 684 q 810 594 810 637 l 810 21 q 809 -38 810 -16 q 796 -95 807 -60 q 763 -160 785 -131 q 579 -246 700 -246 q 463 -235 514 -246 l 463 -127 q 579 -137 510 -137 q 669 -97 638 -137 q 687 -60 681 -81 q 694 -24 693 -39 q 694 21 694 -9 l 694 594 q 693 668 694 644 q 682 723 692 693 q 654 776 673 753 q 521 832 605 832 q 388 776 437 832 q 359 723 369 753 q 349 668 350 693 q 347 594 347 644 l 347 0 l 231 0 l 231 926 l 347 926 l 347 825 l 356 825 q 439 909 390 877 q 539 940 488 940 z "},"Ō":{"ha":926,"x_min":101,"x_max":940,"o":"m 231 1501 l 810 1501 l 810 1393 l 231 1393 l 231 1501 m 240 928 q 217 637 217 829 q 240 345 217 444 q 337 165 267 235 q 521 94 407 94 q 705 165 635 94 q 802 345 775 235 q 825 637 825 444 q 802 928 825 829 q 705 1109 775 1038 q 521 1179 635 1179 q 337 1109 407 1179 q 240 928 267 1038 m 127 321 q 101 637 101 421 q 127 952 101 852 q 263 1193 163 1099 q 521 1288 363 1288 q 779 1193 678 1288 q 915 952 879 1099 q 940 637 940 852 q 915 321 940 421 q 779 80 879 175 q 521 -14 678 -14 q 263 80 363 -14 q 127 321 163 175 z "},"ō":{"ha":926,"x_min":203,"x_max":839,"o":"m 231 1154 l 810 1154 l 810 1045 l 231 1045 l 231 1154 m 370 902 q 404 921 370 902 q 521 940 437 940 q 671 902 605 940 q 780 796 738 864 q 827 659 816 738 q 839 463 839 580 q 827 267 839 346 q 780 130 816 188 q 671 24 738 62 q 521 -14 605 -14 q 370 24 437 -14 q 261 130 304 62 q 214 267 226 188 q 203 463 203 346 q 214 659 203 580 q 261 796 226 738 q 370 902 304 864 m 680 743 q 521 832 628 832 q 362 743 414 832 q 332 660 342 710 q 320 570 322 609 q 318 463 318 530 q 320 356 318 396 q 332 266 322 316 q 362 183 342 216 q 521 94 414 94 q 680 183 628 94 q 710 266 700 216 q 722 356 720 316 q 723 463 723 396 q 722 570 723 530 q 710 660 720 609 q 680 743 700 710 z "},"Ŏ":{"ha":926,"x_min":101,"x_max":940,"o":"m 713 1620 l 828 1620 q 740 1442 828 1509 q 521 1374 652 1374 q 302 1442 390 1374 q 213 1620 213 1509 l 329 1620 q 378 1521 329 1559 q 521 1483 428 1483 q 663 1521 614 1483 q 713 1620 713 1559 m 240 928 q 217 637 217 829 q 240 345 217 444 q 337 165 267 235 q 521 94 407 94 q 705 165 635 94 q 802 345 775 235 q 825 637 825 444 q 802 928 825 829 q 705 1109 775 1038 q 521 1179 635 1179 q 337 1109 407 1179 q 240 928 267 1038 m 127 321 q 101 637 101 421 q 127 952 101 852 q 263 1193 163 1099 q 521 1288 363 1288 q 779 1193 678 1288 q 915 952 879 1099 q 940 637 940 852 q 915 321 940 421 q 779 80 879 175 q 521 -14 678 -14 q 263 80 363 -14 q 127 321 163 175 z "},"ŏ":{"ha":926,"x_min":203,"x_max":839,"o":"m 713 1273 l 828 1273 q 740 1095 828 1162 q 521 1027 652 1027 q 302 1095 390 1027 q 213 1273 213 1162 l 329 1273 q 378 1174 329 1212 q 521 1136 428 1136 q 663 1174 614 1136 q 713 1273 713 1212 m 370 902 q 404 921 370 902 q 521 940 437 940 q 671 902 605 940 q 780 796 738 864 q 827 659 816 738 q 839 463 839 580 q 827 267 839 346 q 780 130 816 188 q 671 24 738 62 q 521 -14 605 -14 q 370 24 437 -14 q 261 130 304 62 q 214 267 226 188 q 203 463 203 346 q 214 659 203 580 q 261 796 226 738 q 370 902 304 864 m 680 743 q 521 832 628 832 q 362 743 414 832 q 332 660 342 710 q 320 570 322 609 q 318 463 318 530 q 320 356 318 396 q 332 266 322 316 q 362 183 342 216 q 521 94 414 94 q 680 183 628 94 q 710 266 700 216 q 722 356 720 316 q 723 463 723 396 q 722 570 723 530 q 710 660 720 609 q 680 743 700 710 z "},"Ő":{"ha":926,"x_min":101,"x_max":940,"o":"m 615 1389 l 765 1620 l 890 1620 l 740 1389 l 615 1389 m 268 1389 l 418 1620 l 543 1620 l 392 1389 l 268 1389 m 240 928 q 217 637 217 829 q 240 345 217 444 q 337 165 267 235 q 521 94 407 94 q 705 165 635 94 q 802 345 775 235 q 825 637 825 444 q 802 928 825 829 q 705 1109 775 1038 q 521 1179 635 1179 q 337 1109 407 1179 q 240 928 267 1038 m 127 321 q 101 637 101 421 q 127 952 101 852 q 263 1193 163 1099 q 521 1288 363 1288 q 779 1193 678 1288 q 915 952 879 1099 q 940 637 940 852 q 915 321 940 421 q 779 80 879 175 q 521 -14 678 -14 q 263 80 363 -14 q 127 321 163 175 z "},"ő":{"ha":926,"x_min":203,"x_max":890,"o":"m 615 1042 l 765 1273 l 890 1273 l 740 1042 l 615 1042 m 268 1042 l 418 1273 l 543 1273 l 392 1042 l 268 1042 m 370 902 q 404 921 370 902 q 521 940 437 940 q 671 902 605 940 q 780 796 738 864 q 827 659 816 738 q 839 463 839 580 q 827 267 839 346 q 780 130 816 188 q 671 24 738 62 q 521 -14 605 -14 q 370 24 437 -14 q 261 130 304 62 q 214 267 226 188 q 203 463 203 346 q 214 659 203 580 q 261 796 226 738 q 370 902 304 864 m 680 743 q 521 832 628 832 q 362 743 414 832 q 332 660 342 710 q 320 570 322 609 q 318 463 318 530 q 320 356 318 396 q 332 266 322 316 q 362 183 342 216 q 521 94 414 94 q 680 183 628 94 q 710 266 700 216 q 722 356 720 316 q 723 463 723 396 q 722 570 723 530 q 710 660 720 609 q 680 743 700 710 z "},"Œ":{"ha":926,"x_min":101,"x_max":926,"o":"m 579 1165 q 463 1165 579 1165 q 323 1121 373 1165 q 251 996 273 1078 q 217 637 217 869 q 251 278 217 404 q 323 152 273 195 q 463 109 373 109 l 579 109 l 579 1165 m 122 328 q 111 395 122 328 q 101 637 101 462 q 122 945 101 811 q 203 1159 142 1080 q 463 1273 291 1273 l 926 1273 l 926 1165 l 694 1165 l 694 691 l 926 691 l 926 582 l 694 582 l 694 109 l 926 109 l 926 0 l 463 0 q 203 114 291 0 q 122 328 142 194 z "},"œ":{"ha":926,"x_min":87,"x_max":953,"o":"m 263 137 q 333 94 296 94 q 402 137 370 94 q 451 267 439 185 q 463 463 463 348 q 452 660 463 580 q 402 789 440 741 q 333 832 370 832 q 263 789 296 832 q 214 659 226 741 q 203 463 203 578 q 214 266 203 346 q 263 137 225 185 m 333 940 q 517 780 467 940 l 526 780 q 714 940 591 940 q 858 877 801 940 q 936 725 914 814 q 953 522 953 656 l 953 463 l 579 463 l 579 424 q 581 343 579 377 q 588 267 582 308 q 605 197 593 225 q 636 144 618 169 q 684 107 654 119 q 752 94 713 94 q 926 106 780 94 l 926 -3 q 750 -14 803 -14 q 528 134 596 -14 l 519 134 q 451 27 497 68 q 333 -14 405 -14 q 228 18 276 -14 q 163 81 190 43 q 122 159 137 119 q 99 253 108 198 q 89 354 91 308 q 87 463 87 399 q 89 572 87 527 q 99 673 91 618 q 122 767 108 728 q 163 845 137 807 q 228 908 190 883 q 333 940 276 940 m 838 571 q 791 789 835 733 q 714 832 758 832 q 640 793 669 832 q 595 699 610 755 q 580 571 581 648 l 838 571 z "},"Ŕ":{"ha":926,"x_min":231,"x_max":963,"o":"m 441 1389 l 591 1620 l 716 1620 l 566 1389 l 441 1389 m 798 742 q 812 772 798 742 q 825 872 825 801 q 798 1001 825 942 q 728 1099 772 1061 q 670 1137 701 1122 q 602 1157 638 1151 q 543 1163 566 1162 q 482 1165 521 1165 l 347 1165 l 347 579 l 482 579 q 564 581 533 579 q 644 599 596 583 q 728 645 693 615 q 798 742 772 683 m 482 1273 q 555 1271 526 1273 q 632 1262 583 1270 q 724 1233 680 1254 q 806 1178 768 1212 q 940 872 940 1059 q 806 565 940 684 q 735 517 774 537 l 963 0 l 840 0 l 626 480 q 482 470 571 470 l 347 470 l 347 0 l 231 0 l 231 1273 l 482 1273 z "},"ŕ":{"ha":926,"x_min":231,"x_max":810,"o":"m 441 1042 l 591 1273 l 716 1273 l 566 1042 l 441 1042 m 647 832 q 453 766 524 832 q 392 690 416 732 q 360 597 369 648 q 349 515 351 546 q 347 430 347 483 l 347 0 l 231 0 l 231 926 l 347 926 l 347 782 l 356 782 q 481 899 412 858 q 647 940 549 940 q 810 929 714 940 l 810 820 q 647 832 714 832 z "},"Ŗ":{"ha":926,"x_min":231,"x_max":963,"o":"m 647 -285 q 463 -362 587 -362 l 463 -253 q 553 -222 527 -253 q 571 -188 565 -207 q 578 -156 577 -169 q 579 -116 579 -142 l 694 -116 q 693 -170 694 -150 q 680 -224 692 -191 q 647 -285 669 -257 m 798 742 q 812 772 798 742 q 825 872 825 801 q 798 1001 825 942 q 728 1099 772 1061 q 670 1137 701 1122 q 602 1157 638 1151 q 543 1163 566 1162 q 482 1165 521 1165 l 347 1165 l 347 579 l 482 579 q 564 581 533 579 q 644 599 596 583 q 728 645 693 615 q 798 742 772 683 m 482 1273 q 555 1271 526 1273 q 632 1262 583 1270 q 724 1233 680 1254 q 806 1178 768 1212 q 940 872 940 1059 q 806 565 940 684 q 735 517 774 537 l 963 0 l 840 0 l 626 480 q 482 470 571 470 l 347 470 l 347 0 l 231 0 l 231 1273 l 482 1273 z "},"ŗ":{"ha":926,"x_min":231,"x_max":810,"o":"m 416 -285 q 231 -362 355 -362 l 231 -253 q 322 -222 296 -253 q 340 -188 334 -207 q 346 -156 345 -169 q 347 -116 347 -142 l 463 -116 q 462 -170 463 -150 q 449 -224 460 -191 q 416 -285 438 -257 m 647 832 q 453 766 524 832 q 392 690 416 732 q 360 597 369 648 q 349 515 351 546 q 347 430 347 483 l 347 0 l 231 0 l 231 926 l 347 926 l 347 782 l 356 782 q 481 899 412 858 q 647 940 549 940 q 810 929 714 940 l 810 820 q 647 832 714 832 z "},"Ř":{"ha":926,"x_min":181,"x_max":963,"o":"m 449 1389 l 181 1620 l 324 1620 l 521 1472 l 718 1620 l 861 1620 l 592 1389 l 449 1389 m 798 742 q 812 772 798 742 q 825 872 825 801 q 798 1001 825 942 q 728 1099 772 1061 q 670 1137 701 1122 q 602 1157 638 1151 q 543 1163 566 1162 q 482 1165 521 1165 l 347 1165 l 347 579 l 482 579 q 564 581 533 579 q 644 599 596 583 q 728 645 693 615 q 798 742 772 683 m 482 1273 q 555 1271 526 1273 q 632 1262 583 1270 q 724 1233 680 1254 q 806 1178 768 1212 q 940 872 940 1059 q 806 565 940 684 q 735 517 774 537 l 963 0 l 840 0 l 626 480 q 482 470 571 470 l 347 470 l 347 0 l 231 0 l 231 1273 l 482 1273 z "},"ř":{"ha":926,"x_min":181,"x_max":861,"o":"m 449 1042 l 181 1273 l 324 1273 l 521 1125 l 718 1273 l 861 1273 l 592 1042 l 449 1042 m 647 832 q 453 766 524 832 q 392 690 416 732 q 360 597 369 648 q 349 515 351 546 q 347 430 347 483 l 347 0 l 231 0 l 231 926 l 347 926 l 347 782 l 356 782 q 481 899 412 858 q 647 940 549 940 q 810 929 714 940 l 810 820 q 647 832 714 832 z "},"Ś":{"ha":926,"x_min":204,"x_max":953,"o":"m 441 1389 l 591 1620 l 716 1620 l 566 1389 l 441 1389 m 561 -14 q 226 14 412 -14 l 226 126 q 561 94 427 94 q 763 163 688 94 q 837 348 837 231 q 807 468 837 414 q 723 554 777 523 q 571 596 676 581 q 420 628 467 611 q 263 746 322 664 q 204 945 204 827 q 304 1190 204 1093 q 561 1288 403 1288 q 895 1265 683 1288 l 895 1156 q 561 1179 675 1179 q 386 1113 451 1179 q 320 945 320 1046 q 351 821 320 873 q 436 741 382 768 q 594 703 477 719 q 769 656 711 686 q 903 530 853 611 q 953 348 953 448 q 845 86 953 186 q 561 -14 736 -14 z "},"ś":{"ha":926,"x_min":212,"x_max":839,"o":"m 441 1042 l 591 1273 l 716 1273 l 566 1042 l 441 1042 m 513 -14 q 231 5 409 -14 l 231 114 q 513 94 401 94 q 600 106 562 94 q 661 138 637 118 q 698 183 684 157 q 718 231 713 208 q 723 279 723 255 q 699 372 723 332 q 633 432 674 411 q 501 462 593 453 q 363 488 409 470 q 256 569 300 513 q 212 702 212 625 q 291 871 212 802 q 517 940 370 940 q 801 921 618 940 l 801 813 q 517 832 616 832 q 372 793 417 832 q 327 702 327 755 q 350 632 327 661 q 407 590 373 603 q 538 566 441 576 q 689 528 635 556 q 798 428 756 494 q 839 279 839 363 q 818 170 839 222 q 759 77 798 118 q 656 10 720 35 q 513 -14 592 -14 z "},"Ŝ":{"ha":926,"x_min":181,"x_max":953,"o":"m 449 1620 l 592 1620 l 861 1389 l 718 1389 l 521 1537 l 324 1389 l 181 1389 l 449 1620 m 561 -14 q 226 14 412 -14 l 226 126 q 561 94 427 94 q 763 163 688 94 q 837 348 837 231 q 807 468 837 414 q 723 554 777 523 q 571 596 676 581 q 420 628 467 611 q 263 746 322 664 q 204 945 204 827 q 304 1190 204 1093 q 561 1288 403 1288 q 895 1265 683 1288 l 895 1156 q 561 1179 675 1179 q 386 1113 451 1179 q 320 945 320 1046 q 351 821 320 873 q 436 741 382 768 q 594 703 477 719 q 769 656 711 686 q 903 530 853 611 q 953 348 953 448 q 845 86 953 186 q 561 -14 736 -14 z "},"ŝ":{"ha":926,"x_min":181,"x_max":861,"o":"m 449 1273 l 592 1273 l 861 1042 l 718 1042 l 521 1190 l 324 1042 l 181 1042 l 449 1273 m 513 -14 q 231 5 409 -14 l 231 114 q 513 94 401 94 q 600 106 562 94 q 661 138 637 118 q 698 183 684 157 q 718 231 713 208 q 723 279 723 255 q 699 372 723 332 q 633 432 674 411 q 501 462 593 453 q 363 488 409 470 q 256 569 300 513 q 212 702 212 625 q 291 871 212 802 q 517 940 370 940 q 801 921 618 940 l 801 813 q 517 832 616 832 q 372 793 417 832 q 327 702 327 755 q 350 632 327 661 q 407 590 373 603 q 538 566 441 576 q 689 528 635 556 q 798 428 756 494 q 839 279 839 363 q 818 170 839 222 q 759 77 798 118 q 656 10 720 35 q 513 -14 592 -14 z "},"Ş":{"ha":926,"x_min":204,"x_max":953,"o":"m 561 -14 q 226 14 412 -14 l 226 126 q 561 94 427 94 q 763 163 688 94 q 837 348 837 231 q 807 468 837 414 q 723 554 777 523 q 571 596 676 581 q 420 628 467 611 q 263 746 322 664 q 204 945 204 827 q 304 1190 204 1093 q 561 1288 403 1288 q 895 1265 683 1288 l 895 1156 q 561 1179 675 1179 q 386 1113 451 1179 q 320 945 320 1046 q 351 821 320 873 q 436 741 382 768 q 594 703 477 719 q 769 656 711 686 q 903 530 853 611 q 953 348 953 448 q 883 129 953 221 q 694 4 814 38 q 647 -161 694 -98 q 463 -247 584 -247 q 347 -231 420 -247 l 347 -120 q 463 -138 426 -138 q 553 -98 523 -138 q 579 -14 577 -67 l 561 -14 z "},"ş":{"ha":926,"x_min":212,"x_max":839,"o":"m 513 -14 q 231 5 409 -14 l 231 114 q 513 94 401 94 q 600 106 562 94 q 661 138 637 118 q 698 183 684 157 q 718 231 713 208 q 723 279 723 255 q 699 372 723 332 q 633 432 674 411 q 501 462 593 453 q 363 488 409 470 q 256 569 300 513 q 212 702 212 625 q 291 871 212 802 q 517 940 370 940 q 801 921 618 940 l 801 813 q 517 832 616 832 q 372 793 417 832 q 327 702 327 755 q 350 632 327 661 q 407 590 373 603 q 538 566 441 576 q 689 528 635 556 q 798 428 756 494 q 839 279 839 363 q 802 135 839 202 q 694 28 765 68 q 693 -34 694 -11 q 680 -94 692 -57 q 647 -161 669 -131 q 463 -247 584 -247 q 347 -231 420 -247 l 347 -120 q 463 -138 426 -138 q 553 -98 523 -138 q 579 -10 577 -66 q 513 -14 544 -14 z "},"Š":{"ha":926,"x_min":181,"x_max":953,"o":"m 449 1389 l 181 1620 l 324 1620 l 521 1472 l 718 1620 l 861 1620 l 592 1389 l 449 1389 m 561 -14 q 226 14 412 -14 l 226 126 q 561 94 427 94 q 763 163 688 94 q 837 348 837 231 q 807 468 837 414 q 723 554 777 523 q 571 596 676 581 q 420 628 467 611 q 263 746 322 664 q 204 945 204 827 q 304 1190 204 1093 q 561 1288 403 1288 q 895 1265 683 1288 l 895 1156 q 561 1179 675 1179 q 386 1113 451 1179 q 320 945 320 1046 q 351 821 320 873 q 436 741 382 768 q 594 703 477 719 q 769 656 711 686 q 903 530 853 611 q 953 348 953 448 q 845 86 953 186 q 561 -14 736 -14 z "},"š":{"ha":926,"x_min":181,"x_max":861,"o":"m 449 1042 l 181 1273 l 324 1273 l 521 1125 l 718 1273 l 861 1273 l 592 1042 l 449 1042 m 513 -14 q 231 5 409 -14 l 231 114 q 513 94 401 94 q 600 106 562 94 q 661 138 637 118 q 698 183 684 157 q 718 231 713 208 q 723 279 723 255 q 699 372 723 332 q 633 432 674 411 q 501 462 593 453 q 363 488 409 470 q 256 569 300 513 q 212 702 212 625 q 291 871 212 802 q 517 940 370 940 q 801 921 618 940 l 801 813 q 517 832 616 832 q 372 793 417 832 q 327 702 327 755 q 350 632 327 661 q 407 590 373 603 q 538 566 441 576 q 689 528 635 556 q 798 428 756 494 q 839 279 839 363 q 818 170 839 222 q 759 77 798 118 q 656 10 720 35 q 513 -14 592 -14 z "},"Ţ":{"ha":926,"x_min":116,"x_max":926,"o":"m 579 21 q 577 -38 579 -16 q 565 -95 576 -60 q 532 -160 553 -131 q 347 -246 468 -246 q 231 -240 306 -246 l 231 -131 q 347 -137 307 -137 q 438 -97 407 -137 q 455 -60 449 -81 q 462 -24 461 -39 q 463 21 463 -9 l 463 1165 l 116 1165 l 116 1273 l 926 1273 l 926 1165 l 579 1165 l 579 21 z "},"ţ":{"ha":926,"x_min":116,"x_max":810,"o":"m 579 -10 q 409 83 471 7 q 365 164 380 118 q 349 241 351 210 q 347 326 347 271 l 347 812 l 116 812 l 116 926 l 347 926 l 347 1157 l 463 1157 l 463 926 l 810 926 l 810 812 l 463 812 l 463 335 q 464 260 463 285 q 475 204 466 236 q 502 150 484 173 q 646 94 549 94 q 810 108 710 94 l 810 -1 q 694 -13 763 -8 q 647 -161 691 -103 q 463 -247 584 -247 q 347 -231 420 -247 l 347 -120 q 463 -138 426 -138 q 553 -98 523 -138 q 579 -10 577 -66 z "},"Ť":{"ha":926,"x_min":116,"x_max":926,"o":"m 449 1389 l 181 1620 l 324 1620 l 521 1472 l 718 1620 l 861 1620 l 592 1389 l 449 1389 m 926 1273 l 926 1165 l 579 1165 l 579 0 l 463 0 l 463 1165 l 116 1165 l 116 1273 l 926 1273 z "},"ť":{"ha":926,"x_min":116,"x_max":810,"o":"m 810 -1 q 637 -14 713 -14 q 505 12 564 -14 q 409 83 446 38 q 365 164 380 118 q 349 241 351 210 q 347 326 347 271 l 347 696 l 116 696 l 116 810 l 347 810 l 347 1157 l 463 1157 l 463 810 l 810 810 l 810 696 l 463 696 l 463 335 q 464 260 463 285 q 475 204 466 236 q 502 150 484 173 q 646 94 549 94 q 810 108 710 94 l 810 -1 m 694 1389 l 810 1389 l 810 1042 l 694 1042 l 694 1389 z "},"Ŧ":{"ha":926,"x_min":116,"x_max":926,"o":"m 926 1273 l 926 1165 l 579 1165 l 579 691 l 810 691 l 810 582 l 579 582 l 579 0 l 463 0 l 463 582 l 231 582 l 231 691 l 463 691 l 463 1165 l 116 1165 l 116 1273 l 926 1273 z "},"ŧ":{"ha":926,"x_min":116,"x_max":810,"o":"m 810 -1 q 637 -14 713 -14 q 505 12 564 -14 q 409 83 446 38 q 365 164 380 118 q 349 241 351 210 q 347 326 347 271 l 347 470 l 116 470 l 116 579 l 347 579 l 347 812 l 116 812 l 116 926 l 347 926 l 347 1157 l 463 1157 l 463 926 l 810 926 l 810 812 l 463 812 l 463 579 l 810 579 l 810 470 l 463 470 l 463 335 q 464 260 463 285 q 475 204 466 236 q 502 150 484 173 q 646 94 549 94 q 810 108 710 94 l 810 -1 z "},"Ũ":{"ha":926,"x_min":116,"x_max":926,"o":"m 405 1508 q 345 1406 350 1508 l 229 1411 q 277 1558 231 1498 q 405 1617 323 1617 q 472 1605 441 1617 q 524 1576 504 1593 q 562 1542 544 1559 q 599 1513 581 1525 q 637 1501 618 1501 q 697 1603 692 1501 l 813 1598 q 765 1453 811 1513 q 637 1393 719 1393 q 569 1404 600 1393 q 518 1433 538 1416 q 479 1468 497 1450 q 443 1496 461 1485 q 405 1508 424 1508 m 116 1273 l 231 1273 l 231 463 q 242 298 231 342 q 340 150 265 206 q 521 94 414 94 q 702 150 628 94 q 799 298 777 206 q 810 463 810 342 l 810 1273 l 926 1273 l 926 463 q 911 274 926 335 q 774 66 881 146 q 521 -14 668 -14 q 267 66 373 -14 q 130 274 160 146 q 116 463 116 335 l 116 1273 z "},"ũ":{"ha":926,"x_min":229,"x_max":813,"o":"m 405 1161 q 345 1059 350 1161 l 229 1064 q 277 1210 231 1151 q 405 1270 323 1270 q 472 1258 441 1270 q 524 1229 504 1246 q 562 1194 544 1212 q 599 1166 581 1177 q 637 1154 618 1154 q 697 1256 692 1154 l 813 1251 q 765 1105 811 1166 q 637 1045 719 1045 q 569 1057 600 1045 q 518 1086 538 1069 q 479 1120 497 1103 q 443 1149 461 1138 q 405 1161 424 1161 m 503 -14 q 383 12 438 -14 q 294 82 329 38 q 258 140 271 110 q 239 206 244 170 q 233 266 234 242 q 231 332 231 289 l 231 926 l 347 926 l 347 332 q 349 258 347 282 q 359 203 350 233 q 388 150 369 173 q 521 94 437 94 q 654 150 605 94 q 682 203 673 173 q 693 258 692 233 q 694 332 694 282 l 694 926 l 810 926 l 810 0 l 694 0 l 694 101 l 685 101 q 603 17 652 49 q 503 -14 553 -14 z "},"Ū":{"ha":926,"x_min":116,"x_max":926,"o":"m 231 1501 l 810 1501 l 810 1393 l 231 1393 l 231 1501 m 116 1273 l 231 1273 l 231 463 q 242 298 231 342 q 340 150 265 206 q 521 94 414 94 q 702 150 628 94 q 799 298 777 206 q 810 463 810 342 l 810 1273 l 926 1273 l 926 463 q 911 274 926 335 q 774 66 881 146 q 521 -14 668 -14 q 267 66 373 -14 q 130 274 160 146 q 116 463 116 335 l 116 1273 z "},"ū":{"ha":926,"x_min":231,"x_max":810,"o":"m 231 1154 l 810 1154 l 810 1045 l 231 1045 l 231 1154 m 503 -14 q 383 12 438 -14 q 294 82 329 38 q 258 140 271 110 q 239 206 244 170 q 233 266 234 242 q 231 332 231 289 l 231 926 l 347 926 l 347 332 q 349 258 347 282 q 359 203 350 233 q 388 150 369 173 q 521 94 437 94 q 654 150 605 94 q 682 203 673 173 q 693 258 692 233 q 694 332 694 282 l 694 926 l 810 926 l 810 0 l 694 0 l 694 101 l 685 101 q 603 17 652 49 q 503 -14 553 -14 z "},"Ŭ":{"ha":926,"x_min":116,"x_max":926,"o":"m 713 1620 l 828 1620 q 740 1442 828 1509 q 521 1374 652 1374 q 302 1442 390 1374 q 213 1620 213 1509 l 329 1620 q 378 1521 329 1559 q 521 1483 428 1483 q 663 1521 614 1483 q 713 1620 713 1559 m 116 1273 l 231 1273 l 231 463 q 242 298 231 342 q 340 150 265 206 q 521 94 414 94 q 702 150 628 94 q 799 298 777 206 q 810 463 810 342 l 810 1273 l 926 1273 l 926 463 q 911 274 926 335 q 774 66 881 146 q 521 -14 668 -14 q 267 66 373 -14 q 130 274 160 146 q 116 463 116 335 l 116 1273 z "},"ŭ":{"ha":926,"x_min":213,"x_max":828,"o":"m 713 1273 l 828 1273 q 740 1095 828 1162 q 521 1027 652 1027 q 302 1095 390 1027 q 213 1273 213 1162 l 329 1273 q 378 1174 329 1212 q 521 1136 428 1136 q 663 1174 614 1136 q 713 1273 713 1212 m 503 -14 q 383 12 438 -14 q 294 82 329 38 q 258 140 271 110 q 239 206 244 170 q 233 266 234 242 q 231 332 231 289 l 231 926 l 347 926 l 347 332 q 349 258 347 282 q 359 203 350 233 q 388 150 369 173 q 521 94 437 94 q 654 150 605 94 q 682 203 673 173 q 693 258 692 233 q 694 332 694 282 l 694 926 l 810 926 l 810 0 l 694 0 l 694 101 l 685 101 q 603 17 652 49 q 503 -14 553 -14 z "},"Ů":{"ha":926,"x_min":116,"x_max":926,"o":"m 373 1536 q 401 1565 373 1536 q 521 1595 430 1595 q 669 1536 611 1595 q 727 1389 727 1477 q 669 1242 727 1301 q 521 1183 611 1183 q 373 1242 430 1183 q 315 1389 315 1301 q 373 1536 315 1477 m 600 1474 q 585 1489 600 1474 q 521 1505 570 1505 q 442 1474 472 1505 q 412 1389 412 1444 q 442 1303 412 1334 q 521 1273 472 1273 q 600 1303 570 1273 q 629 1389 629 1334 q 600 1474 629 1444 m 116 1273 l 231 1273 l 231 463 q 242 298 231 342 q 340 150 265 206 q 521 94 414 94 q 702 150 628 94 q 799 298 777 206 q 810 463 810 342 l 810 1273 l 926 1273 l 926 463 q 911 274 926 335 q 774 66 881 146 q 521 -14 668 -14 q 267 66 373 -14 q 130 274 160 146 q 116 463 116 335 l 116 1273 z "},"ů":{"ha":926,"x_min":231,"x_max":810,"o":"m 373 1304 q 401 1334 373 1304 q 521 1364 430 1364 q 669 1304 611 1364 q 727 1157 727 1245 q 669 1010 727 1070 q 521 951 611 951 q 373 1010 430 951 q 315 1157 315 1070 q 373 1304 315 1245 m 600 1243 q 585 1258 600 1243 q 521 1273 570 1273 q 442 1243 472 1273 q 412 1157 412 1213 q 442 1072 412 1102 q 521 1042 472 1042 q 600 1072 570 1042 q 629 1157 629 1102 q 600 1243 629 1213 m 503 -14 q 383 12 438 -14 q 294 82 329 38 q 258 140 271 110 q 239 206 244 170 q 233 266 234 242 q 231 332 231 289 l 231 926 l 347 926 l 347 332 q 349 258 347 282 q 359 203 350 233 q 388 150 369 173 q 521 94 437 94 q 654 150 605 94 q 682 203 673 173 q 693 258 692 233 q 694 332 694 282 l 694 926 l 810 926 l 810 0 l 694 0 l 694 101 l 685 101 q 603 17 652 49 q 503 -14 553 -14 z "},"Ű":{"ha":926,"x_min":116,"x_max":926,"o":"m 615 1389 l 765 1620 l 890 1620 l 740 1389 l 615 1389 m 268 1389 l 418 1620 l 543 1620 l 392 1389 l 268 1389 m 116 1273 l 231 1273 l 231 463 q 242 298 231 342 q 340 150 265 206 q 521 94 414 94 q 702 150 628 94 q 799 298 777 206 q 810 463 810 342 l 810 1273 l 926 1273 l 926 463 q 911 274 926 335 q 774 66 881 146 q 521 -14 668 -14 q 267 66 373 -14 q 130 274 160 146 q 116 463 116 335 l 116 1273 z "},"ű":{"ha":926,"x_min":231,"x_max":890,"o":"m 615 1042 l 765 1273 l 890 1273 l 740 1042 l 615 1042 m 268 1042 l 418 1273 l 543 1273 l 392 1042 l 268 1042 m 503 -14 q 383 12 438 -14 q 294 82 329 38 q 258 140 271 110 q 239 206 244 170 q 233 266 234 242 q 231 332 231 289 l 231 926 l 347 926 l 347 332 q 349 258 347 282 q 359 203 350 233 q 388 150 369 173 q 521 94 437 94 q 654 150 605 94 q 682 203 673 173 q 693 258 692 233 q 694 332 694 282 l 694 926 l 810 926 l 810 0 l 694 0 l 694 101 l 685 101 q 603 17 652 49 q 503 -14 553 -14 z "},"Ų":{"ha":926,"x_min":116,"x_max":926,"o":"m 521 -212 q 579 -207 556 -212 l 579 -316 q 503 -320 549 -320 q 392 -278 443 -320 q 341 -171 341 -236 q 462 -11 341 -83 q 246 83 335 5 q 130 274 157 160 q 116 463 116 335 l 116 1273 l 231 1273 l 231 463 q 242 298 231 342 q 340 150 265 206 q 521 94 414 94 q 702 150 628 94 q 799 298 777 206 q 810 463 810 342 l 810 1273 l 926 1273 l 926 463 q 911 274 926 335 q 794 80 884 158 q 576 -12 704 3 q 450 -146 450 -59 q 472 -195 450 -179 q 521 -212 493 -212 z "},"ų":{"ha":926,"x_min":231,"x_max":810,"o":"m 752 -208 q 810 -203 788 -208 l 810 -312 q 734 -316 781 -316 q 623 -274 675 -316 q 572 -167 572 -232 q 694 0 572 -74 l 694 101 l 685 101 q 603 17 652 49 q 503 -14 553 -14 q 383 12 438 -14 q 294 82 329 38 q 258 140 271 110 q 239 206 244 170 q 233 266 234 242 q 231 332 231 289 l 231 926 l 347 926 l 347 332 q 349 258 347 282 q 359 203 350 233 q 388 150 369 173 q 521 94 437 94 q 654 150 605 94 q 682 203 673 173 q 693 258 692 233 q 694 332 694 282 l 694 926 l 810 926 l 810 0 q 712 -66 741 -33 q 682 -143 682 -98 q 703 -192 682 -175 q 752 -208 724 -208 z "},"Ŵ":{"ha":926,"x_min":108,"x_max":934,"o":"m 449 1620 l 592 1620 l 861 1389 l 718 1389 l 521 1537 l 324 1389 l 181 1389 l 449 1620 m 465 810 l 577 810 l 734 190 l 743 190 q 818 1273 818 616 l 934 1273 q 808 0 934 637 l 696 0 l 525 666 l 516 666 l 345 0 l 233 0 q 108 1273 108 637 l 223 1273 q 298 190 223 623 l 307 190 l 465 810 z "},"ŵ":{"ha":926,"x_min":99,"x_max":943,"o":"m 449 1273 l 592 1273 l 861 1042 l 718 1042 l 521 1190 l 324 1042 l 181 1042 l 449 1273 m 465 694 l 577 694 l 725 127 l 734 127 q 827 926 827 485 l 943 926 q 808 0 943 461 l 669 0 l 525 531 l 516 531 l 373 0 l 233 0 q 99 926 99 461 l 214 926 q 307 127 214 485 l 316 127 l 465 694 z "},"Ŷ":{"ha":926,"x_min":90,"x_max":951,"o":"m 449 1620 l 592 1620 l 861 1389 l 718 1389 l 521 1537 l 324 1389 l 181 1389 l 449 1620 m 530 670 q 828 1273 689 904 l 951 1273 q 781 883 869 1059 q 579 557 693 708 l 579 0 l 463 0 l 463 557 q 261 883 349 708 q 90 1273 173 1059 l 213 1273 q 512 670 352 906 l 530 670 z "},"ŷ":{"ha":926,"x_min":181,"x_max":861,"o":"m 449 1273 l 592 1273 l 861 1042 l 718 1042 l 521 1190 l 324 1042 l 181 1042 l 449 1273 m 547 217 q 740 926 633 481 l 858 926 q 837 840 854 909 q 816 753 820 772 q 796 672 811 733 q 774 586 780 611 q 752 506 767 562 q 728 419 738 450 q 703 335 719 387 q 675 241 688 282 q 645 150 662 201 q 611 50 628 99 q 577 -43 590 -12 q 543 -114 565 -74 q 494 -175 520 -154 q 231 -246 409 -246 l 231 -137 q 409 -100 361 -137 q 447 -53 430 -85 q 475 5 465 -22 q 515 116 486 33 l 467 116 q 304 490 370 293 q 184 926 239 687 l 303 926 q 538 217 397 494 l 547 217 z "},"Ÿ":{"ha":926,"x_min":90,"x_max":951,"o":"m 650 1578 q 664 1592 650 1578 q 723 1606 678 1606 q 797 1578 769 1606 q 825 1505 825 1550 q 797 1431 825 1459 q 723 1403 769 1403 q 650 1431 678 1403 q 622 1505 622 1459 q 650 1578 622 1550 m 245 1578 q 259 1592 245 1578 q 318 1606 273 1606 q 392 1578 363 1606 q 420 1505 420 1550 q 392 1431 420 1459 q 318 1403 363 1403 q 245 1431 273 1403 q 217 1505 217 1459 q 245 1578 217 1550 m 530 670 q 828 1273 689 904 l 951 1273 q 781 883 869 1059 q 579 557 693 708 l 579 0 l 463 0 l 463 557 q 261 883 349 708 q 90 1273 173 1059 l 213 1273 q 512 670 352 906 l 530 670 z "},"Ź":{"ha":926,"x_min":116,"x_max":926,"o":"m 458 1392 l 609 1623 l 733 1623 l 583 1392 l 458 1392 m 134 1165 l 134 1273 l 908 1273 l 908 1192 l 265 118 l 265 109 l 926 109 l 926 0 l 116 0 l 116 83 l 759 1156 l 759 1165 l 134 1165 z "},"ź":{"ha":926,"x_min":231,"x_max":810,"o":"m 458 1044 l 609 1276 l 733 1276 l 583 1044 l 458 1044 m 250 817 l 250 926 l 792 926 l 792 845 l 363 118 l 363 109 l 810 109 l 810 0 l 231 0 l 231 83 l 661 808 l 661 817 l 250 817 z "},"Ż":{"ha":926,"x_min":116,"x_max":926,"o":"m 448 1566 q 462 1580 448 1566 q 521 1594 476 1594 q 594 1566 566 1594 q 622 1493 622 1538 q 594 1420 622 1448 q 521 1392 566 1392 q 448 1420 476 1392 q 420 1493 420 1448 q 448 1566 420 1538 m 134 1165 l 134 1273 l 908 1273 l 908 1192 l 265 118 l 265 109 l 926 109 l 926 0 l 116 0 l 116 83 l 759 1156 l 759 1165 l 134 1165 z "},"ż":{"ha":926,"x_min":231,"x_max":810,"o":"m 448 1219 q 462 1233 448 1219 q 521 1247 476 1247 q 594 1219 566 1247 q 622 1146 622 1191 q 594 1072 622 1100 q 521 1044 566 1044 q 448 1072 476 1044 q 420 1146 420 1100 q 448 1219 420 1191 m 250 817 l 250 926 l 792 926 l 792 845 l 363 118 l 363 109 l 810 109 l 810 0 l 231 0 l 231 83 l 661 808 l 661 817 l 250 817 z "},"Ž":{"ha":926,"x_min":116,"x_max":926,"o":"m 449 1392 l 181 1623 l 324 1623 l 521 1475 l 718 1623 l 861 1623 l 592 1392 l 449 1392 m 134 1165 l 134 1273 l 908 1273 l 908 1192 l 265 118 l 265 109 l 926 109 l 926 0 l 116 0 l 116 83 l 759 1156 l 759 1165 l 134 1165 z "},"ž":{"ha":926,"x_min":181,"x_max":861,"o":"m 449 1044 l 181 1276 l 324 1276 l 521 1128 l 718 1276 l 861 1276 l 592 1044 l 449 1044 m 250 817 l 250 926 l 792 926 l 792 845 l 363 118 l 363 109 l 810 109 l 810 0 l 231 0 l 231 83 l 661 808 l 661 817 l 250 817 z "},"ſ":{"ha":926,"x_min":116,"x_max":810,"o":"m 463 0 l 347 0 l 347 702 l 116 702 l 116 810 l 347 810 l 347 1021 q 349 1076 347 1055 q 361 1135 350 1098 q 394 1202 373 1173 q 477 1265 424 1242 q 597 1288 530 1288 q 810 1273 682 1288 l 810 1165 q 597 1179 682 1179 q 488 1138 519 1179 q 463 1021 463 1105 l 463 0 z "},"Ɖ":{"ha":926,"x_min":116,"x_max":940,"o":"m 456 109 q 750 251 646 109 q 809 409 794 318 q 825 637 825 499 q 801 888 825 793 q 684 1089 770 1014 q 456 1165 599 1165 l 347 1165 l 347 691 l 579 691 l 579 582 l 347 582 l 347 109 l 456 109 m 456 1273 q 730 1191 607 1273 q 914 911 864 1100 q 940 637 940 811 q 914 362 940 466 q 730 82 868 181 q 456 0 615 0 l 231 0 l 231 582 l 116 582 l 116 691 l 231 691 l 231 1273 l 456 1273 z "},"Ə":{"ha":926,"x_min":101,"x_max":940,"o":"m 217 586 q 240 345 219 439 q 337 165 267 235 q 521 94 407 94 q 705 165 635 94 q 802 345 775 235 q 825 586 823 439 l 217 586 m 825 694 q 799 919 821 833 q 676 1110 768 1041 q 433 1179 584 1179 q 161 1159 309 1179 l 161 1268 q 433 1288 303 1288 q 749 1194 626 1288 q 912 944 873 1101 q 940 637 940 834 q 915 321 940 421 q 779 80 879 175 q 521 -14 678 -14 q 263 80 363 -14 q 127 321 163 175 q 106 469 110 385 q 101 694 101 552 l 825 694 z "},"Ƥ":{"ha":926,"x_min":0,"x_max":940,"o":"m 798 742 q 812 772 798 742 q 825 872 825 801 q 798 1001 825 942 q 728 1099 772 1060 q 670 1137 701 1122 q 602 1157 638 1151 q 543 1163 566 1162 q 482 1165 521 1165 l 347 1165 l 347 579 l 482 579 q 565 581 533 579 q 644 599 596 583 q 728 645 693 614 q 798 742 772 683 m 482 1273 q 555 1271 526 1273 q 632 1262 583 1270 q 724 1233 680 1254 q 806 1178 768 1212 q 940 872 940 1059 q 904 698 940 777 q 806 565 867 619 q 724 510 768 532 q 632 481 680 489 q 555 472 583 474 q 482 470 526 470 l 347 470 l 347 0 l 231 0 l 231 1165 l 116 1165 l 116 1042 l 0 1042 l 0 1273 l 482 1273 z "},"Ǫ":{"ha":926,"x_min":101,"x_max":940,"o":"m 521 -212 q 579 -207 556 -212 l 579 -316 q 503 -320 549 -320 q 392 -278 443 -320 q 341 -171 341 -236 q 454 -9 341 -81 q 241 101 325 11 q 127 321 158 191 q 101 637 101 421 q 127 952 101 852 q 263 1193 163 1099 q 521 1288 363 1288 q 779 1193 678 1288 q 915 952 879 1099 q 940 637 940 852 q 915 321 940 421 q 796 96 883 187 q 573 -12 709 5 q 450 -146 450 -59 q 472 -195 450 -179 q 521 -212 493 -212 m 240 928 q 217 637 217 829 q 240 345 217 444 q 337 165 267 235 q 521 94 407 94 q 705 165 635 94 q 802 345 775 235 q 825 637 825 444 q 802 928 825 829 q 705 1109 775 1038 q 521 1179 635 1179 q 337 1109 407 1179 q 240 928 267 1038 z "},"ǫ":{"ha":926,"x_min":203,"x_max":839,"o":"m 521 -212 q 579 -207 556 -212 l 579 -316 q 503 -320 549 -320 q 392 -278 443 -320 q 341 -171 341 -236 q 456 -8 341 -80 q 261 130 331 17 q 214 267 226 188 q 203 463 203 346 q 214 659 203 580 q 261 796 226 738 q 370 902 304 864 q 521 940 437 940 q 671 902 605 940 q 780 796 738 864 q 827 659 816 738 q 839 463 839 580 q 827 267 839 346 q 780 130 816 188 q 578 -10 708 13 q 481 -69 512 -36 q 450 -146 450 -102 q 472 -195 450 -179 q 521 -212 493 -212 m 680 743 q 521 832 628 832 q 362 743 414 832 q 332 660 342 710 q 320 570 322 609 q 318 463 318 530 q 320 356 318 396 q 332 266 322 316 q 362 183 342 216 q 521 94 414 94 q 680 183 628 94 q 710 266 700 216 q 722 356 720 316 q 723 463 723 396 q 722 570 723 530 q 710 660 720 609 q 680 743 700 710 z "},"Ȁ":{"ha":926,"x_min":93,"x_max":949,"o":"m 427 1389 l 302 1389 l 152 1620 l 277 1620 l 427 1389 m 774 1389 l 649 1389 l 499 1620 l 624 1620 l 774 1389 m 93 0 q 462 1273 174 758 l 580 1273 q 949 0 868 758 l 826 0 q 777 351 813 164 l 265 351 q 251 268 260 323 q 237 178 242 213 q 225 93 231 143 q 215 0 219 43 l 93 0 m 758 459 q 652 848 705 681 q 525 1157 599 1015 l 516 1157 q 390 848 443 1015 q 284 459 336 681 l 758 459 z "},"ȁ":{"ha":926,"x_min":152,"x_max":810,"o":"m 427 1042 l 302 1042 l 152 1273 l 277 1273 l 427 1042 m 774 1042 l 649 1042 l 499 1273 l 624 1273 l 774 1042 m 694 463 l 517 463 q 465 461 484 463 q 419 448 447 459 q 369 414 391 437 q 318 274 318 361 q 362 146 318 197 q 481 94 406 94 q 558 107 524 94 q 614 138 592 119 q 652 188 637 157 q 676 245 668 219 q 688 309 684 272 q 694 370 693 346 q 694 426 694 393 l 694 463 m 550 940 q 686 916 628 940 q 783 826 745 892 q 810 677 810 778 l 810 0 l 694 0 l 694 111 l 685 111 q 459 -14 594 -14 q 277 67 351 -14 q 203 272 203 148 q 282 482 203 402 q 344 528 311 510 q 412 553 376 546 q 468 561 448 560 q 519 562 488 562 l 694 562 l 694 673 q 678 779 694 751 q 634 819 663 806 q 550 832 606 832 q 289 813 441 832 l 289 923 q 550 940 439 940 z "},"Ȃ":{"ha":926,"x_min":93,"x_max":949,"o":"m 713 1389 q 663 1488 713 1450 q 521 1526 614 1526 q 378 1488 428 1526 q 329 1389 329 1450 l 213 1389 q 302 1567 213 1500 q 521 1635 390 1635 q 740 1567 652 1635 q 828 1389 828 1500 l 713 1389 m 93 0 q 462 1273 174 758 l 580 1273 q 949 0 868 758 l 826 0 q 777 351 813 164 l 265 351 q 251 268 260 323 q 237 178 242 213 q 225 93 231 143 q 215 0 219 43 l 93 0 m 758 459 q 652 848 705 681 q 525 1157 599 1015 l 516 1157 q 390 848 443 1015 q 284 459 336 681 l 758 459 z "},"ȃ":{"ha":926,"x_min":203,"x_max":828,"o":"m 713 1042 q 663 1141 713 1103 q 521 1179 614 1179 q 378 1141 428 1179 q 329 1042 329 1103 l 213 1042 q 302 1220 213 1153 q 521 1288 390 1288 q 740 1220 652 1288 q 828 1042 828 1153 l 713 1042 m 694 463 l 517 463 q 465 461 484 463 q 419 448 447 459 q 369 414 391 437 q 318 274 318 361 q 362 146 318 197 q 481 94 406 94 q 558 107 524 94 q 614 138 592 119 q 652 188 637 157 q 676 245 668 219 q 688 309 684 272 q 694 370 693 346 q 694 426 694 393 l 694 463 m 550 940 q 686 916 628 940 q 783 826 745 892 q 810 677 810 778 l 810 0 l 694 0 l 694 111 l 685 111 q 459 -14 594 -14 q 277 67 351 -14 q 203 272 203 148 q 282 482 203 402 q 344 528 311 510 q 412 553 376 546 q 468 561 448 560 q 519 562 488 562 l 694 562 l 694 673 q 678 779 694 751 q 634 819 663 806 q 550 832 606 832 q 289 813 441 832 l 289 923 q 550 940 439 940 z "},"Ȅ":{"ha":926,"x_min":152,"x_max":926,"o":"m 427 1389 l 302 1389 l 152 1620 l 277 1620 l 427 1389 m 774 1389 l 649 1389 l 499 1620 l 624 1620 l 774 1389 m 231 1273 l 926 1273 l 926 1165 l 347 1165 l 347 694 l 810 694 l 810 586 l 347 586 l 347 109 l 926 109 l 926 0 l 231 0 l 231 1273 z "},"ȅ":{"ha":926,"x_min":152,"x_max":839,"o":"m 427 1042 l 302 1042 l 152 1273 l 277 1273 l 427 1042 m 774 1042 l 649 1042 l 499 1273 l 624 1273 l 774 1042 m 632 803 q 609 817 632 803 q 521 832 586 832 q 410 803 456 832 q 345 722 364 774 q 320 571 326 679 l 722 571 q 697 722 716 679 q 632 803 677 774 m 340 890 q 378 915 340 890 q 521 940 415 940 q 701 890 627 940 q 806 759 776 839 q 829 667 821 720 q 838 575 836 615 q 839 463 839 534 l 318 463 q 319 368 318 401 q 327 289 320 335 q 347 212 334 243 q 539 94 400 94 q 810 113 644 94 l 810 5 q 539 -14 646 -14 q 350 38 427 -14 q 239 175 273 90 q 209 297 215 231 q 203 463 203 362 q 204 575 203 534 q 213 667 205 615 q 236 759 221 720 q 340 890 266 839 z "},"Ȇ":{"ha":926,"x_min":213,"x_max":926,"o":"m 713 1157 q 663 1257 713 1219 q 521 1295 614 1295 q 378 1257 428 1295 q 329 1157 329 1219 l 213 1157 q 302 1336 213 1269 q 521 1403 390 1403 q 740 1336 652 1403 q 828 1157 828 1269 l 713 1157 m 231 1042 l 926 1042 l 926 933 l 347 933 l 347 575 l 810 575 l 810 467 l 347 467 l 347 109 l 926 109 l 926 0 l 231 0 l 231 1042 z "},"ȇ":{"ha":926,"x_min":203,"x_max":839,"o":"m 632 803 q 609 817 632 803 q 521 832 586 832 q 410 803 456 832 q 345 722 364 774 q 320 571 326 679 l 722 571 q 697 722 716 679 q 632 803 677 774 m 340 890 q 378 915 340 890 q 521 940 415 940 q 701 890 627 940 q 806 759 776 839 q 829 667 821 720 q 838 575 836 615 q 839 463 839 534 l 318 463 q 319 368 318 401 q 327 289 320 335 q 347 212 334 243 q 539 94 400 94 q 810 113 644 94 l 810 5 q 539 -14 646 -14 q 350 38 427 -14 q 239 175 273 90 q 209 297 215 231 q 203 463 203 362 q 204 575 203 534 q 213 667 205 615 q 236 759 221 720 q 340 890 266 839 m 713 1042 q 663 1141 713 1103 q 521 1179 614 1179 q 378 1141 428 1179 q 329 1042 329 1103 l 213 1042 q 302 1220 213 1153 q 521 1288 390 1288 q 740 1220 652 1288 q 828 1042 828 1153 l 713 1042 z "},"Ȉ":{"ha":926,"x_min":152,"x_max":810,"o":"m 427 1389 l 302 1389 l 152 1620 l 277 1620 l 427 1389 m 774 1389 l 649 1389 l 499 1620 l 624 1620 l 774 1389 m 810 1273 l 810 1165 l 579 1165 l 579 109 l 810 109 l 810 0 l 231 0 l 231 109 l 463 109 l 463 1165 l 231 1165 l 231 1273 l 810 1273 z "},"ȉ":{"ha":926,"x_min":152,"x_max":774,"o":"m 427 1042 l 302 1042 l 152 1273 l 277 1273 l 427 1042 m 774 1042 l 649 1042 l 499 1273 l 624 1273 l 774 1042 m 463 0 l 463 817 l 231 817 l 231 926 l 579 926 l 579 0 l 463 0 z "},"Ȋ":{"ha":926,"x_min":213,"x_max":828,"o":"m 713 1389 q 663 1488 713 1450 q 521 1526 614 1526 q 378 1488 428 1526 q 329 1389 329 1450 l 213 1389 q 302 1567 213 1500 q 521 1635 390 1635 q 740 1567 652 1635 q 828 1389 828 1500 l 713 1389 m 810 1273 l 810 1165 l 579 1165 l 579 109 l 810 109 l 810 0 l 231 0 l 231 109 l 463 109 l 463 1165 l 231 1165 l 231 1273 l 810 1273 z "},"ȋ":{"ha":926,"x_min":213,"x_max":828,"o":"m 713 1042 q 663 1141 713 1103 q 521 1179 614 1179 q 378 1141 428 1179 q 329 1042 329 1103 l 213 1042 q 302 1220 213 1153 q 521 1288 390 1288 q 740 1220 652 1288 q 828 1042 828 1153 l 713 1042 m 463 0 l 463 817 l 231 817 l 231 926 l 579 926 l 579 0 l 463 0 z "},"Ȍ":{"ha":926,"x_min":101,"x_max":940,"o":"m 427 1389 l 302 1389 l 152 1620 l 277 1620 l 427 1389 m 774 1389 l 649 1389 l 499 1620 l 624 1620 l 774 1389 m 240 928 q 217 637 217 829 q 240 345 217 444 q 337 165 267 235 q 521 94 407 94 q 705 165 635 94 q 802 345 775 235 q 825 637 825 444 q 802 928 825 829 q 705 1109 775 1038 q 521 1179 635 1179 q 337 1109 407 1179 q 240 928 267 1038 m 127 321 q 101 637 101 421 q 127 952 101 852 q 263 1193 163 1099 q 521 1288 363 1288 q 779 1193 678 1288 q 915 952 879 1099 q 940 637 940 852 q 915 321 940 421 q 779 80 879 175 q 521 -14 678 -14 q 263 80 363 -14 q 127 321 163 175 z "},"ȍ":{"ha":926,"x_min":152,"x_max":839,"o":"m 427 1042 l 302 1042 l 152 1273 l 277 1273 l 427 1042 m 774 1042 l 649 1042 l 499 1273 l 624 1273 l 774 1042 m 370 902 q 404 921 370 902 q 521 940 437 940 q 671 902 605 940 q 780 796 738 864 q 827 659 816 738 q 839 463 839 580 q 827 267 839 346 q 780 130 816 188 q 671 24 738 62 q 521 -14 605 -14 q 370 24 437 -14 q 261 130 304 62 q 214 267 226 188 q 203 463 203 346 q 214 659 203 580 q 261 796 226 738 q 370 902 304 864 m 680 743 q 521 832 628 832 q 362 743 414 832 q 332 660 342 710 q 320 570 322 609 q 318 463 318 530 q 320 356 318 396 q 332 266 322 316 q 362 183 342 216 q 521 94 414 94 q 680 183 628 94 q 710 266 700 216 q 722 356 720 316 q 723 463 723 396 q 722 570 723 530 q 710 660 720 609 q 680 743 700 710 z "},"Ȏ":{"ha":926,"x_min":101,"x_max":940,"o":"m 713 1157 q 663 1257 713 1219 q 521 1295 614 1295 q 378 1257 428 1295 q 329 1157 329 1219 l 213 1157 q 302 1336 213 1269 q 521 1403 390 1403 q 740 1336 652 1403 q 828 1157 828 1269 l 713 1157 m 766 60 q 716 23 766 60 q 521 -14 666 -14 q 275 60 375 -14 q 135 257 175 134 q 101 521 101 358 q 135 785 101 684 q 275 982 175 908 q 521 1056 375 1056 q 766 982 666 1056 q 907 785 866 908 q 940 521 940 684 q 907 257 940 358 q 766 60 866 134 m 797 288 q 825 521 825 373 q 797 753 825 669 q 698 896 767 844 q 521 948 628 948 q 344 896 413 948 q 245 753 275 844 q 217 521 217 669 q 245 288 217 373 q 344 146 275 198 q 521 94 413 94 q 698 146 628 94 q 797 288 767 198 z "},"ȏ":{"ha":926,"x_min":203,"x_max":839,"o":"m 713 1042 q 663 1141 713 1103 q 521 1179 614 1179 q 378 1141 428 1179 q 329 1042 329 1103 l 213 1042 q 302 1220 213 1153 q 521 1288 390 1288 q 740 1220 652 1288 q 828 1042 828 1153 l 713 1042 m 694 713 q 521 832 647 832 q 347 713 395 832 q 318 463 318 641 q 347 212 318 285 q 521 94 395 94 q 694 212 647 94 q 723 463 723 285 q 694 713 723 641 m 345 887 q 381 914 345 887 q 521 940 418 940 q 697 887 624 940 q 803 750 769 834 q 833 628 826 692 q 839 463 839 563 q 833 298 839 363 q 803 176 826 234 q 697 39 769 92 q 521 -14 624 -14 q 345 39 418 -14 q 239 176 272 92 q 209 298 215 234 q 203 463 203 363 q 209 628 203 563 q 239 750 215 692 q 345 887 272 834 z "},"Ȑ":{"ha":926,"x_min":152,"x_max":963,"o":"m 427 1389 l 302 1389 l 152 1620 l 277 1620 l 427 1389 m 774 1389 l 649 1389 l 499 1620 l 624 1620 l 774 1389 m 798 742 q 812 772 798 742 q 825 872 825 801 q 798 1001 825 942 q 728 1099 772 1061 q 670 1137 701 1122 q 602 1157 638 1151 q 543 1163 566 1162 q 482 1165 521 1165 l 347 1165 l 347 579 l 482 579 q 564 581 533 579 q 644 599 596 583 q 728 645 693 615 q 798 742 772 683 m 482 1273 q 555 1271 526 1273 q 632 1262 583 1270 q 724 1233 680 1254 q 806 1178 768 1212 q 940 872 940 1059 q 806 565 940 684 q 735 517 774 537 l 963 0 l 840 0 l 626 480 q 482 470 571 470 l 347 470 l 347 0 l 231 0 l 231 1273 l 482 1273 z "},"ȑ":{"ha":926,"x_min":152,"x_max":810,"o":"m 427 1042 l 302 1042 l 152 1273 l 277 1273 l 427 1042 m 774 1042 l 649 1042 l 499 1273 l 624 1273 l 774 1042 m 647 832 q 453 766 524 832 q 392 690 416 732 q 360 597 369 648 q 349 515 351 546 q 347 430 347 483 l 347 0 l 231 0 l 231 926 l 347 926 l 347 782 l 356 782 q 481 899 412 858 q 647 940 549 940 q 810 929 714 940 l 810 820 q 647 832 714 832 z "},"Ȓ":{"ha":926,"x_min":213,"x_max":963,"o":"m 713 1389 q 663 1488 713 1450 q 521 1526 614 1526 q 378 1488 428 1526 q 329 1389 329 1450 l 213 1389 q 302 1567 213 1500 q 521 1635 390 1635 q 740 1567 652 1635 q 828 1389 828 1500 l 713 1389 m 798 742 q 812 772 798 742 q 825 872 825 801 q 798 1001 825 942 q 728 1099 772 1061 q 670 1137 701 1122 q 602 1157 638 1151 q 543 1163 566 1162 q 482 1165 521 1165 l 347 1165 l 347 579 l 482 579 q 564 581 533 579 q 644 599 596 583 q 728 645 693 615 q 798 742 772 683 m 482 1273 q 555 1271 526 1273 q 632 1262 583 1270 q 724 1233 680 1254 q 806 1178 768 1212 q 940 872 940 1059 q 806 565 940 684 q 735 517 774 537 l 963 0 l 840 0 l 626 480 q 482 470 571 470 l 347 470 l 347 0 l 231 0 l 231 1273 l 482 1273 z "},"ȓ":{"ha":926,"x_min":213,"x_max":828,"o":"m 713 1042 q 663 1141 713 1103 q 521 1179 614 1179 q 378 1141 428 1179 q 329 1042 329 1103 l 213 1042 q 302 1220 213 1153 q 521 1288 390 1288 q 740 1220 652 1288 q 828 1042 828 1153 l 713 1042 m 647 832 q 453 766 524 832 q 392 690 416 732 q 360 597 369 648 q 349 515 351 546 q 347 430 347 483 l 347 0 l 231 0 l 231 926 l 347 926 l 347 782 l 356 782 q 481 899 412 858 q 647 940 549 940 q 810 929 714 940 l 810 820 q 647 832 714 832 z "},"Ȕ":{"ha":926,"x_min":116,"x_max":926,"o":"m 427 1389 l 302 1389 l 152 1620 l 277 1620 l 427 1389 m 774 1389 l 649 1389 l 499 1620 l 624 1620 l 774 1389 m 116 1273 l 231 1273 l 231 463 q 242 298 231 342 q 340 150 265 206 q 521 94 414 94 q 702 150 628 94 q 799 298 777 206 q 810 463 810 342 l 810 1273 l 926 1273 l 926 463 q 911 274 926 335 q 774 66 881 146 q 521 -14 668 -14 q 267 66 373 -14 q 130 274 160 146 q 116 463 116 335 l 116 1273 z "},"ȕ":{"ha":926,"x_min":152,"x_max":810,"o":"m 427 1042 l 302 1042 l 152 1273 l 277 1273 l 427 1042 m 774 1042 l 649 1042 l 499 1273 l 624 1273 l 774 1042 m 503 -14 q 383 12 438 -14 q 294 82 329 38 q 258 140 271 110 q 239 206 244 170 q 233 266 234 242 q 231 332 231 289 l 231 926 l 347 926 l 347 332 q 349 258 347 282 q 359 203 350 233 q 388 150 369 173 q 521 94 437 94 q 654 150 605 94 q 682 203 673 173 q 693 258 692 233 q 694 332 694 282 l 694 926 l 810 926 l 810 0 l 694 0 l 694 101 l 685 101 q 603 17 652 49 q 503 -14 553 -14 z "},"Ȗ":{"ha":926,"x_min":116,"x_max":926,"o":"m 713 1389 q 663 1488 713 1450 q 521 1526 614 1526 q 378 1488 428 1526 q 329 1389 329 1450 l 213 1389 q 302 1567 213 1500 q 521 1635 390 1635 q 740 1567 652 1635 q 828 1389 828 1500 l 713 1389 m 116 1273 l 231 1273 l 231 463 q 242 298 231 342 q 340 150 265 206 q 521 94 414 94 q 702 150 628 94 q 799 298 777 206 q 810 463 810 342 l 810 1273 l 926 1273 l 926 463 q 911 274 926 335 q 774 66 881 146 q 521 -14 668 -14 q 267 66 373 -14 q 130 274 160 146 q 116 463 116 335 l 116 1273 z "},"ȗ":{"ha":926,"x_min":213,"x_max":828,"o":"m 713 1042 q 663 1141 713 1103 q 521 1179 614 1179 q 378 1141 428 1179 q 329 1042 329 1103 l 213 1042 q 302 1220 213 1153 q 521 1288 390 1288 q 740 1220 652 1288 q 828 1042 828 1153 l 713 1042 m 503 -14 q 383 12 438 -14 q 294 82 329 38 q 258 140 271 110 q 239 206 244 170 q 233 266 234 242 q 231 332 231 289 l 231 926 l 347 926 l 347 332 q 349 258 347 282 q 359 203 350 233 q 388 150 369 173 q 521 94 437 94 q 654 150 605 94 q 682 203 673 173 q 693 258 692 233 q 694 332 694 282 l 694 926 l 810 926 l 810 0 l 694 0 l 694 101 l 685 101 q 603 17 652 49 q 503 -14 553 -14 z "},"Ș":{"ha":926,"x_min":204,"x_max":953,"o":"m 647 -285 q 463 -362 587 -362 l 463 -253 q 553 -222 527 -253 q 571 -188 565 -207 q 578 -156 577 -169 q 579 -116 579 -142 l 694 -116 q 693 -170 694 -150 q 680 -224 692 -191 q 647 -285 669 -257 m 561 -14 q 226 14 412 -14 l 226 126 q 561 94 427 94 q 763 163 688 94 q 837 348 837 231 q 807 468 837 414 q 723 554 777 523 q 571 596 676 581 q 420 628 467 611 q 263 746 322 664 q 204 945 204 827 q 304 1190 204 1093 q 561 1288 403 1288 q 895 1265 683 1288 l 895 1156 q 561 1179 675 1179 q 386 1113 451 1179 q 320 945 320 1046 q 351 821 320 873 q 436 741 382 768 q 594 703 477 719 q 769 656 711 686 q 903 530 853 611 q 953 348 953 448 q 845 86 953 186 q 561 -14 736 -14 z "},"ș":{"ha":926,"x_min":212,"x_max":839,"o":"m 647 -285 q 463 -362 587 -362 l 463 -253 q 553 -222 527 -253 q 571 -188 565 -207 q 578 -156 577 -169 q 579 -116 579 -142 l 694 -116 q 693 -170 694 -150 q 680 -224 692 -191 q 647 -285 669 -257 m 513 -14 q 231 5 409 -14 l 231 114 q 513 94 401 94 q 600 106 562 94 q 661 138 637 118 q 698 183 684 157 q 718 231 713 208 q 723 279 723 255 q 699 372 723 332 q 633 432 674 411 q 501 462 593 453 q 363 488 409 470 q 256 569 300 513 q 212 702 212 625 q 291 871 212 802 q 517 940 370 940 q 801 921 618 940 l 801 813 q 517 832 616 832 q 372 793 417 832 q 327 702 327 755 q 350 632 327 661 q 407 590 373 603 q 538 566 441 576 q 689 528 635 556 q 798 428 756 494 q 839 279 839 363 q 818 170 839 222 q 759 77 798 118 q 656 10 720 35 q 513 -14 592 -14 z "},"Ț":{"ha":926,"x_min":116,"x_max":926,"o":"m 590 -273 q 405 -350 529 -350 l 405 -241 q 496 -210 469 -241 q 513 -176 507 -195 q 520 -144 519 -157 q 521 -104 521 -130 l 637 -104 q 635 -159 637 -138 q 623 -212 634 -179 q 590 -273 611 -245 m 926 1273 l 926 1165 l 579 1165 l 579 0 l 463 0 l 463 1165 l 116 1165 l 116 1273 l 926 1273 z "},"ț":{"ha":926,"x_min":116,"x_max":810,"o":"m 647 -285 q 463 -362 587 -362 l 463 -253 q 553 -222 527 -253 q 571 -188 565 -207 q 578 -156 577 -169 q 579 -116 579 -142 l 694 -116 q 693 -170 694 -150 q 680 -224 692 -191 q 647 -285 669 -257 m 810 -1 q 637 -14 713 -14 q 505 12 564 -14 q 409 83 446 38 q 365 164 380 118 q 349 241 351 210 q 347 326 347 271 l 347 812 l 116 812 l 116 926 l 347 926 l 347 1157 l 463 1157 l 463 926 l 810 926 l 810 812 l 463 812 l 463 335 q 464 260 463 285 q 475 204 466 236 q 502 150 484 173 q 646 94 549 94 q 810 108 710 94 l 810 -1 z "},"ȷ":{"ha":926,"x_min":156,"x_max":694,"o":"m 579 145 l 579 817 l 347 817 l 347 926 l 694 926 l 694 145 q 639 -102 694 -10 q 369 -246 553 -246 q 156 -232 264 -246 l 156 -124 q 369 -137 278 -137 q 539 -49 484 -137 q 579 145 579 15 z "},"ə":{"ha":926,"x_min":203,"x_max":839,"o":"m 410 123 q 433 109 410 123 q 521 94 456 94 q 632 123 586 94 q 697 203 677 152 q 722 354 716 247 l 320 354 q 345 203 326 247 q 410 123 364 152 m 701 36 q 664 11 701 36 q 521 -14 627 -14 q 340 36 415 -14 q 236 167 266 87 q 213 259 221 206 q 204 351 205 311 q 203 463 203 392 l 723 463 q 722 557 723 524 q 715 637 722 590 q 694 713 708 683 q 503 832 642 832 q 231 813 398 832 l 231 921 q 503 940 396 940 q 692 888 615 940 q 803 751 769 836 q 833 629 826 694 q 839 463 839 564 q 838 351 839 392 q 829 259 836 311 q 806 167 821 206 q 701 36 776 87 z "},"ɛ":{"ha":926,"x_min":204,"x_max":812,"o":"m 343 509 l 343 518 q 213 703 213 571 q 302 872 213 803 q 531 940 390 940 q 794 926 639 940 l 794 817 q 531 832 618 832 q 382 793 435 832 q 329 703 329 755 q 365 623 329 656 q 450 580 401 590 q 571 571 492 571 l 696 571 l 696 463 l 571 463 q 460 455 497 463 q 359 394 398 441 q 320 279 320 346 q 378 144 320 194 q 532 94 437 94 q 812 103 651 94 l 812 -5 q 532 -14 656 -14 q 297 67 389 -14 q 204 279 204 149 q 343 509 204 442 z "},"ɜ":{"ha":926,"x_min":231,"x_max":839,"o":"m 701 509 q 839 279 839 442 q 747 67 839 149 q 512 -14 655 -14 q 231 -5 388 -14 l 231 103 q 512 94 392 94 q 665 144 607 94 q 723 279 723 194 q 684 394 723 346 q 583 455 646 441 q 472 463 546 463 l 347 463 l 347 571 l 473 571 q 593 580 552 571 q 679 623 643 590 q 714 703 714 656 q 661 793 714 755 q 513 832 609 832 q 250 817 425 832 l 250 926 q 513 940 404 940 q 742 872 654 940 q 830 703 830 803 q 701 518 830 571 l 701 509 z "},"ʻ":{"ha":926,"x_min":463,"x_max":694,"o":"m 463 1137 q 464 1195 463 1174 q 477 1253 466 1217 q 510 1317 488 1289 q 694 1403 573 1403 l 694 1295 q 604 1254 635 1295 q 586 1218 592 1239 q 580 1181 581 1196 q 579 1137 579 1166 l 579 926 l 463 926 l 463 1137 z "},"ʼ":{"ha":926,"x_min":347,"x_max":579,"o":"m 579 1178 q 577 1119 579 1141 q 565 1062 576 1098 q 532 997 553 1026 q 347 911 468 911 l 347 1020 q 438 1061 407 1020 q 455 1097 449 1076 q 462 1133 461 1119 q 463 1178 463 1148 l 463 1389 l 579 1389 l 579 1178 z "},"̀":{"ha":926,"x_min":326,"x_max":600,"o":"m 600 1157 l 476 1157 l 326 1389 l 450 1389 l 600 1157 z "},"́":{"ha":926,"x_min":441,"x_max":716,"o":"m 441 1157 l 591 1389 l 716 1389 l 566 1157 l 441 1157 z "},"̂":{"ha":926,"x_min":181,"x_max":861,"o":"m 449 1389 l 592 1389 l 861 1157 l 718 1157 l 521 1306 l 324 1157 l 181 1157 l 449 1389 z "},"̃":{"ha":926,"x_min":229,"x_max":813,"o":"m 405 1277 q 345 1175 350 1277 l 229 1180 q 277 1326 231 1267 q 405 1385 323 1385 q 472 1374 441 1385 q 524 1345 504 1362 q 562 1310 544 1327 q 599 1281 581 1293 q 637 1270 618 1270 q 697 1372 692 1270 l 813 1366 q 765 1221 811 1281 q 637 1161 719 1161 q 569 1173 600 1161 q 518 1202 538 1185 q 479 1236 497 1219 q 443 1265 461 1253 q 405 1277 424 1277 z "},"̄":{"ha":926,"x_min":231,"x_max":810,"o":"m 231 1270 l 810 1270 l 810 1161 l 231 1161 l 231 1270 z "},"̆":{"ha":926,"x_min":213,"x_max":828,"o":"m 713 1389 l 828 1389 q 740 1210 828 1278 q 521 1143 652 1143 q 302 1210 390 1143 q 213 1389 213 1278 l 329 1389 q 378 1289 329 1327 q 521 1251 428 1251 q 663 1289 614 1251 q 713 1389 713 1327 z "},"̇":{"ha":926,"x_min":420,"x_max":622,"o":"m 448 1375 q 462 1389 448 1375 q 521 1403 476 1403 q 594 1375 566 1403 q 622 1302 622 1347 q 594 1229 622 1257 q 521 1201 566 1201 q 448 1229 476 1201 q 420 1302 420 1257 q 448 1375 420 1347 z "},"̈":{"ha":926,"x_min":217,"x_max":825,"o":"m 650 1346 q 664 1360 650 1346 q 723 1374 678 1374 q 797 1346 769 1374 q 825 1273 825 1318 q 797 1200 825 1228 q 723 1172 769 1172 q 650 1200 678 1172 q 622 1273 622 1228 q 650 1346 622 1318 m 245 1346 q 259 1360 245 1346 q 318 1374 273 1374 q 392 1346 363 1374 q 420 1273 420 1318 q 392 1200 420 1228 q 318 1172 363 1172 q 245 1200 273 1172 q 217 1273 217 1228 q 245 1346 217 1318 z "},"̊":{"ha":926,"x_min":315,"x_max":727,"o":"m 373 1304 q 401 1334 373 1304 q 521 1364 430 1364 q 669 1304 611 1364 q 727 1157 727 1245 q 669 1010 727 1070 q 521 951 611 951 q 373 1010 430 951 q 315 1157 315 1070 q 373 1304 315 1245 m 600 1243 q 585 1258 600 1243 q 521 1273 570 1273 q 442 1243 472 1273 q 412 1157 412 1213 q 442 1072 412 1102 q 521 1042 472 1042 q 600 1072 570 1042 q 629 1157 629 1102 q 600 1243 629 1213 z "},"̋":{"ha":926,"x_min":268,"x_max":890,"o":"m 615 1157 l 765 1389 l 890 1389 l 740 1157 l 615 1157 m 268 1157 l 418 1389 l 543 1389 l 392 1157 l 268 1157 z "},"̌":{"ha":926,"x_min":181,"x_max":861,"o":"m 449 1157 l 181 1389 l 324 1389 l 521 1241 l 718 1389 l 861 1389 l 592 1157 l 449 1157 z "},"̏":{"ha":926,"x_min":152,"x_max":774,"o":"m 427 1157 l 302 1157 l 152 1389 l 277 1389 l 427 1157 m 774 1157 l 649 1157 l 499 1389 l 624 1389 l 774 1157 z "},"̑":{"ha":926,"x_min":213,"x_max":828,"o":"m 713 1157 q 663 1257 713 1219 q 521 1295 614 1295 q 378 1257 428 1295 q 329 1157 329 1219 l 213 1157 q 302 1336 213 1269 q 521 1403 390 1403 q 740 1336 652 1403 q 828 1157 828 1269 l 713 1157 z "},"̒":{"ha":926,"x_min":347,"x_max":579,"o":"m 347 1252 q 349 1311 347 1289 q 361 1369 350 1333 q 394 1433 373 1404 q 579 1519 458 1519 l 579 1411 q 488 1370 519 1411 q 471 1333 477 1355 q 464 1297 465 1312 q 463 1252 463 1282 l 463 1157 l 347 1157 l 347 1252 z "},"̕":{"ha":926,"x_min":463,"x_max":579,"o":"m 463 1505 l 579 1505 l 579 926 l 463 926 l 463 1505 z "},"̦":{"ha":926,"x_min":347,"x_max":579,"o":"m 532 -285 q 347 -362 471 -362 l 347 -253 q 438 -222 411 -253 q 455 -188 449 -207 q 462 -156 461 -169 q 463 -116 463 -142 l 579 -116 q 577 -170 579 -150 q 565 -224 576 -191 q 532 -285 553 -257 z "},"̧":{"ha":926,"x_min":231,"x_max":579,"o":"m 579 21 q 577 -38 579 -16 q 565 -95 576 -60 q 532 -160 553 -131 q 347 -246 468 -246 q 231 -231 304 -246 l 231 -119 q 347 -137 310 -137 q 438 -97 407 -137 q 455 -60 449 -81 q 462 -24 461 -39 q 463 21 463 -9 l 579 21 z "},"̨":{"ha":926,"x_min":341,"x_max":579,"o":"m 521 -208 q 579 -203 556 -208 l 579 -312 q 503 -316 549 -316 q 392 -274 443 -316 q 341 -167 341 -232 q 463 0 341 -74 l 579 0 q 480 -66 510 -33 q 450 -143 450 -98 q 472 -192 450 -175 q 521 -208 493 -208 z "},"̩":{"ha":926,"x_min":463,"x_max":579,"o":"m 463 -116 l 579 -116 l 579 -347 l 463 -347 l 463 -116 z "},"΄":{"ha":926,"x_min":456,"x_max":710,"o":"m 624 1300 l 710 1228 l 524 1023 l 456 1080 l 624 1300 z "},"΅":{"ha":926,"x_min":163,"x_max":879,"o":"m 704 1202 q 718 1216 704 1202 q 778 1230 732 1230 q 851 1202 823 1230 q 879 1128 879 1174 q 851 1055 879 1083 q 778 1027 823 1027 q 704 1055 732 1027 q 676 1128 676 1083 q 704 1202 676 1174 m 191 1202 q 205 1216 191 1202 q 264 1230 219 1230 q 337 1202 309 1230 q 365 1128 365 1174 q 337 1055 365 1083 q 264 1027 309 1027 q 191 1055 219 1027 q 163 1128 163 1083 q 191 1202 163 1174 m 624 1416 l 711 1344 l 524 1138 l 456 1195 l 624 1416 z "},"Ά":{"ha":926,"x_min":2,"x_max":949,"o":"m 170 1300 l 256 1228 l 70 1023 l 2 1080 l 170 1300 m 93 0 q 462 1273 174 758 l 580 1273 q 949 0 868 758 l 826 0 q 815 110 822 55 q 793 249 807 165 q 777 351 779 333 l 265 351 q 251 268 260 323 q 237 178 242 213 q 225 93 231 143 q 215 0 219 43 l 93 0 m 756 459 q 651 852 705 682 q 525 1166 598 1022 l 516 1166 q 390 852 444 1022 q 286 459 336 682 l 756 459 z "},"Έ":{"ha":926,"x_min":-114,"x_max":926,"o":"m 54 1300 l 140 1228 l -46 1023 l -114 1080 l 54 1300 m 231 1273 l 926 1273 l 926 1165 l 347 1165 l 347 691 l 810 691 l 810 582 l 347 582 l 347 109 l 926 109 l 926 0 l 231 0 l 231 1273 z "},"Ή":{"ha":926,"x_min":-213,"x_max":926,"o":"m -45 1300 l 41 1228 l -146 1023 l -213 1080 l -45 1300 m 116 1273 l 231 1273 l 231 691 l 810 691 l 810 1273 l 926 1273 l 926 0 l 810 0 l 810 582 l 231 582 l 231 0 l 116 0 l 116 1273 z "},"Ί":{"ha":926,"x_min":-96,"x_max":810,"o":"m 72 1300 l 158 1228 l -28 1023 l -96 1080 l 72 1300 m 810 1273 l 810 1165 l 579 1165 l 579 109 l 810 109 l 810 0 l 231 0 l 231 109 l 463 109 l 463 1165 l 231 1165 l 231 1273 l 810 1273 z "},"Ό":{"ha":926,"x_min":-113,"x_max":940,"o":"m 55 1300 l 141 1228 l -45 1023 l -113 1080 l 55 1300 m 703 1109 q 667 1144 703 1109 q 521 1179 631 1179 q 338 1109 411 1179 q 240 928 266 1038 q 217 637 217 831 q 240 345 217 442 q 338 165 266 235 q 521 94 411 94 q 703 165 631 94 q 802 345 776 235 q 825 637 825 442 q 802 928 825 831 q 703 1109 776 1038 m 264 1193 q 316 1240 264 1193 q 521 1288 367 1288 q 778 1193 675 1288 q 915 952 881 1099 q 940 637 940 845 q 915 321 940 428 q 778 80 881 175 q 521 -14 675 -14 q 264 80 367 -14 q 127 321 161 175 q 101 637 101 428 q 127 952 101 845 q 264 1193 161 1099 z "},"Ύ":{"ha":926,"x_min":-222,"x_max":939,"o":"m -54 1300 l 32 1228 l -155 1023 l -222 1080 l -54 1300 m 102 1273 l 215 1273 q 507 669 310 888 l 534 669 q 826 1273 732 888 l 939 1273 q 809 898 894 1072 q 579 570 724 724 l 579 0 l 463 0 l 463 570 q 232 898 317 724 q 102 1273 147 1072 z "},"Ώ":{"ha":926,"x_min":-113,"x_max":940,"o":"m 55 1300 l 141 1228 l -45 1023 l -113 1080 l 55 1300 m 940 752 q 902 372 940 509 q 778 118 867 241 l 778 109 l 926 109 l 926 0 l 642 0 l 642 87 q 794 396 751 222 q 825 752 825 520 q 797 985 825 901 q 697 1128 766 1076 q 521 1179 628 1179 q 345 1128 414 1179 q 245 985 276 1076 q 217 752 217 901 q 248 396 217 520 q 400 87 291 222 l 400 0 l 116 0 l 116 109 l 264 109 l 264 118 q 139 372 175 241 q 101 752 101 509 q 135 1016 101 915 q 275 1213 175 1139 q 521 1288 375 1288 q 766 1213 666 1288 q 907 1016 866 1139 q 940 752 940 915 z "},"ΐ":{"ha":926,"x_min":163,"x_max":879,"o":"m 810 -2 q 685 -14 741 -14 q 529 47 589 -14 q 483 121 498 79 q 465 188 467 163 q 463 252 463 212 l 463 926 l 579 926 l 579 252 q 580 209 579 224 q 586 172 581 194 q 604 134 592 150 q 694 94 634 94 q 810 108 749 94 l 810 -2 m 704 1202 q 718 1216 704 1202 q 778 1230 732 1230 q 851 1202 823 1230 q 879 1128 879 1174 q 851 1055 879 1083 q 778 1027 823 1027 q 704 1055 732 1027 q 676 1128 676 1083 q 704 1202 676 1174 m 191 1202 q 205 1216 191 1202 q 264 1230 219 1230 q 337 1202 309 1230 q 365 1128 365 1174 q 337 1055 365 1083 q 264 1027 309 1027 q 191 1055 219 1027 q 163 1128 163 1083 q 191 1202 163 1174 m 624 1416 l 711 1344 l 524 1138 l 456 1195 l 624 1416 z "},"Α":{"ha":926,"x_min":93,"x_max":949,"o":"m 93 0 q 462 1273 174 758 l 580 1273 q 949 0 868 758 l 826 0 q 815 110 822 55 q 793 249 807 165 q 777 351 779 333 l 265 351 q 251 268 260 323 q 237 178 242 213 q 225 93 231 143 q 215 0 219 43 l 93 0 m 756 459 q 651 852 705 682 q 525 1166 598 1022 l 516 1166 q 390 852 444 1022 q 286 459 336 682 l 756 459 z "},"Β":{"ha":926,"x_min":116,"x_max":904,"o":"m 406 694 q 543 703 507 694 q 664 782 618 722 q 709 930 709 842 q 663 1079 709 1018 q 543 1156 618 1139 q 406 1165 503 1165 l 231 1165 l 231 694 l 406 694 m 675 656 q 841 545 778 628 q 904 347 904 461 q 838 131 904 221 q 666 14 771 41 q 473 0 608 0 l 116 0 l 116 1273 l 406 1273 q 572 1261 523 1273 q 754 1147 684 1235 q 825 930 825 1058 q 784 771 825 839 q 675 666 744 703 l 675 656 m 231 586 l 231 109 l 473 109 q 637 119 596 109 q 746 199 704 137 q 788 347 788 260 q 747 497 788 435 q 637 575 705 559 q 473 586 592 586 l 231 586 z "},"Γ":{"ha":926,"x_min":231,"x_max":926,"o":"m 231 1273 l 926 1273 l 926 1165 l 347 1165 l 347 0 l 231 0 l 231 1273 z "},"Δ":{"ha":926,"x_min":93,"x_max":949,"o":"m 93 0 q 462 1273 174 758 l 580 1273 q 949 0 868 758 l 93 0 m 815 109 q 525 1166 754 675 l 516 1166 q 227 109 283 664 l 815 109 z "},"Ε":{"ha":926,"x_min":231,"x_max":926,"o":"m 231 1273 l 926 1273 l 926 1165 l 347 1165 l 347 694 l 810 694 l 810 586 l 347 586 l 347 109 l 926 109 l 926 0 l 231 0 l 231 1273 z "},"Ζ":{"ha":926,"x_min":116,"x_max":926,"o":"m 134 1165 l 134 1273 l 908 1273 l 908 1192 l 265 118 l 265 109 l 926 109 l 926 0 l 116 0 l 116 83 l 759 1156 l 759 1165 l 134 1165 z "},"Η":{"ha":926,"x_min":116,"x_max":926,"o":"m 116 1273 l 231 1273 l 231 691 l 810 691 l 810 1273 l 926 1273 l 926 0 l 810 0 l 810 582 l 231 582 l 231 0 l 116 0 l 116 1273 z "},"Θ":{"ha":926,"x_min":101,"x_max":940,"o":"m 521 1179 q 337 1109 410 1179 q 240 928 265 1038 q 217 637 217 831 q 240 345 217 442 q 338 165 266 235 q 521 94 411 94 q 704 165 632 94 q 802 345 777 235 q 825 637 825 442 q 802 928 825 831 q 703 1109 776 1038 q 521 1179 631 1179 m 264 1193 q 316 1240 264 1193 q 521 1288 367 1288 q 778 1193 675 1288 q 915 952 881 1099 q 940 637 940 845 q 915 321 940 428 q 778 80 881 175 q 521 -14 675 -14 q 264 80 367 -14 q 127 321 161 175 q 101 637 101 428 q 127 952 101 845 q 264 1193 161 1099 m 347 694 l 694 694 l 694 586 l 347 586 l 347 694 z "},"Ι":{"ha":926,"x_min":231,"x_max":810,"o":"m 810 1273 l 810 1165 l 579 1165 l 579 109 l 810 109 l 810 0 l 231 0 l 231 109 l 463 109 l 463 1165 l 231 1165 l 231 1273 l 810 1273 z "},"Κ":{"ha":926,"x_min":116,"x_max":960,"o":"m 231 0 l 116 0 l 116 1273 l 231 1273 l 231 650 l 751 1273 l 876 1273 l 435 735 l 960 0 l 818 0 l 358 652 l 231 505 l 231 0 z "},"Λ":{"ha":926,"x_min":93,"x_max":949,"o":"m 525 1166 l 516 1166 q 320 628 399 932 q 215 0 241 325 l 93 0 q 462 1273 174 758 l 580 1273 q 949 0 868 758 l 826 0 q 722 628 800 325 q 525 1166 643 931 z "},"Μ":{"ha":926,"x_min":116,"x_max":926,"o":"m 231 0 l 116 0 l 116 1273 l 231 1273 l 516 705 l 526 705 l 810 1273 l 926 1273 l 926 0 l 810 0 l 810 1040 l 801 1040 l 571 579 l 471 579 l 241 1040 l 231 1040 l 231 0 z "},"Ν":{"ha":926,"x_min":116,"x_max":926,"o":"m 231 0 l 116 0 l 116 1273 l 231 1273 l 801 226 l 810 226 l 810 1273 l 926 1273 l 926 0 l 810 0 l 241 1047 l 231 1047 l 231 0 z "},"Ξ":{"ha":926,"x_min":116,"x_max":926,"o":"m 116 1273 l 926 1273 l 926 1165 l 116 1165 l 116 1273 m 116 109 l 926 109 l 926 0 l 116 0 l 116 109 m 231 691 l 810 691 l 810 582 l 231 582 l 231 691 z "},"Ο":{"ha":926,"x_min":101,"x_max":940,"o":"m 703 1109 q 667 1144 703 1109 q 521 1179 631 1179 q 338 1109 411 1179 q 240 928 266 1038 q 217 637 217 831 q 240 345 217 442 q 338 165 266 235 q 521 94 411 94 q 703 165 631 94 q 802 345 776 235 q 825 637 825 442 q 802 928 825 831 q 703 1109 776 1038 m 264 1193 q 316 1240 264 1193 q 521 1288 367 1288 q 778 1193 675 1288 q 915 952 881 1099 q 940 637 940 845 q 915 321 940 428 q 778 80 881 175 q 521 -14 675 -14 q 264 80 367 -14 q 127 321 161 175 q 101 637 101 428 q 127 952 101 845 q 264 1193 161 1099 z "},"Π":{"ha":926,"x_min":116,"x_max":926,"o":"m 116 1273 l 926 1273 l 926 0 l 810 0 l 810 1165 l 231 1165 l 231 0 l 116 0 l 116 1273 z "},"Ρ":{"ha":926,"x_min":231,"x_max":940,"o":"m 522 687 q 659 696 618 687 q 779 774 733 713 q 825 926 825 836 q 779 1077 825 1015 q 659 1156 733 1139 q 522 1165 618 1165 l 347 1165 l 347 687 l 522 687 m 347 0 l 231 0 l 231 1273 l 522 1273 q 688 1261 638 1273 q 870 1145 799 1235 q 940 926 940 1055 q 870 707 940 797 q 688 590 799 617 q 522 579 638 579 l 347 579 l 347 0 z "},"Σ":{"ha":926,"x_min":231,"x_max":926,"o":"m 563 641 l 231 1190 l 231 1273 l 926 1273 l 926 1165 l 381 1165 l 381 1156 l 664 680 l 664 593 l 381 118 l 381 109 l 926 109 l 926 0 l 231 0 l 231 83 l 563 632 l 563 641 z "},"Τ":{"ha":926,"x_min":116,"x_max":926,"o":"m 926 1273 l 926 1165 l 579 1165 l 579 0 l 463 0 l 463 1165 l 116 1165 l 116 1273 l 926 1273 z "},"Υ":{"ha":926,"x_min":90,"x_max":951,"o":"m 530 670 q 828 1273 689 904 l 951 1273 q 781 883 869 1059 q 579 557 693 708 l 579 0 l 463 0 l 463 557 q 261 883 349 708 q 90 1273 173 1059 l 213 1273 q 512 670 352 906 l 530 670 z "},"Φ":{"ha":926,"x_min":101,"x_max":940,"o":"m 579 214 q 799 410 749 241 q 825 637 825 495 q 799 864 825 779 q 579 1059 749 1033 l 579 214 m 242 864 q 217 637 217 779 q 242 410 217 495 q 463 214 293 241 l 463 1059 q 242 864 293 1033 m 131 380 q 101 637 101 477 q 131 893 101 796 q 252 1082 167 1009 q 463 1169 336 1156 l 463 1273 l 579 1273 l 579 1169 q 790 1082 705 1156 q 911 893 874 1009 q 940 637 940 796 q 911 380 940 477 q 790 191 874 264 q 579 104 705 118 l 579 0 l 463 0 l 463 104 q 252 191 336 118 q 131 380 167 264 z "},"Χ":{"ha":926,"x_min":80,"x_max":961,"o":"m 516 745 l 525 745 l 799 1273 l 932 1273 l 597 652 l 597 643 l 961 0 l 827 0 l 525 550 l 516 550 l 214 0 l 80 0 l 445 643 l 445 652 l 109 1273 l 242 1273 l 516 745 z "},"Ψ":{"ha":926,"x_min":116,"x_max":926,"o":"m 463 335 q 254 397 340 344 q 135 545 168 450 q 116 694 116 600 l 116 1273 l 231 1273 l 231 694 q 245 579 231 619 q 463 443 287 458 l 463 1273 l 579 1273 l 579 443 q 797 579 755 458 q 810 694 810 619 l 810 1273 l 926 1273 l 926 694 q 907 545 926 600 q 788 397 873 450 q 579 335 702 344 l 579 0 l 463 0 l 463 335 z "},"Ω":{"ha":926,"x_min":101,"x_max":940,"o":"m 940 752 q 902 372 940 509 q 778 118 867 241 l 778 109 l 926 109 l 926 0 l 642 0 l 642 87 q 794 396 751 222 q 825 752 825 520 q 797 985 825 901 q 697 1128 766 1076 q 521 1179 628 1179 q 345 1128 414 1179 q 245 985 276 1076 q 217 752 217 901 q 248 396 217 520 q 400 87 291 222 l 400 0 l 116 0 l 116 109 l 264 109 l 264 118 q 139 372 175 241 q 101 752 101 509 q 135 1016 101 915 q 275 1213 175 1139 q 521 1288 375 1288 q 766 1213 666 1288 q 907 1016 866 1139 q 940 752 940 915 z "},"Ϊ":{"ha":926,"x_min":217,"x_max":825,"o":"m 650 1578 q 664 1592 650 1578 q 723 1606 678 1606 q 797 1578 769 1606 q 825 1505 825 1550 q 797 1431 825 1459 q 723 1403 769 1403 q 650 1431 678 1403 q 622 1505 622 1459 q 650 1578 622 1550 m 245 1578 q 259 1592 245 1578 q 318 1606 273 1606 q 392 1578 363 1606 q 420 1505 420 1550 q 392 1431 420 1459 q 318 1403 363 1403 q 245 1431 273 1403 q 217 1505 217 1459 q 245 1578 217 1550 m 810 1273 l 810 1165 l 579 1165 l 579 109 l 810 109 l 810 0 l 231 0 l 231 109 l 463 109 l 463 1165 l 231 1165 l 231 1273 l 810 1273 z "},"Ϋ":{"ha":926,"x_min":90,"x_max":951,"o":"m 650 1578 q 664 1592 650 1578 q 723 1606 678 1606 q 797 1578 769 1606 q 825 1505 825 1550 q 797 1431 825 1459 q 723 1403 769 1403 q 650 1431 678 1403 q 622 1505 622 1459 q 650 1578 622 1550 m 245 1578 q 259 1592 245 1578 q 318 1606 273 1606 q 392 1578 363 1606 q 420 1505 420 1550 q 392 1431 420 1459 q 318 1403 363 1403 q 245 1431 273 1403 q 217 1505 217 1459 q 245 1578 217 1550 m 530 670 q 828 1273 689 904 l 951 1273 q 781 883 869 1059 q 579 557 693 708 l 579 0 l 463 0 l 463 557 q 261 883 349 708 q 90 1273 173 1059 l 213 1273 q 512 670 352 906 l 530 670 z "},"ά":{"ha":926,"x_min":203,"x_max":926,"o":"m 624 1300 l 710 1228 l 524 1023 l 456 1080 l 624 1300 m 701 107 q 605 14 655 42 q 488 -14 555 -14 q 329 42 399 -14 q 228 200 260 99 q 210 285 216 238 q 203 365 204 332 q 203 463 203 398 q 203 561 203 528 q 210 641 204 594 q 228 726 216 688 q 329 884 260 827 q 488 940 399 940 q 685 813 604 940 l 694 813 l 694 926 l 810 926 l 810 188 q 811 162 810 171 q 818 141 812 154 q 836 118 824 127 q 926 93 866 93 l 926 -14 q 760 33 820 -14 q 710 107 722 62 l 701 107 m 609 793 q 588 812 609 793 q 506 832 567 832 q 404 793 446 832 q 342 694 362 753 q 318 463 318 623 q 342 231 318 303 q 404 133 362 173 q 506 94 446 94 q 609 133 567 94 q 671 231 651 173 q 694 463 694 303 q 671 694 694 623 q 609 793 651 753 z "},"έ":{"ha":926,"x_min":204,"x_max":812,"o":"m 624 1300 l 710 1228 l 524 1023 l 456 1080 l 624 1300 m 343 509 l 343 518 q 213 703 213 571 q 302 872 213 803 q 531 940 390 940 q 794 926 639 940 l 794 817 q 531 832 618 832 q 382 793 435 832 q 329 703 329 755 q 365 623 329 656 q 450 580 401 590 q 571 571 492 571 l 696 571 l 696 463 l 571 463 q 460 455 497 463 q 359 394 398 441 q 320 279 320 346 q 378 144 320 194 q 532 94 437 94 q 812 103 651 94 l 812 -5 q 532 -14 656 -14 q 297 67 389 -14 q 204 279 204 149 q 343 509 204 442 z "},"ή":{"ha":926,"x_min":231,"x_max":810,"o":"m 581 1322 l 666 1250 l 480 1044 l 412 1101 l 581 1322 m 539 940 q 658 914 604 940 q 748 844 713 888 q 784 786 770 816 q 802 720 798 756 q 809 660 807 684 q 810 594 810 637 l 810 -347 l 694 -347 l 694 594 q 693 668 694 644 q 682 723 692 693 q 654 776 673 753 q 521 832 605 832 q 388 776 437 832 q 359 723 369 753 q 349 668 350 693 q 347 594 347 644 l 347 0 l 231 0 l 231 926 l 347 926 l 347 825 l 356 825 q 439 909 390 877 q 539 940 488 940 z "},"ί":{"ha":926,"x_min":456,"x_max":810,"o":"m 624 1300 l 710 1228 l 524 1023 l 456 1080 l 624 1300 m 810 -2 q 685 -14 741 -14 q 529 47 589 -14 q 483 121 498 79 q 465 188 467 163 q 463 252 463 212 l 463 926 l 579 926 l 579 252 q 580 209 579 224 q 586 172 581 194 q 604 134 592 150 q 694 94 634 94 q 810 108 749 94 l 810 -2 z "},"ΰ":{"ha":926,"x_min":163,"x_max":879,"o":"m 704 1202 q 718 1216 704 1202 q 778 1230 732 1230 q 851 1202 823 1230 q 879 1128 879 1174 q 851 1055 879 1083 q 778 1027 823 1027 q 704 1055 732 1027 q 676 1128 676 1083 q 704 1202 676 1174 m 191 1202 q 205 1216 191 1202 q 264 1230 219 1230 q 337 1202 309 1230 q 365 1128 365 1174 q 337 1055 365 1083 q 264 1027 309 1027 q 191 1055 219 1027 q 163 1128 163 1083 q 191 1202 163 1174 m 624 1416 l 711 1344 l 524 1138 l 456 1195 l 624 1416 m 810 305 m 231 305 l 231 926 l 347 926 l 347 305 q 354 217 347 246 q 412 127 368 161 q 521 94 456 94 q 630 127 586 94 q 687 217 674 161 q 694 305 694 246 l 694 926 l 810 926 l 810 305 q 802 194 810 233 q 709 43 783 100 q 521 -14 635 -14 q 333 43 407 -14 q 240 194 259 100 q 231 305 231 233 m 347 305 z "},"α":{"ha":926,"x_min":203,"x_max":926,"o":"m 701 107 q 605 14 655 42 q 488 -14 555 -14 q 329 42 399 -14 q 228 200 260 99 q 210 285 216 238 q 203 365 204 332 q 203 463 203 398 q 203 561 203 528 q 210 641 204 594 q 228 726 216 688 q 329 884 260 827 q 488 940 399 940 q 685 813 604 940 l 694 813 l 694 926 l 810 926 l 810 188 q 811 162 810 171 q 818 141 812 154 q 836 118 824 127 q 926 93 866 93 l 926 -14 q 760 33 820 -14 q 710 107 722 62 l 701 107 m 609 793 q 588 812 609 793 q 506 832 567 832 q 404 793 446 832 q 342 694 362 753 q 318 463 318 623 q 342 231 318 303 q 404 133 362 173 q 506 94 446 94 q 609 133 567 94 q 671 231 651 173 q 694 463 694 303 q 671 694 694 623 q 609 793 651 753 z "},"β":{"ha":926,"x_min":231,"x_max":839,"o":"m 642 753 q 797 633 754 719 q 839 396 839 547 q 812 184 839 273 q 719 40 784 95 q 553 -14 654 -14 q 347 6 460 -14 l 347 -347 l 231 -347 l 231 975 q 302 1202 231 1117 q 508 1288 372 1288 q 699 1204 627 1288 q 770 993 770 1120 q 743 852 770 910 q 642 762 716 794 l 642 753 m 347 116 q 535 94 476 94 q 617 111 582 94 q 672 154 652 127 q 704 222 692 181 q 720 303 716 263 q 723 396 723 344 q 713 518 723 468 q 677 611 703 568 q 597 676 650 655 q 463 698 543 698 l 463 807 q 613 853 571 807 q 655 993 655 899 q 617 1130 655 1081 q 508 1179 579 1179 q 382 1128 417 1179 q 347 975 347 1077 l 347 116 z "},"γ":{"ha":926,"x_min":182,"x_max":860,"o":"m 182 926 l 304 926 q 516 137 360 448 l 525 137 q 738 926 682 448 l 860 926 q 579 -1 796 375 l 579 -347 l 463 -347 l 463 -1 q 182 926 246 375 z "},"δ":{"ha":926,"x_min":203,"x_max":839,"o":"m 521 716 q 409 684 455 716 q 342 598 363 651 q 318 405 318 540 q 342 212 318 271 q 411 126 364 157 q 521 94 458 94 q 631 126 584 94 q 700 212 677 157 q 723 405 723 271 q 703 598 723 546 q 635 684 683 653 q 521 716 588 716 m 507 808 q 304 1058 304 913 q 344 1183 304 1129 q 446 1262 384 1236 q 579 1288 507 1288 q 694 1280 626 1288 l 694 1170 q 579 1179 613 1179 q 466 1148 512 1179 q 420 1058 420 1117 q 431 999 420 1025 q 467 951 443 972 q 512 916 491 930 q 568 883 533 902 q 619 854 603 864 q 796 666 748 769 q 831 547 823 608 q 839 405 839 486 q 834 276 839 326 q 808 176 828 225 q 703 40 776 94 q 539 -14 630 -14 q 233 176 310 -14 q 208 276 213 225 q 203 405 203 326 q 208 537 203 486 q 234 636 214 588 q 474 801 302 801 q 507 799 484 801 l 507 808 z "},"ε":{"ha":926,"x_min":204,"x_max":812,"o":"m 343 509 l 343 518 q 213 703 213 571 q 302 872 213 803 q 531 940 390 940 q 794 926 639 940 l 794 817 q 531 832 618 832 q 382 793 435 832 q 329 703 329 755 q 365 623 329 656 q 450 580 401 590 q 571 571 492 571 l 696 571 l 696 463 l 571 463 q 460 455 497 463 q 359 394 398 441 q 320 279 320 346 q 378 144 320 194 q 532 94 437 94 q 812 103 651 94 l 812 -5 q 532 -14 656 -14 q 297 67 389 -14 q 204 279 204 149 q 343 509 204 442 z "},"ζ":{"ha":926,"x_min":203,"x_max":810,"o":"m 531 94 q 570 95 541 94 q 616 96 599 96 q 736 59 687 96 q 800 -37 784 22 q 810 -138 810 -73 l 810 -231 l 712 -231 l 703 -138 q 679 -42 696 -72 q 612 -13 662 -13 q 573 -14 600 -13 q 529 -14 545 -14 q 378 19 445 -14 q 270 109 312 52 q 203 349 203 199 q 240 576 203 457 q 340 801 278 694 q 471 999 401 908 q 615 1165 541 1090 l 231 1165 l 231 1273 l 796 1273 l 796 1178 q 631 1017 713 1109 q 478 815 550 924 q 362 582 406 705 q 318 347 318 458 q 365 171 318 234 q 531 94 422 95 z "},"η":{"ha":926,"x_min":231,"x_max":810,"o":"m 539 940 q 658 914 604 940 q 748 844 713 888 q 784 786 770 816 q 802 720 798 756 q 809 660 807 684 q 810 594 810 637 l 810 -347 l 694 -347 l 694 594 q 693 668 694 644 q 682 723 692 693 q 654 776 673 753 q 521 832 605 832 q 388 776 437 832 q 359 723 369 753 q 349 668 350 693 q 347 594 347 644 l 347 0 l 231 0 l 231 926 l 347 926 l 347 825 l 356 825 q 439 909 390 877 q 539 940 488 940 z "},"θ":{"ha":926,"x_min":229,"x_max":813,"o":"m 701 582 l 341 582 q 365 239 341 316 q 425 135 386 174 q 521 96 463 96 q 617 135 579 96 q 676 239 656 174 q 701 582 701 316 m 617 1138 q 598 1158 617 1138 q 521 1177 579 1177 q 425 1138 463 1177 q 365 1034 386 1100 q 341 691 341 957 l 701 691 q 676 1034 701 957 q 617 1138 656 1100 m 264 1093 q 521 1289 338 1289 q 778 1093 703 1289 q 802 971 794 1049 q 812 830 810 893 q 813 637 813 766 q 812 444 813 507 q 802 302 810 380 q 778 180 794 224 q 521 -16 703 -16 q 264 180 338 -16 q 240 302 248 224 q 230 444 231 380 q 229 637 229 507 q 230 830 229 766 q 240 971 231 893 q 264 1093 248 1049 z "},"ι":{"ha":926,"x_min":463,"x_max":810,"o":"m 810 -2 q 685 -14 741 -14 q 529 47 589 -14 q 483 121 498 79 q 465 188 467 163 q 463 252 463 212 l 463 926 l 579 926 l 579 252 q 580 209 579 224 q 586 172 581 194 q 604 134 592 150 q 694 94 634 94 q 810 108 749 94 l 810 -2 z "},"κ":{"ha":926,"x_min":231,"x_max":906,"o":"m 347 0 l 231 0 l 231 926 l 347 926 l 347 549 l 709 926 l 864 926 l 535 583 l 906 0 l 765 0 l 460 506 l 347 393 l 347 0 z "},"λ":{"ha":926,"x_min":184,"x_max":857,"o":"m 550 822 l 541 822 q 303 0 399 502 l 184 0 q 304 497 239 272 q 467 926 370 722 l 514 926 q 475 1035 486 1007 q 448 1095 465 1063 q 410 1142 430 1127 q 231 1179 362 1179 l 231 1288 q 495 1216 410 1288 q 612 992 558 1164 q 751 504 697 725 q 857 0 804 282 l 739 0 q 550 822 644 502 z "},"μ":{"ha":926,"x_min":231,"x_max":810,"o":"m 611 17 q 589 1 611 17 q 521 -14 567 -14 q 430 17 475 -14 q 356 101 386 49 l 347 101 l 347 -347 l 231 -347 l 231 926 l 347 926 l 347 332 q 349 258 347 282 q 359 203 350 233 q 388 150 369 173 q 521 94 437 94 q 654 150 605 94 q 682 203 673 173 q 693 258 692 233 q 694 332 694 282 l 694 926 l 810 926 l 810 0 l 694 0 l 694 101 l 685 101 q 611 17 656 49 z "},"ν":{"ha":926,"x_min":182,"x_max":860,"o":"m 182 926 l 304 926 q 516 108 359 431 l 525 108 q 738 926 683 431 l 860 926 q 593 0 801 380 l 448 0 q 182 926 241 380 z "},"ξ":{"ha":926,"x_min":203,"x_max":810,"o":"m 350 748 l 350 757 q 254 854 288 792 q 221 991 221 916 q 305 1204 221 1121 q 557 1288 390 1288 q 810 1272 655 1288 l 810 1164 q 557 1179 655 1179 q 336 991 336 1179 q 364 885 336 930 q 446 817 392 840 q 551 803 480 803 l 694 803 l 694 694 l 552 694 q 439 680 477 694 q 348 588 377 656 q 318 394 318 520 q 328 276 318 327 q 361 182 338 224 q 427 117 384 139 q 531 94 470 94 q 571 95 542 94 q 616 96 600 96 q 736 59 687 96 q 800 -37 784 22 q 810 -138 810 -72 l 810 -231 l 712 -231 l 703 -138 q 679 -42 696 -72 q 612 -13 662 -13 q 573 -14 600 -13 q 529 -14 545 -14 q 381 17 445 -14 q 279 105 317 49 q 222 234 241 162 q 203 394 203 307 q 239 611 203 530 q 350 748 276 693 z "},"ο":{"ha":926,"x_min":203,"x_max":839,"o":"m 345 887 q 381 914 345 887 q 521 940 418 940 q 697 887 624 940 q 803 750 769 834 q 833 628 826 692 q 839 463 839 563 q 833 298 839 363 q 803 176 826 234 q 697 39 769 92 q 521 -14 624 -14 q 345 39 418 -14 q 239 176 272 92 q 209 298 215 234 q 203 463 203 363 q 209 628 203 563 q 239 750 215 692 q 345 887 272 834 m 694 713 q 521 832 647 832 q 347 713 395 832 q 318 463 318 641 q 347 212 318 285 q 521 94 395 94 q 694 212 647 94 q 723 463 723 285 q 694 713 723 641 z "},"π":{"ha":926,"x_min":116,"x_max":926,"o":"m 810 817 l 810 0 l 694 0 l 694 817 l 347 817 l 347 0 l 231 0 l 231 817 l 116 817 l 116 926 l 926 926 l 926 817 l 810 817 z "},"ρ":{"ha":926,"x_min":231,"x_max":839,"o":"m 539 832 q 430 800 475 832 q 370 713 385 769 q 347 463 347 643 l 347 222 q 411 128 357 162 q 539 94 465 94 q 637 125 597 94 q 698 212 678 156 q 723 463 723 286 q 699 713 723 640 q 639 800 680 769 q 539 832 598 832 m 539 940 q 708 887 637 940 q 807 750 778 834 q 833 627 827 691 q 839 463 839 562 q 838 356 839 392 q 831 268 837 319 q 810 176 824 217 q 716 39 782 92 q 557 -14 650 -14 q 444 9 486 -14 q 356 82 401 32 l 347 82 l 347 -347 l 231 -347 l 231 463 q 237 627 231 562 q 261 750 242 691 q 362 887 288 834 q 539 940 435 940 z "},"ς":{"ha":926,"x_min":203,"x_max":810,"o":"m 319 557 q 319 541 319 557 q 318 463 318 524 q 319 368 318 401 q 327 289 320 335 q 347 212 334 243 q 531 94 399 94 q 571 95 542 94 q 616 96 600 96 q 736 59 687 96 q 800 -37 784 22 q 810 -138 810 -73 l 810 -231 l 712 -231 l 703 -138 q 679 -42 696 -72 q 612 -13 662 -13 q 573 -14 600 -13 q 529 -14 545 -14 q 347 38 420 -14 q 239 175 273 90 q 209 297 215 231 q 203 463 203 362 q 209 629 203 564 q 241 751 216 694 q 548 940 324 940 q 792 925 638 940 l 792 817 q 548 832 637 832 q 425 802 470 832 q 350 713 379 773 q 328 637 335 683 q 319 557 320 590 z "},"σ":{"ha":926,"x_min":203,"x_max":926,"o":"m 694 713 q 521 832 647 832 q 347 713 395 832 q 318 463 318 641 q 347 212 318 285 q 521 94 395 94 q 694 212 647 94 q 723 463 723 285 q 694 713 723 641 m 766 817 q 824 671 809 757 q 839 463 839 586 q 833 298 839 363 q 803 176 826 234 q 697 39 769 92 q 521 -14 624 -14 q 345 39 418 -14 q 239 176 272 92 q 209 298 215 234 q 203 463 203 363 q 209 628 203 563 q 239 750 215 692 q 345 887 272 834 q 521 940 418 940 q 618 926 571 940 l 926 926 l 926 817 l 766 817 z "},"τ":{"ha":926,"x_min":116,"x_max":926,"o":"m 926 926 l 926 817 l 579 817 q 579 252 579 817 q 580 209 579 224 q 586 172 581 194 q 604 134 592 150 q 694 94 634 94 q 810 109 732 94 l 810 -2 q 685 -14 732 -14 q 529 47 589 -14 q 483 121 498 79 q 465 188 467 163 q 463 252 463 212 l 463 817 l 116 817 l 116 926 l 926 926 z "},"υ":{"ha":926,"x_min":231,"x_max":810,"o":"m 810 305 m 231 305 l 231 926 l 347 926 l 347 305 q 354 217 347 246 q 412 127 368 161 q 521 94 456 94 q 630 127 586 94 q 687 217 674 161 q 694 305 694 246 l 694 926 l 810 926 l 810 305 q 802 194 810 233 q 709 43 783 100 q 521 -14 635 -14 q 333 43 407 -14 q 240 194 259 100 q 231 305 231 233 m 347 305 z "},"φ":{"ha":926,"x_min":119,"x_max":922,"o":"m 463 826 q 326 781 375 817 q 251 670 276 746 q 226 463 226 594 q 280 195 226 275 q 463 99 334 115 l 463 826 m 579 99 q 762 195 708 115 q 816 463 816 275 q 791 670 816 594 q 716 781 766 746 q 579 826 666 817 l 579 99 m 119 463 q 141 672 119 585 q 206 813 162 759 q 313 896 250 868 q 463 931 375 924 l 463 1273 l 579 1273 l 579 931 q 729 896 666 924 q 836 813 791 868 q 901 672 880 759 q 922 463 922 585 q 838 119 922 229 q 579 -5 753 10 l 579 -347 l 463 -347 l 463 -5 q 204 119 288 10 q 119 463 119 229 z "},"χ":{"ha":926,"x_min":144,"x_max":898,"o":"m 516 400 l 525 400 l 754 926 l 878 926 l 588 307 l 588 297 l 898 -347 l 773 -347 l 525 204 l 516 204 l 269 -347 l 144 -347 l 454 297 l 454 307 l 164 926 l 288 926 l 516 400 z "},"ψ":{"ha":926,"x_min":116,"x_max":926,"o":"m 463 -13 q 254 50 340 -4 q 135 198 168 103 q 116 347 116 253 l 116 926 l 231 926 l 231 347 q 245 231 231 272 q 463 97 287 112 l 463 1273 l 579 1273 l 579 97 q 797 231 755 112 q 810 347 810 272 l 810 926 l 926 926 l 926 347 q 907 198 926 253 q 788 50 873 103 q 579 -13 702 -4 l 579 -347 l 463 -347 l 463 -13 z "},"ω":{"ha":926,"x_min":116,"x_max":926,"o":"m 516 76 q 347 -14 462 -14 q 202 32 263 -14 q 124 151 141 78 q 116 239 116 184 l 116 926 l 231 926 l 231 239 q 237 175 231 198 q 275 116 245 138 q 347 94 305 94 q 420 116 390 94 q 458 175 449 138 q 463 239 463 198 l 463 694 l 579 694 l 579 239 q 584 175 579 198 q 622 116 592 138 q 694 94 652 94 q 767 116 737 94 q 805 175 797 138 q 810 239 810 198 l 810 926 l 926 926 l 926 239 q 918 151 926 184 q 840 32 901 78 q 694 -14 779 -14 q 525 76 580 -14 l 516 76 z "},"ϊ":{"ha":926,"x_min":217,"x_max":825,"o":"m 650 1231 q 664 1245 650 1231 q 723 1259 678 1259 q 797 1231 769 1259 q 825 1157 825 1203 q 797 1084 825 1112 q 723 1056 769 1056 q 650 1084 678 1056 q 622 1157 622 1112 q 650 1231 622 1203 m 245 1231 q 259 1245 245 1231 q 318 1259 273 1259 q 392 1231 363 1259 q 420 1157 420 1203 q 392 1084 420 1112 q 318 1056 363 1056 q 245 1084 273 1056 q 217 1157 217 1112 q 245 1231 217 1203 m 810 -2 q 685 -14 741 -14 q 529 47 589 -14 q 483 121 498 79 q 465 188 467 163 q 463 252 463 212 l 463 926 l 579 926 l 579 252 q 580 209 579 224 q 586 172 581 194 q 604 134 592 150 q 694 94 634 94 q 810 108 749 94 l 810 -2 z "},"ϋ":{"ha":926,"x_min":217,"x_max":825,"o":"m 650 1231 q 664 1245 650 1231 q 723 1259 678 1259 q 797 1231 769 1259 q 825 1157 825 1203 q 797 1084 825 1112 q 723 1056 769 1056 q 650 1084 678 1056 q 622 1157 622 1112 q 650 1231 622 1203 m 245 1231 q 259 1245 245 1231 q 318 1259 273 1259 q 392 1231 363 1259 q 420 1157 420 1203 q 392 1084 420 1112 q 318 1056 363 1056 q 245 1084 273 1056 q 217 1157 217 1112 q 245 1231 217 1203 m 810 305 m 231 305 l 231 926 l 347 926 l 347 305 q 354 217 347 246 q 412 127 368 161 q 521 94 456 94 q 630 127 586 94 q 687 217 674 161 q 694 305 694 246 l 694 926 l 810 926 l 810 305 q 802 194 810 233 q 709 43 783 100 q 521 -14 635 -14 q 333 43 407 -14 q 240 194 259 100 q 231 305 231 233 m 347 305 z "},"ό":{"ha":926,"x_min":203,"x_max":839,"o":"m 624 1300 l 710 1228 l 524 1023 l 456 1080 l 624 1300 m 345 887 q 381 914 345 887 q 521 940 418 940 q 697 887 624 940 q 803 750 769 834 q 833 628 826 692 q 839 463 839 563 q 833 298 839 363 q 803 176 826 234 q 697 39 769 92 q 521 -14 624 -14 q 345 39 418 -14 q 239 176 272 92 q 209 298 215 234 q 203 463 203 363 q 209 628 203 563 q 239 750 215 692 q 345 887 272 834 m 694 713 q 521 832 647 832 q 347 713 395 832 q 318 463 318 641 q 347 212 318 285 q 521 94 395 94 q 694 212 647 94 q 723 463 723 285 q 694 713 723 641 z "},"ύ":{"ha":926,"x_min":231,"x_max":810,"o":"m 624 1300 l 710 1228 l 524 1023 l 456 1080 l 624 1300 m 810 305 m 231 305 l 231 926 l 347 926 l 347 305 q 354 217 347 246 q 412 127 368 161 q 521 94 456 94 q 630 127 586 94 q 687 217 674 161 q 694 305 694 246 l 694 926 l 810 926 l 810 305 q 802 194 810 233 q 709 43 783 100 q 521 -14 635 -14 q 333 43 407 -14 q 240 194 259 100 q 231 305 231 233 m 347 305 z "},"ώ":{"ha":926,"x_min":116,"x_max":926,"o":"m 624 1300 l 710 1228 l 524 1023 l 456 1080 l 624 1300 m 516 76 q 347 -14 462 -14 q 202 32 263 -14 q 124 151 141 78 q 116 239 116 184 l 116 926 l 231 926 l 231 239 q 237 175 231 198 q 275 116 245 138 q 347 94 305 94 q 420 116 390 94 q 458 175 449 138 q 463 239 463 198 l 463 694 l 579 694 l 579 239 q 584 175 579 198 q 622 116 592 138 q 694 94 652 94 q 767 116 737 94 q 805 175 797 138 q 810 239 810 198 l 810 926 l 926 926 l 926 239 q 918 151 926 184 q 840 32 901 78 q 694 -14 779 -14 q 525 76 580 -14 l 516 76 z "},"Ϝ":{"ha":926,"x_min":231,"x_max":926,"o":"m 231 1273 l 926 1273 l 926 1165 l 347 1165 l 347 687 l 810 687 l 810 579 l 347 579 l 347 0 l 231 0 l 231 1273 z "}}}
